SplineFontDB: 3.0
FontName: Vazir-Thin
FullName: Vazir Thin
FamilyName: Vazir
Weight: Thin
Copyright: Copyright (c) 2003 by Bitstream, Inc. All Rights Reserved.\nDejaVu changes are in public domain\nChanges by Saber Rastikerdar are in public domain.\nNon-Arabic(Latin) glyphs and data in extended version are imported from Roboto font under the Apache License, Version 2.0.
Version: 14.0.0
ItalicAngle: 0
UnderlinePosition: -500
UnderlineWidth: 100
Ascent: 1638
Descent: 410
InvalidEm: 0
LayerCount: 2
Layer: 0 1 "Back" 1
Layer: 1 1 "Fore" 0
PreferredKerning: 4
XUID: [1021 502 1027637223 18618]
UniqueID: 4011868
UseUniqueID: 1
FSType: 0
OS2Version: 1
OS2_WeightWidthSlopeOnly: 0
OS2_UseTypoMetrics: 1
CreationTime: 1431850356
ModificationTime: 1503375190
PfmFamily: 33
TTFWeight: 100
TTFWidth: 5
LineGap: 0
VLineGap: 0
Panose: 2 11 6 3 3 8 4 2 2 4
OS2TypoAscent: 2350
OS2TypoAOffset: 0
OS2TypoDescent: -1100
OS2TypoDOffset: 0
OS2TypoLinegap: 0
OS2WinAscent: 2350
OS2WinAOffset: 0
OS2WinDescent: 1100
OS2WinDOffset: 0
HheadAscent: 2350
HheadAOffset: 0
HheadDescent: -1100
HheadDOffset: 0
OS2SubXSize: 1331
OS2SubYSize: 1433
OS2SubXOff: 0
OS2SubYOff: 286
OS2SupXSize: 1331
OS2SupYSize: 1433
OS2SupXOff: 0
OS2SupYOff: 983
OS2StrikeYSize: 102
OS2StrikeYPos: 530
OS2CapHeight: 1638
OS2XHeight: 1082
OS2Vendor: 'PfEd'
OS2CodePages: 00000041.20080000
OS2UnicodeRanges: 80002003.80000000.00000008.00000000
Lookup: 1 9 0 "'fina' Terminal Forms in Arabic lookup 9" { "'fina' Terminal Forms in Arabic lookup 9 subtable"  } ['fina' ('arab' <'KUR ' 'SND ' 'URD ' 'dflt' > ) ]
Lookup: 1 9 0 "'medi' Medial Forms in Arabic lookup 11" { "'medi' Medial Forms in Arabic lookup 11 subtable"  } ['medi' ('arab' <'KUR ' 'SND ' 'URD ' 'dflt' > ) ]
Lookup: 1 9 0 "'init' Initial Forms in Arabic lookup 13" { "'init' Initial Forms in Arabic lookup 13 subtable"  } ['init' ('arab' <'KUR ' 'SND ' 'URD ' 'dflt' > ) ]

StartChar: exclam
Encoding: 33 33 1
GlifName: exclam
Width: 641
VWidth: 2764
GlyphClass: 2
Flags: W
LayerCount: 2
Fore
SplineSet
215.091796875 140.493164062 m 0,0,1
 215.091796875 183.94154082 215.091796875 183.94154082 245.961511507 214.810495264 c 128,-1,2
 276.829943567 245.6796875 276.829943567 245.6796875 320.278320312 245.6796875 c 128,-1,3
 363.72767362 245.6796875 363.72767362 245.6796875 394.596105674 214.81049527 c 128,-1,4
 425.463867188 183.941973579 425.463867188 183.941973579 425.463867188 140.493164062 c 128,-1,5
 425.463867188 97.0443545455 425.463867188 97.0443545455 394.59610568 66.1758328608 c 128,-1,6
 363.72767362 35.306640625 363.72767362 35.306640625 320.278320312 35.306640625 c 0,7,8
 312.400893865 35.306640625 312.400893865 35.306640625 305.146808018 36.2224490811 c 128,-1,9
 297.892722171 37.1382575372 297.892722171 37.1382575372 291.146741789 38.9766404122 c 128,-1,10
 284.400761406 40.8150232872 284.400761406 40.8150232872 278.068740519 43.6273500709 c 128,-1,11
 271.736719632 46.4396768545 271.736719632 46.4396768545 265.799850256 50.1830722942 c 128,-1,12
 259.86298088 53.9264677338 259.86298088 53.9264677338 254.130689895 58.7019425347 c 0,13,14
 232.385248362 76.8174643979 232.385248362 76.8174643979 222.692851159 100.16794877 c 0,15,16
 215.091796875 118.478454132 215.091796875 118.478454132 215.091796875 140.493164062 c 0,0,1
243.97056431 1436.07128906 m 1,17,-1
 399.841831535 1436.07128906 l 1,18,-1
 376.845907555 529.32421875 l 1,19,-1
 268.114177796 529.32421875 l 1,20,-1
 243.97056431 1436.07128906 l 1,17,-1
EndSplineSet
EndChar

StartChar: period
Encoding: 46 46 2
GlifName: period
Width: 641
VWidth: 2764
GlyphClass: 2
Flags: W
LayerCount: 2
Fore
SplineSet
215.091796875 140.493164062 m 0,0,1
 215.091796875 183.94154082 215.091796875 183.94154082 245.961511507 214.810495264 c 128,-1,2
 276.829943567 245.6796875 276.829943567 245.6796875 320.278320312 245.6796875 c 128,-1,3
 363.72767362 245.6796875 363.72767362 245.6796875 394.596105674 214.81049527 c 128,-1,4
 425.463867188 183.941973579 425.463867188 183.941973579 425.463867188 140.493164062 c 128,-1,5
 425.463867188 97.0443545455 425.463867188 97.0443545455 394.59610568 66.1758328608 c 128,-1,6
 363.72767362 35.306640625 363.72767362 35.306640625 320.278320312 35.306640625 c 0,7,8
 312.400893865 35.306640625 312.400893865 35.306640625 305.146808018 36.2224490811 c 128,-1,9
 297.892722171 37.1382575372 297.892722171 37.1382575372 291.146741789 38.9766404122 c 128,-1,10
 284.400761406 40.8150232872 284.400761406 40.8150232872 278.068740519 43.6273500709 c 128,-1,11
 271.736719632 46.4396768545 271.736719632 46.4396768545 265.799850256 50.1830722942 c 128,-1,12
 259.86298088 53.9264677338 259.86298088 53.9264677338 254.130689895 58.7019425347 c 0,13,14
 232.385248362 76.8174643979 232.385248362 76.8174643979 222.692851159 100.16794877 c 0,15,16
 215.091796875 118.478454132 215.091796875 118.478454132 215.091796875 140.493164062 c 0,0,1
EndSplineSet
EndChar

StartChar: colon
Encoding: 58 58 3
GlifName: colon
Width: 641
VWidth: 2764
GlyphClass: 2
Flags: W
LayerCount: 2
Fore
SplineSet
215.091796875 1010.49316406 m 0,0,1
 215.091796875 1053.94154082 215.091796875 1053.94154082 245.961511507 1084.81049526 c 0,2,3
 261.851735172 1100.70111025 261.851735172 1100.70111025 279.894053932 1108.19039887 c 128,-1,4
 297.936372692 1115.6796875 297.936372692 1115.6796875 320.278320312 1115.6796875 c 0,5,6
 363.72767362 1115.6796875 363.72767362 1115.6796875 394.596105673 1084.81049527 c 128,-1,7
 425.463867188 1053.94197358 425.463867188 1053.94197358 425.463867188 1010.49316406 c 0,8,9
 425.463867188 988.148818079 425.463867188 988.148818079 417.974234806 970.106769484 c 128,-1,10
 410.484602424 952.064720889 410.484602424 952.064720889 394.59610568 936.175832861 c 0,11,12
 363.72767362 905.306640625 363.72767362 905.306640625 320.278320312 905.306640625 c 0,13,14
 282.213484554 905.306640625 282.213484554 905.306640625 254.130689895 928.701942535 c 0,15,16
 246.67733662 934.911123617 246.67733662 934.911123617 240.726607847 941.606225529 c 128,-1,17
 234.775879075 948.30132744 234.775879075 948.30132744 230.343719227 955.35745507 c 128,-1,18
 225.91155938 962.413582699 225.91155938 962.413582699 222.692851159 970.16794877 c 0,19,20
 215.091796875 988.478454132 215.091796875 988.478454132 215.091796875 1010.49316406 c 0,0,1
215.091796875 140.493164062 m 0,21,22
 215.091796875 183.94154082 215.091796875 183.94154082 245.961511507 214.810495264 c 128,-1,23
 276.829943567 245.6796875 276.829943567 245.6796875 320.278320312 245.6796875 c 128,-1,24
 363.72767362 245.6796875 363.72767362 245.6796875 394.596105674 214.81049527 c 128,-1,25
 425.463867188 183.941973579 425.463867188 183.941973579 425.463867188 140.493164062 c 128,-1,26
 425.463867188 97.0443545455 425.463867188 97.0443545455 394.59610568 66.1758328608 c 128,-1,27
 363.72767362 35.306640625 363.72767362 35.306640625 320.278320312 35.306640625 c 0,28,29
 312.400893865 35.306640625 312.400893865 35.306640625 305.146808018 36.2224490811 c 128,-1,30
 297.892722171 37.1382575372 297.892722171 37.1382575372 291.146741789 38.9766404122 c 128,-1,31
 284.400761406 40.8150232872 284.400761406 40.8150232872 278.068740519 43.6273500709 c 128,-1,32
 271.736719632 46.4396768545 271.736719632 46.4396768545 265.799850256 50.1830722942 c 128,-1,33
 259.86298088 53.9264677338 259.86298088 53.9264677338 254.130689895 58.7019425347 c 0,34,35
 232.385248362 76.8174643979 232.385248362 76.8174643979 222.692851159 100.16794877 c 0,36,37
 215.091796875 118.478454132 215.091796875 118.478454132 215.091796875 140.493164062 c 0,21,22
EndSplineSet
EndChar

StartChar: afii57388
Encoding: 1548 1548 5
GlifName: afii57388
Width: 739
VWidth: 2772
GlyphClass: 2
Flags: W
LayerCount: 2
Fore
SplineSet
264.910637075 284.082651121 m 0,0,1
 307.841957006 496.571002293 307.841957006 496.571002293 467.365692841 633.966496181 c 1,2,3
 340.587549519 493.420020635 340.587549519 493.420020635 326.067386861 291.349380759 c 2,4,-1
 323.725590812 258.759647625 l 1,5,-1
 356.396358593 259.201967824 l 2,6,7
 470.732674817 260.749934573 470.732674817 260.749934573 495.831417445 211.428529251 c 0,8,9
 511.830053453 179.28769214 511.830053453 179.28769214 511.092323882 148.585517716 c 0,10,11
 510.208059667 89.6886383177 510.208059667 89.6886383177 483.746492647 64.3178153633 c 128,-1,12
 457.284925628 38.9469924089 457.284925628 38.9469924089 395.927557331 38.9071858777 c 0,13,14
 370.73522181 38.8018625783 370.73522181 38.8018625783 350.135348973 42.8601864058 c 0,15,16
 286.295285382 55.4371403164 286.295285382 55.4371403164 264.017436633 111.934799505 c 128,-1,17
 241.739587883 168.432458694 241.739587883 168.432458694 264.910637075 284.082651121 c 0,0,1
EndSplineSet
EndChar

StartChar: uni0615
Encoding: 1557 1557 6
GlifName: uni0615
Width: -29
VWidth: 2714
GlyphClass: 4
Flags: W
AnchorPoint: "Anchor-10" 658.199 1624.46 mark 0
AnchorPoint: "Anchor-9" 658.199 1624.46 mark 0
AnchorPoint: "Anchor-1" 672.366 2447.86 basemark 0
AnchorPoint: "Anchor-1" 658.199 1624.46 mark 0
LayerCount: 2
Fore
SplineSet
541.2421875 1775.00390625 m 1,0,-1
 677.703125 1775.00390625 l 2,1,2
 699.071002991 1775.00390625 699.071002991 1775.00390625 718.806321323 1776.41313605 c 128,-1,3
 738.541639654 1777.82236585 738.541639654 1777.82236585 756.899263217 1780.69061818 c 128,-1,4
 775.25688678 1783.55887051 775.25688678 1783.55887051 791.990023818 1787.884055 c 128,-1,5
 808.723160856 1792.20923948 808.723160856 1792.20923948 824.023495959 1798.06906616 c 128,-1,6
 839.323831062 1803.92889285 839.323831062 1803.92889285 853.007752776 1811.29335404 c 0,7,8
 924.573229861 1849.8087146 924.573229861 1849.8087146 927.563561482 1911.67230996 c 0,9,10
 928.510395403 1931.26028816 928.510395403 1931.26028816 924.944570438 1947.3586821 c 128,-1,11
 921.378745474 1963.45707603 921.378745474 1963.45707603 912.484516516 1976.28889844 c 128,-1,12
 903.590287557 1989.12072086 903.590287557 1989.12072086 889.667083237 1996.6627666 c 0,13,14
 828.145125253 2030.99887216 828.145125253 2030.99887216 738.950271231 1980.34635623 c 128,-1,15
 649.755417209 1929.6938403 649.755417209 1929.6938403 530.21938496 1800.17729429 c 2,16,-1
 506.985852127 1775.00390625 l 1,17,-1
 541.2421875 1775.00390625 l 1,0,-1
976.132806808 1928.79523598 m 0,18,19
 976.07106922 1828.94603674 976.07106922 1828.94603674 901.038112832 1779.01012775 c 128,-1,20
 826.005156445 1729.07421875 826.005156445 1729.07421875 668.384765625 1729.07421875 c 2,21,-1
 369.936523438 1729.07421875 l 1,22,-1
 369.936523438 1775.00390625 l 1,23,-1
 462.987304688 1775.00390625 l 1,24,-1
 477.987304688 1775.00390625 l 1,25,-1
 477.987304688 1790.00390625 l 1,26,-1
 477.987304688 2306.96148119 l 1,27,-1
 525.201091067 2306.37057022 l 1,28,-1
 524.275428404 1893.93600947 l 1,29,-1
 524.185894319 1854.04355976 l 1,30,-1
 550.537070985 1883.99403635 l 2,31,32
 618.725332086 1961.49611316 618.725332086 1961.49611316 681.667697194 2005.80579141 c 128,-1,33
 744.610062302 2050.11546966 744.610062302 2050.11546966 800.322340963 2060.8634123 c 128,-1,34
 856.034619624 2071.61135493 856.034619624 2071.61135493 907.087256289 2052.6620394 c 0,35,36
 976.012721582 2026.62672687 976.012721582 2026.62672687 976.132806808 1928.79523598 c 0,18,19
EndSplineSet
EndChar

StartChar: uni061B
Encoding: 1563 1563 7
GlifName: uni061B_
Width: 739
VWidth: 2772
GlyphClass: 2
Flags: W
LayerCount: 2
Fore
SplineSet
292.091796875 140.493164062 m 0,0,1
 292.091796875 183.94154082 292.091796875 183.94154082 322.961511507 214.810495264 c 128,-1,2
 353.829943567 245.6796875 353.829943567 245.6796875 397.278320312 245.6796875 c 128,-1,3
 440.72767362 245.6796875 440.72767362 245.6796875 471.596105674 214.81049527 c 128,-1,4
 502.463867188 183.941973579 502.463867188 183.941973579 502.463867188 140.493164062 c 128,-1,5
 502.463867188 97.0443545455 502.463867188 97.0443545455 471.59610568 66.1758328608 c 128,-1,6
 440.72767362 35.306640625 440.72767362 35.306640625 397.278320312 35.306640625 c 0,7,8
 377.694340471 35.306640625 377.694340471 35.306640625 361.57452748 41.0377401022 c 128,-1,9
 345.454714489 46.7688395795 345.454714489 46.7688395795 331.130689895 58.7019425347 c 0,10,11
 309.385248362 76.8174643979 309.385248362 76.8174643979 299.692851159 100.16794877 c 0,12,13
 295.906486782 109.28908416 295.906486782 109.28908416 293.999141828 119.281198249 c 128,-1,14
 292.091796875 129.273312338 292.091796875 129.273312338 292.091796875 140.493164062 c 0,0,1
264.910637075 764.082651121 m 0,15,16
 307.841957006 976.571002293 307.841957006 976.571002293 467.365692842 1113.96649618 c 1,17,18
 340.587549519 973.420020634 340.587549519 973.420020634 326.067386861 771.349380759 c 2,19,-1
 323.725590812 738.759647625 l 1,20,-1
 356.396358593 739.201967824 l 2,21,22
 470.732674817 740.749934573 470.732674817 740.749934573 495.831417445 691.428529251 c 0,23,24
 501.294231869 680.453879382 501.294231869 680.453879382 504.779349213 669.780260893 c 128,-1,25
 508.264466557 659.106642404 508.264466557 659.106642404 509.800370423 648.926798773 c 128,-1,26
 511.336274288 638.746955142 511.336274288 638.746955142 511.092033502 628.58560122 c 0,27,28
 510.49759072 588.986901312 510.49759072 588.986901312 498.785234143 565.184243472 c 128,-1,29
 487.072877565 541.381585632 487.072877565 541.381585632 462.162307151 530.157790601 c 128,-1,30
 437.251736737 518.933995571 437.251736737 518.933995571 395.927557331 518.907185877 c 0,31,32
 383.169982385 518.853849422 383.169982385 518.853849422 371.754153587 519.851987926 c 128,-1,33
 360.338324788 520.850126431 360.338324788 520.850126431 350.135348973 522.860186405 c 0,34,35
 286.295285382 535.437140316 286.295285382 535.437140316 264.017436633 591.934799505 c 128,-1,36
 241.739587883 648.432458694 241.739587883 648.432458694 264.910637075 764.082651121 c 0,15,16
EndSplineSet
EndChar

StartChar: uni061F
Encoding: 1567 1567 8
GlifName: uni061F_
Width: 974
VWidth: 2764
GlyphClass: 2
Flags: W
LayerCount: 2
Fore
SplineSet
448.091796875 140.493164062 m 0,0,1
 448.091796875 183.94154082 448.091796875 183.94154082 478.961511507 214.810495264 c 0,2,3
 494.851735172 230.701110247 494.851735172 230.701110247 512.894053932 238.190398873 c 128,-1,4
 530.936372692 245.6796875 530.936372692 245.6796875 553.278320312 245.6796875 c 0,5,6
 596.72767362 245.6796875 596.72767362 245.6796875 627.596105674 214.81049527 c 128,-1,7
 658.463867188 183.941973579 658.463867188 183.941973579 658.463867188 140.493164062 c 128,-1,8
 658.463867188 97.0443545455 658.463867188 97.0443545455 627.59610568 66.1758328608 c 128,-1,9
 596.72767362 35.306640625 596.72767362 35.306640625 553.278320312 35.306640625 c 0,10,11
 533.694340471 35.306640625 533.694340471 35.306640625 517.57452748 41.0377401022 c 128,-1,12
 501.454714489 46.7688395795 501.454714489 46.7688395795 487.130689895 58.7019425347 c 0,13,14
 465.385248362 76.8174643979 465.385248362 76.8174643979 455.692851159 100.16794877 c 0,15,16
 451.906486782 109.28908416 451.906486782 109.28908416 449.999141828 119.281198249 c 128,-1,17
 448.091796875 129.273312338 448.091796875 129.273312338 448.091796875 140.493164062 c 0,0,1
476.090250007 526.333007812 m 1,18,19
 472.305443481 537.18315928 472.305443481 537.18315928 466.724471746 548.667773652 c 128,-1,20
 461.14350001 560.152388025 461.14350001 560.152388025 453.705646351 572.327429864 c 128,-1,21
 446.267792691 584.502471704 446.267792691 584.502471704 437.194374773 597.28901854 c 128,-1,22
 428.120956855 610.075565377 428.120956855 610.075565377 416.999544905 623.902076408 c 128,-1,23
 405.878132955 637.728587439 405.878132955 637.728587439 393.305205234 652.118812583 c 128,-1,24
 380.732277514 666.509037727 380.732277514 666.509037727 365.920243654 682.288763793 c 128,-1,25
 351.108209795 698.068489859 351.108209795 698.068489859 335.028708652 714.364139154 c 128,-1,26
 318.94920751 730.659788449 318.94920751 730.659788449 300.462935658 748.669642418 c 0,27,28
 131.276463974 913.39278212 131.276463974 913.39278212 134.993838641 1084.39201678 c 0,29,30
 137.772402526 1221.46783512 137.772402526 1221.46783512 214.495627247 1309.15152051 c 0,31,32
 326.43422916 1434.96680861 326.43422916 1434.96680861 508.82526408 1434.51685764 c 0,33,34
 676.719094093 1433.82314424 676.719094093 1433.82314424 758.797899857 1351.46457753 c 128,-1,35
 840.876705622 1269.10601081 840.876705622 1269.10601081 845.732085938 1096.24963098 c 1,36,-1
 745.245593316 1096.24840588 l 1,37,38
 741.624711819 1162.24163688 741.624711819 1162.24163688 713.668247808 1208.23636649 c 128,-1,39
 685.711783797 1254.23109611 685.711783797 1254.23109611 636.037752548 1277.58107767 c 128,-1,40
 586.363721299 1300.93105923 586.363721299 1300.93105923 517.627491086 1300.89451919 c 0,41,42
 385.922923604 1301.01263693 385.922923604 1301.01263693 321.349850214 1223.21151266 c 0,43,44
 295.663473078 1192.54404539 295.663473078 1192.54404539 282.72314904 1153.61521842 c 128,-1,45
 269.782825003 1114.68639145 269.782825003 1114.68639145 269.51106556 1069.13929182 c 0,46,47
 268.943860858 946.978799244 268.943860858 946.978799244 417.91408442 791.984946236 c 0,48,49
 584.919659572 616.830782055 584.919659572 616.830782055 617.898690102 526.333007812 c 1,50,-1
 476.090250007 526.333007812 l 1,18,19
EndSplineSet
EndChar

StartChar: uni0621
Encoding: 1569 1569 9
GlifName: uni0621
Width: 938
VWidth: 2952
GlyphClass: 2
Flags: W
AnchorPoint: "Anchor-7" 465.326 -239.646 basechar 0
AnchorPoint: "Anchor-10" 483.848 1372.06 basechar 0
LayerCount: 2
Fore
SplineSet
147.76953125 62.4710285392 m 1,0,-1
 147.76953125 193.174688618 l 1,1,2
 264.866168609 265.508156796 264.866168609 265.508156796 367.350424143 297.983534327 c 2,3,-1
 436.247405002 319.815721647 l 1,4,-1
 372.14208423 353.19155457 l 2,5,6
 316.698404523 382.057785458 316.698404523 382.057785458 275.825228158 414.448070932 c 128,-1,7
 234.952051793 446.838356405 234.952051793 446.838356405 208.644982243 482.650191965 c 128,-1,8
 182.337912694 518.462027525 182.337912694 518.462027525 169.496010158 557.347829097 c 128,-1,9
 156.654107622 596.233630669 156.654107622 596.233630669 156.554257338 639.303524752 c 0,10,11
 156.758148635 695.859944516 156.758148635 695.859944516 175.750448771 746.137455909 c 128,-1,12
 194.742748907 796.414967301 194.742748907 796.414967301 233.145306471 841.627855027 c 0,13,14
 322.767972512 945.985237806 322.767972512 945.985237806 488.609348415 945.806663544 c 0,15,16
 522.400280311 945.84843231 522.400280311 945.84843231 554.212968108 940.814187933 c 128,-1,17
 586.025655905 935.779943555 586.025655905 935.779943555 615.809211387 925.693234426 c 128,-1,18
 645.592766869 915.606525296 645.592766869 915.606525296 673.390523374 900.59071765 c 128,-1,19
 701.188279879 885.574910004 701.188279879 885.574910004 727.228134172 865.546234884 c 1,20,-1
 692.638454359 787.400330372 l 1,21,22
 599.872641227 830.033245453 599.872641227 830.033245453 500.361497107 830.437274253 c 0,23,24
 389.154195756 830.200518436 389.154195756 830.200518436 327.083013417 781.508638531 c 128,-1,25
 265.011831078 732.816758625 265.011831078 732.816758625 265.028301377 639.274025966 c 0,26,27
 264.99568307 494.895324186 264.99568307 494.895324186 505.086927803 382.86382946 c 2,28,-1
 514.033748629 378.689059525 l 1,29,-1
 523.711271767 380.643503902 l 1,30,-1
 775.342343289 431.462181955 l 1,31,-1
 794.256246185 300.519368388 l 1,32,33
 514.878230103 260.073934997 514.878230103 260.073934997 147.76953125 62.4710285392 c 1,0,-1
EndSplineSet
EndChar

StartChar: uni0627
Encoding: 1575 1575 15
GlifName: uni0627
Width: 497
VWidth: 2952
GlyphClass: 2
Flags: W
AnchorPoint: "Anchor-10" 249.871 1633.46 basechar 0
AnchorPoint: "Anchor-7" 253.587 -236.365 basechar 0
LayerCount: 2
Fore
SplineSet
200.890625 1438.15039062 m 1,0,-1
 314.205078125 1438.15039062 l 1,1,-1
 314.205078125 30.751953125 l 1,2,-1
 200.890625 30.751953125 l 1,3,-1
 200.890625 1438.15039062 l 1,0,-1
EndSplineSet
Substitution2: "'fina' Terminal Forms in Arabic lookup 9 subtable" uniFE8E
EndChar

StartChar: uni062C
Encoding: 1580 1580 20
GlifName: uni062C_
Width: 1386
VWidth: 2703
GlyphClass: 2
Flags: W
AnchorPoint: "Anchor-7" 536.833 -922.619 basechar 0
AnchorPoint: "Anchor-10" 633.478 1366.07 basechar 0
LayerCount: 2
Fore
SplineSet
791.528320312 -701.249023438 m 1024
EndSplineSet
Refer: 21 1581 N 1 0 0 1 0 0 2
Refer: 264 -1 N 1.07 0 0 1.07 701.95 -174.716 2
Substitution2: "'fina' Terminal Forms in Arabic lookup 9 subtable" uniFE9E
Substitution2: "'medi' Medial Forms in Arabic lookup 11 subtable" uniFEA0
Substitution2: "'init' Initial Forms in Arabic lookup 13 subtable" uniFE9F
EndChar

StartChar: uni062D
Encoding: 1581 1581 21
GlifName: uni062D_
Width: 1386
VWidth: 2952
GlyphClass: 2
Flags: W
AnchorPoint: "Anchor-7" 536.833 -922.619 basechar 0
AnchorPoint: "Anchor-10" 633.478 1366.07 basechar 0
LayerCount: 2
Fore
SplineSet
134.987304707 -164.851941643 m 0,0,1
 134.987304707 123.729442327 134.987304707 123.729442327 311.017872941 306.139225306 c 0,2,3
 487.048441175 488.549008285 487.048441175 488.549008285 847.495496549 568.48799877 c 2,4,-1
 857.495496549 570.705772207 l 1,5,-1
 954.6464056 592.251642755 l 1,6,-1
 861.774868768 627.992394196 l 2,7,8
 858.945258631 629.08134347 858.945258631 629.08134347 855.330557351 630.486854509 c 0,9,10
 851.715856071 631.892365547 851.715856071 631.892365547 847.31677984 633.614200427 c 0,11,12
 842.917703609 635.336035306 842.917703609 635.336035306 837.747918518 637.368790104 c 0,13,14
 832.578133426 639.401544902 832.578133426 639.401544902 826.625229266 641.750202408 c 0,15,16
 820.672325105 644.098859915 820.672325105 644.098859915 813.96396946 646.752447445 c 0,17,18
 807.255613815 649.406034975 807.255613815 649.406034975 799.765394982 652.375104081 c 0,19,20
 792.275176149 655.344173188 792.275176149 655.344173188 784.044763208 658.612182424 c 0,21,22
 775.814350266 661.88019166 775.814350266 661.88019166 766.803330018 665.46326134 c 0,23,24
 757.792309769 669.04633102 757.792309769 669.04633102 748.055477695 672.922698983 c 0,25,26
 547.78161932 754.025211432 547.78161932 754.025211432 469.528023806 753.687752923 c 0,27,28
 341.853429577 754.042160423 341.853429577 754.042160423 259.94175455 648.533895416 c 2,29,-1
 246.931496747 631.77572599 l 1,30,-1
 144.346917741 682.421136162 l 1,31,32
 261.405925788 875.064249624 261.405925788 875.064249624 471.160198282 875.840983806 c 0,33,34
 591.117336538 875.991349071 591.117336538 875.991349071 761.850380812 793.060452191 c 0,35,36
 1052.59569329 651.391989715 1052.59569329 651.391989715 1225.75681023 633.031228943 c 1,37,-1
 1216.94420308 515.141986381 l 1,38,39
 1055.92268244 503.792950472 1055.92268244 503.792950472 946.00625308 478.812447262 c 0,40,41
 600.53370607 398.998099541 600.53370607 398.998099541 422.825448194 241.941523063 c 0,42,43
 245.117190319 84.8849465845 245.117190319 84.8849465845 245.249030281 -149.282471948 c 0,44,45
 245.218935362 -193.840182949 245.218935362 -193.840182949 252.60025775 -233.615272706 c 0,46,47
 259.981580138 -273.390362463 259.981580138 -273.390362463 274.51968141 -307.816592192 c 0,48,49
 289.057782682 -342.242821922 289.057782682 -342.242821922 310.677015895 -371.878957911 c 0,50,51
 332.296249107 -401.5150939 332.296249107 -401.5150939 360.687832722 -425.944162548 c 0,52,53
 389.079416337 -450.373231197 389.079416337 -450.373231197 424.225456066 -469.994782596 c 0,54,55
 459.371495796 -489.616333996 459.371495796 -489.616333996 500.905457445 -504.172610741 c 0,56,57
 542.439419095 -518.728887486 542.439419095 -518.728887486 590.401161034 -528.460223474 c 0,58,59
 638.362902973 -538.191559462 638.362902973 -538.191559462 692.32813835 -542.999413482 c 0,60,61
 746.293373727 -547.807267502 746.293373727 -547.807267502 806.356104026 -547.782708269 c 0,62,63
 917.501376057 -547.88477029 917.501376057 -547.88477029 1021.44889176 -527.185543875 c 0,64,65
 1125.39640746 -506.486317461 1125.39640746 -506.486317461 1221.36177539 -465.201440764 c 1,66,-1
 1245.3009875 -583.920483202 l 1,67,68
 1057.6413624 -668.0193241 1057.6413624 -668.0193241 791.54769814 -668.249029696 c 0,69,70
 419.112131305 -668.008463231 419.112131305 -668.008463231 256.011845807 -491.923347364 c 0,71,72
 134.987304707 -361.229376404 134.987304707 -361.229376404 134.987304707 -164.851941643 c 0,0,1
EndSplineSet
Substitution2: "'fina' Terminal Forms in Arabic lookup 9 subtable" uniFEA2
Substitution2: "'medi' Medial Forms in Arabic lookup 11 subtable" uniFEA4
Substitution2: "'init' Initial Forms in Arabic lookup 13 subtable" uniFEA3
EndChar

StartChar: uni062F
Encoding: 1583 1583 23
GlifName: uni062F_
Width: 1000
VWidth: 2952
GlyphClass: 2
Flags: W
AnchorPoint: "Anchor-10" 424.137 1375.03 basechar 0
AnchorPoint: "Anchor-7" 437.24 -239.316 basechar 0
LayerCount: 2
Fore
SplineSet
130.982421875 178.814195265 m 1,0,1
 240.84719204 159.012982128 240.84719204 159.012982128 341.65438398 159.107423137 c 0,2,3
 742.007762512 158.991294528 742.007762512 158.991294528 741.954100836 366.374259055 c 0,4,5
 741.978995043 479.524255594 741.978995043 479.524255594 640.221468401 597.778272691 c 128,-1,6
 538.463941759 716.032289787 538.463941759 716.032289787 338.81861139 844.933146903 c 1,7,-1
 406.367150143 947.415003444 l 1,8,9
 868.037776302 661.975865612 868.037776302 661.975865612 868.479153845 368.93587544 c 0,10,11
 868.332867278 257.220963379 868.332867278 257.220963379 814.660293484 183.339226853 c 128,-1,12
 760.987719691 109.457490327 760.987719691 109.457490327 646.47536606 70.9793717836 c 128,-1,13
 531.96301243 32.5012532397 531.96301243 32.5012532397 354.756976356 32.2597873934 c 0,14,15
 227.420920922 32.0344194437 227.420920922 32.0344194437 130.982421875 50.3027757364 c 1,16,-1
 130.982421875 178.814195265 l 1,0,1
EndSplineSet
Substitution2: "'fina' Terminal Forms in Arabic lookup 9 subtable" uniFEAA
EndChar

StartChar: uni0631
Encoding: 1585 1585 25
GlifName: uni0631
Width: 830
VWidth: 2144
GlyphClass: 2
Flags: W
AnchorPoint: "Anchor-10" 459.256 1370.2 basechar 0
AnchorPoint: "Anchor-7" 364.969 -769.998 basechar 0
LayerCount: 2
Fore
SplineSet
622.513478868 494.18346622 m 1,0,1
 703.03580217 300.455806026 703.03580217 300.455806026 703.375006726 134.013253588 c 0,2,3
 703.198878731 -129.001343015 703.198878731 -129.001343015 542.500391934 -283.151500931 c 128,-1,4
 381.801905137 -437.301658848 381.801905137 -437.301658848 51.9879499926 -486.662627373 c 1,5,-1
 24.014763393 -374.768597507 l 1,6,7
 298.76142925 -331.53790653 298.76142925 -331.53790653 440.941210285 -206.952091581 c 128,-1,8
 583.120991321 -82.3662766312 583.120991321 -82.3662766312 583.25095396 122.290477358 c 0,9,10
 583.130552913 199.405875174 583.130552913 199.405875174 563.490032661 283.088720932 c 128,-1,11
 543.849512408 366.77156669 543.849512408 366.77156669 505.868774459 454.275342177 c 1,12,-1
 622.513478868 494.18346622 l 1,0,1
EndSplineSet
PairPos2: "'kern' Horizontal Kerning lookup 15-2" uniFBFE dx=60 dy=0 dh=60 dv=0 dx=0 dy=0 dh=0 dv=0
PairPos2: "'kern' Horizontal Kerning lookup 15-1" uniFEE7 dx=-178 dy=0 dh=-178 dv=0 dx=0 dy=0 dh=0 dv=0
PairPos2: "'kern' Horizontal Kerning lookup 15-2" uniFB90 dx=-226 dy=0 dh=-226 dv=0 dx=0 dy=0 dh=0 dv=0
PairPos2: "'kern' Horizontal Kerning lookup 15-2" uniFB8E dx=-226 dy=0 dh=-226 dv=0 dx=0 dy=0 dh=0 dv=0
PairPos2: "'kern' Horizontal Kerning lookup 15-2" uni06A9 dx=-226 dy=0 dh=-226 dv=0 dx=0 dy=0 dh=0 dv=0
PairPos2: "'kern' Horizontal Kerning lookup 15-2" uni064A dx=-60 dy=0 dh=-60 dv=0 dx=0 dy=0 dh=0 dv=0
PairPos2: "'kern' Horizontal Kerning lookup 15-2" afii57414 dx=-60 dy=0 dh=-60 dv=0 dx=0 dy=0 dh=0 dv=0
PairPos2: "'kern' Horizontal Kerning lookup 15-2" uni0649 dx=-60 dy=0 dh=-60 dv=0 dx=0 dy=0 dh=0 dv=0
PairPos2: "'kern' Horizontal Kerning lookup 15-2" uniFEEB dx=-178 dy=0 dh=-178 dv=0 dx=0 dy=0 dh=0 dv=0
PairPos2: "'kern' Horizontal Kerning lookup 15-2" uni0647 dx=-178 dy=0 dh=-178 dv=0 dx=0 dy=0 dh=0 dv=0
PairPos2: "'kern' Horizontal Kerning lookup 15-2" uni0646 dx=-60 dy=0 dh=-60 dv=0 dx=0 dy=0 dh=0 dv=0
PairPos2: "'kern' Horizontal Kerning lookup 15-2" uniFEE3 dx=-178 dy=0 dh=-178 dv=0 dx=0 dy=0 dh=0 dv=0
PairPos2: "'kern' Horizontal Kerning lookup 15-2" uni0645 dx=-178 dy=0 dh=-178 dv=0 dx=0 dy=0 dh=0 dv=0
PairPos2: "'kern' Horizontal Kerning lookup 15-2" uniFEFB dx=-143 dy=0 dh=-143 dv=0 dx=0 dy=0 dh=0 dv=0
PairPos2: "'kern' Horizontal Kerning lookup 15-2" uniFEDF dx=-143 dy=0 dh=-143 dv=0 dx=0 dy=0 dh=0 dv=0
PairPos2: "'kern' Horizontal Kerning lookup 15-2" uni0644 dx=-60 dy=0 dh=-60 dv=0 dx=0 dy=0 dh=0 dv=0
PairPos2: "'kern' Horizontal Kerning lookup 15-2" uniFEDB dx=-226 dy=0 dh=-226 dv=0 dx=0 dy=0 dh=0 dv=0
PairPos2: "'kern' Horizontal Kerning lookup 15-2" uni0643 dx=-143 dy=0 dh=-143 dv=0 dx=0 dy=0 dh=0 dv=0
PairPos2: "'kern' Horizontal Kerning lookup 15-2" uniFED7 dx=-178 dy=0 dh=-178 dv=0 dx=0 dy=0 dh=0 dv=0
PairPos2: "'kern' Horizontal Kerning lookup 15-2" uni0642 dx=-60 dy=0 dh=-60 dv=0 dx=0 dy=0 dh=0 dv=0
PairPos2: "'kern' Horizontal Kerning lookup 15-2" uniFED3 dx=-178 dy=0 dh=-178 dv=0 dx=0 dy=0 dh=0 dv=0
PairPos2: "'kern' Horizontal Kerning lookup 15-2" uni0641 dx=-178 dy=0 dh=-178 dv=0 dx=0 dy=0 dh=0 dv=0
PairPos2: "'kern' Horizontal Kerning lookup 15-2" uniFECF dx=-178 dy=0 dh=-178 dv=0 dx=0 dy=0 dh=0 dv=0
PairPos2: "'kern' Horizontal Kerning lookup 15-2" uniFECB dx=-178 dy=0 dh=-178 dv=0 dx=0 dy=0 dh=0 dv=0
PairPos2: "'kern' Horizontal Kerning lookup 15-2" uniFEC7 dx=-178 dy=0 dh=-178 dv=0 dx=0 dy=0 dh=0 dv=0
PairPos2: "'kern' Horizontal Kerning lookup 15-2" uni0638 dx=-178 dy=0 dh=-178 dv=0 dx=0 dy=0 dh=0 dv=0
PairPos2: "'kern' Horizontal Kerning lookup 15-2" uniFEC3 dx=-178 dy=0 dh=-178 dv=0 dx=0 dy=0 dh=0 dv=0
PairPos2: "'kern' Horizontal Kerning lookup 15-2" uni0637 dx=-178 dy=0 dh=-178 dv=0 dx=0 dy=0 dh=0 dv=0
PairPos2: "'kern' Horizontal Kerning lookup 15-2" uniFEBF dx=-178 dy=0 dh=-178 dv=0 dx=0 dy=0 dh=0 dv=0
PairPos2: "'kern' Horizontal Kerning lookup 15-2" uni0636 dx=-178 dy=0 dh=-178 dv=0 dx=0 dy=0 dh=0 dv=0
PairPos2: "'kern' Horizontal Kerning lookup 15-2" uniFEBB dx=-178 dy=0 dh=-178 dv=0 dx=0 dy=0 dh=0 dv=0
PairPos2: "'kern' Horizontal Kerning lookup 15-2" uni0635 dx=-178 dy=0 dh=-178 dv=0 dx=0 dy=0 dh=0 dv=0
PairPos2: "'kern' Horizontal Kerning lookup 15-2" uniFEB7 dx=-178 dy=0 dh=-178 dv=0 dx=0 dy=0 dh=0 dv=0
PairPos2: "'kern' Horizontal Kerning lookup 15-2" uni0634 dx=-178 dy=0 dh=-178 dv=0 dx=0 dy=0 dh=0 dv=0
PairPos2: "'kern' Horizontal Kerning lookup 15-2" uniFEB3 dx=-178 dy=0 dh=-178 dv=0 dx=0 dy=0 dh=0 dv=0
PairPos2: "'kern' Horizontal Kerning lookup 15-2" uni0633 dx=-178 dy=0 dh=-178 dv=0 dx=0 dy=0 dh=0 dv=0
PairPos2: "'kern' Horizontal Kerning lookup 15-2" uni0630 dx=-178 dy=0 dh=-178 dv=0 dx=0 dy=0 dh=0 dv=0
PairPos2: "'kern' Horizontal Kerning lookup 15-2" uni062F dx=-178 dy=0 dh=-178 dv=0 dx=0 dy=0 dh=0 dv=0
PairPos2: "'kern' Horizontal Kerning lookup 15-2" uniFEA7 dx=-178 dy=0 dh=-178 dv=0 dx=0 dy=0 dh=0 dv=0
PairPos2: "'kern' Horizontal Kerning lookup 15-2" uniFEA3 dx=-178 dy=0 dh=-178 dv=0 dx=0 dy=0 dh=0 dv=0
PairPos2: "'kern' Horizontal Kerning lookup 15-2" uniFE9F dx=-178 dy=0 dh=-178 dv=0 dx=0 dy=0 dh=0 dv=0
PairPos2: "'kern' Horizontal Kerning lookup 15-2" uniFE9B dx=-178 dy=0 dh=-178 dv=0 dx=0 dy=0 dh=0 dv=0
PairPos2: "'kern' Horizontal Kerning lookup 15-2" uni062B dx=-178 dy=0 dh=-178 dv=0 dx=0 dy=0 dh=0 dv=0
PairPos2: "'kern' Horizontal Kerning lookup 15-2" uniFE97 dx=-178 dy=0 dh=-178 dv=0 dx=0 dy=0 dh=0 dv=0
PairPos2: "'kern' Horizontal Kerning lookup 15-2" uni062A dx=-178 dy=0 dh=-178 dv=0 dx=0 dy=0 dh=0 dv=0
PairPos2: "'kern' Horizontal Kerning lookup 15-2" uni0629 dx=-178 dy=0 dh=-178 dv=0 dx=0 dy=0 dh=0 dv=0
PairPos2: "'kern' Horizontal Kerning lookup 15-2" uni0628 dx=-178 dy=0 dh=-178 dv=0 dx=0 dy=0 dh=0 dv=0
PairPos2: "'kern' Horizontal Kerning lookup 15-2" uni0627 dx=-143 dy=0 dh=-143 dv=0 dx=0 dy=0 dh=0 dv=0
PairPos2: "'kern' Horizontal Kerning lookup 15-2" uni0623 dx=-143 dy=0 dh=-143 dv=0 dx=0 dy=0 dh=0 dv=0
PairPos2: "'kern' Horizontal Kerning lookup 15-2" uni0622 dx=-143 dy=0 dh=-143 dv=0 dx=0 dy=0 dh=0 dv=0
PairPos2: "'kern' Horizontal Kerning lookup 15-2" uni0621 dx=-178 dy=0 dh=-178 dv=0 dx=0 dy=0 dh=0 dv=0
PairPos2: "'kern' Horizontal Kerning lookup 15-2" uniFB94 dx=-226 dy=0 dh=-226 dv=0 dx=0 dy=0 dh=0 dv=0
PairPos2: "'kern' Horizontal Kerning lookup 15-2" uniFB92 dx=-226 dy=0 dh=-226 dv=0 dx=0 dy=0 dh=0 dv=0
PairPos2: "'kern' Horizontal Kerning lookup 15-2" uni06AF dx=-226 dy=0 dh=-226 dv=0 dx=0 dy=0 dh=0 dv=0
PairPos2: "'kern' Horizontal Kerning lookup 15-2" afii57506 dx=-178 dy=0 dh=-178 dv=0 dx=0 dy=0 dh=0 dv=0
PairPos2: "'kern' Horizontal Kerning lookup 15-2" afii57440 dx=-178 dy=0 dh=-178 dv=0 dx=0 dy=0 dh=0 dv=0
PairPos2: "'kern' Horizontal Kerning lookup 15-2" uniFE8B dx=-178 dy=0 dh=-178 dv=0 dx=0 dy=0 dh=0 dv=0
Substitution2: "'fina' Terminal Forms in Arabic lookup 9 subtable" uniFEAE
EndChar

StartChar: uni0633
Encoding: 1587 1587 27
GlifName: uni0633
Width: 2506
VWidth: 2952
GlyphClass: 2
Flags: W
AnchorPoint: "Anchor-10" 1794.53 1377.1 basechar 0
AnchorPoint: "Anchor-7" 595.902 -800.086 basechar 0
LayerCount: 2
Fore
SplineSet
1552.81059396 29.9189499982 m 0,0,1
 1448.85901583 29.9189499982 1448.85901583 29.9189499982 1388.98786705 79.2104062988 c 2,2,-1
 1340.34975395 119.253790721 l 1,3,-1
 1339.92061785 56.254151641 l 2,4,5
 1339.04576852 -72.178743874 1339.04576852 -72.178743874 1276.77011516 -204.113939686 c 0,6,7
 1139.04515601 -493.988428593 1139.04515601 -493.988428593 707.321312762 -493.72461248 c 0,8,9
 633.925774906 -493.75800299 633.925774906 -493.75800299 570.317741041 -485.61064589 c 0,10,11
 506.709707175 -477.463288791 506.709707175 -477.463288791 452.443244373 -460.987724809 c 0,12,13
 398.176781571 -444.512160827 398.176781571 -444.512160827 353.397338025 -419.775606649 c 0,14,15
 308.61789448 -395.03905247 308.61789448 -395.03905247 272.958974151 -361.748032755 c 0,16,17
 237.300053822 -328.457013039 237.300053822 -328.457013039 210.822372224 -286.834494945 c 0,18,19
 184.344690625 -245.211976851 184.344690625 -245.211976851 166.766484396 -194.808734565 c 0,20,21
 149.188278167 -144.40549228 149.188278167 -144.40549228 140.485530141 -85.6002434326 c 0,22,23
 131.782782116 -26.7949945853 131.782782116 -26.7949945853 131.753165821 41.0075027023 c 0,24,25
 131.978876947 228.441068178 131.978876947 228.441068178 219.629131675 451.117359013 c 1,26,-1
 326.953677325 407.969823238 l 1,27,28
 252.009161294 207.223822146 252.009161294 207.223822146 252.268671801 42.8808143135 c 0,29,30
 252.126153107 -161.806618552 252.126153107 -161.806618552 370.384713983 -267.451925044 c 0,31,32
 488.643274859 -373.097231536 488.643274859 -373.097231536 714.374789699 -373.203454253 c 0,33,34
 961.647213629 -373.097459157 961.647213629 -373.097459157 1090.69264216 -252.475440951 c 0,35,36
 1219.73807069 -131.853422746 1219.73807069 -131.853422746 1220.55484497 101.861108175 c 0,37,38
 1220.9788821 277.230008688 1220.9788821 277.230008688 1141.69527933 454.40181101 c 1,39,-1
 1254.00057115 493.638942835 l 1,40,-1
 1304.4335405 337.837173369 l 2,41,42
 1323.18701297 279.370465095 1323.18701297 279.370465095 1358.13657448 239.150525462 c 0,43,44
 1393.086136 198.93058583 1393.086136 198.93058583 1442.62647296 178.462814807 c 0,45,46
 1492.16680992 157.995043784 1492.16680992 157.995043784 1554.50218158 157.992187524 c 0,47,48
 1662.16558036 157.996512072 1662.16558036 157.996512072 1720.42790796 215.326321334 c 0,49,50
 1778.69023557 272.656130597 1778.69023557 272.656130597 1778.30156097 378.808871136 c 0,51,52
 1778.14642387 421.634240553 1778.14642387 421.634240553 1777.37395791 450.540359098 c 0,53,54
 1776.60149194 479.446477644 1776.60149194 479.446477644 1775.09980379 496.329743013 c 2,55,-1
 1772.28357714 527.992176859 l 1,56,-1
 1876.7969099 540.258377445 l 1,57,-1
 1890.68176594 340.539331414 l 2,58,59
 1896.52747848 253.548972581 1896.52747848 253.548972581 1945.1967691 205.87218795 c 0,60,61
 1993.86605973 158.195403318 1993.86605973 158.195403318 2078.0458799 158.457241387 c 0,62,63
 2165.19563959 158.783434041 2165.19563959 158.783434041 2208.96387677 222.717020116 c 0,64,65
 2252.73211395 286.650606191 2252.73211395 286.650606191 2252.42259719 399.440923093 c 0,66,67
 2252.02610321 495.723031849 2252.02610321 495.723031849 2215.45230803 632.900415138 c 1,68,-1
 2333.14270852 663.670066146 l 1,69,70
 2359.48935588 575.481867353 2359.48935588 575.481867353 2369.13302387 511.900547527 c 0,71,72
 2378.77669186 448.319227702 2378.77669186 448.319227702 2372.81392891 410.587225701 c 0,73,74
 2372.11574439 406.045288704 2372.11574439 406.045288704 2372.40065474 396.241432423 c 0,75,76
 2370.4932945 186.112099323 2370.4932945 186.112099323 2260.98462119 89.7036603292 c 0,77,78
 2227.584385 60.542817354 2227.584385 60.542817354 2182.99611485 45.7477709349 c 0,79,80
 2138.4078447 30.9527245158 2138.4078447 30.9527245158 2081.17634943 30.9121059953 c 0,81,82
 1995.66462041 30.9526957215 1995.66462041 30.9526957215 1943.1284144 61.1099951767 c 0,83,84
 1890.5922084 91.2672946319 1890.5922084 91.2672946319 1864.8104511 152.589086914 c 2,85,-1
 1844.03461846 202.004310199 l 1,86,-1
 1812.78161761 158.45262307 l 2,87,88
 1720.54493842 29.9189499982 1720.54493842 29.9189499982 1552.81059396 29.9189499982 c 0,0,1
1709.81738281 584.387695312 m 1,89,-1
 1769.81738281 584.387695312 l 1,90,-1
 1769.81738281 524.387695312 l 1,91,-1
 1709.81738281 524.387695312 l 1,92,-1
 1709.81738281 584.387695312 l 1,89,-1
EndSplineSet
Substitution2: "'fina' Terminal Forms in Arabic lookup 9 subtable" uniFEB2
Substitution2: "'medi' Medial Forms in Arabic lookup 11 subtable" uniFEB4
Substitution2: "'init' Initial Forms in Arabic lookup 13 subtable" uniFEB3
EndChar

StartChar: uni0635
Encoding: 1589 1589 29
GlifName: uni0635
Width: 2655
VWidth: 2952
GlyphClass: 2
Flags: W
AnchorPoint: "Anchor-7" 595.902 -800.086 basechar 0
AnchorPoint: "Anchor-10" 2064.53 1372.1 basechar 0
LayerCount: 2
Fore
SplineSet
1312.44162962 311.81199252 m 2,0,1
 1349.99444672 195.089486388 1349.99444672 195.089486388 1430.89253899 187.247390691 c 2,2,-1
 1449.86307422 185.408425785 l 1,3,-1
 1459.58802368 201.800141879 l 2,4,5
 1815.06792947 800.972992305 1815.06792947 800.972992305 2161.28643762 800.425843712 c 0,6,7
 2354.33424147 800.031905481 2354.33424147 800.031905481 2455.68594655 654.857773336 c 0,8,9
 2514.04476632 571.480111022 2514.04476632 571.480111022 2514.5649615 461.638826411 c 0,10,11
 2514.97246534 391.642276748 2514.97246534 391.642276748 2495.42600413 331.168594457 c 0,12,13
 2399.09823045 30 2399.09823045 30 1773.15136719 30 c 2,14,-1
 1722.34082031 30 l 2,15,16
 1663.80913407 30 1663.80913407 30 1612.63200799 33.5081180944 c 128,-1,17
 1561.4548819 37.0162361888 1561.4548819 37.0162361888 1519.19598728 43.8126881134 c 128,-1,18
 1476.93709267 50.609140038 1476.93709267 50.609140038 1442.94298127 60.3983650653 c 128,-1,19
 1408.94886987 70.1875900926 1408.94886987 70.1875900926 1383.24302535 82.9290701883 c 2,20,-1
 1340.24748717 104.240441366 l 1,21,-1
 1339.92061785 56.254151641 l 2,22,23
 1339.04576852 -72.178743874 1339.04576852 -72.178743874 1276.77011516 -204.113939686 c 0,24,25
 1139.04515601 -493.988428593 1139.04515601 -493.988428593 707.321312762 -493.72461248 c 0,26,27
 633.925774906 -493.75800299 633.925774906 -493.75800299 570.31774104 -485.61064589 c 128,-1,28
 506.709707175 -477.463288791 506.709707175 -477.463288791 452.443244373 -460.987724809 c 128,-1,29
 398.176781571 -444.512160827 398.176781571 -444.512160827 353.397338025 -419.775606649 c 128,-1,30
 308.61789448 -395.03905247 308.61789448 -395.03905247 272.958974151 -361.748032755 c 128,-1,31
 237.300053822 -328.457013039 237.300053822 -328.457013039 210.822372223 -286.834494945 c 128,-1,32
 184.344690625 -245.211976851 184.344690625 -245.211976851 166.766484396 -194.808734565 c 128,-1,33
 149.188278167 -144.40549228 149.188278167 -144.40549228 140.485530141 -85.6002434326 c 128,-1,34
 131.782782116 -26.7949945853 131.782782116 -26.7949945853 131.753165821 41.0075027023 c 0,35,36
 131.978876947 228.441068178 131.978876947 228.441068178 219.629131675 451.117359013 c 1,37,-1
 326.953677325 407.969823238 l 1,38,39
 252.009161294 207.223822146 252.009161294 207.223822146 252.268671801 42.8808143135 c 0,40,41
 252.126153107 -161.806618552 252.126153107 -161.806618552 370.384713983 -267.451925044 c 128,-1,42
 488.643274859 -373.097231536 488.643274859 -373.097231536 714.374789699 -373.203454253 c 0,43,44
 961.647213629 -373.097459157 961.647213629 -373.097459157 1090.69264216 -252.475440951 c 128,-1,45
 1219.73807069 -131.853422746 1219.73807069 -131.853422746 1220.55484497 101.861108175 c 0,46,47
 1220.9788821 277.230008688 1220.9788821 277.230008688 1141.69527933 454.40181101 c 1,48,-1
 1253.94875919 493.620840815 l 1,49,-1
 1312.44162962 311.81199252 l 2,0,1
1624.65625 158.416992188 m 1,50,-1
 1778.70968032 158.417023363 l 2,51,52
 2078.09531817 157.985414939 2078.09531817 157.985414939 2228.80341876 224.589182971 c 0,53,54
 2308.97666362 260.187977985 2308.97666362 260.187977985 2351.21439374 317.777254691 c 128,-1,55
 2393.45212386 375.366531397 2393.45212386 375.366531397 2392.66734968 451.4529656 c 0,56,57
 2391.89632286 526.206548734 2391.89632286 526.206548734 2351.82850751 579.169026338 c 0,58,59
 2283.87466593 667.920653785 2283.87466593 667.920653785 2162.164508 668.573425106 c 0,60,61
 2069.70517762 668.363199917 2069.70517762 668.363199917 1975.56923276 614.572775314 c 128,-1,62
 1881.43328789 560.782350711 1881.43328789 560.782350711 1788.76653926 458.874360065 c 128,-1,63
 1696.09979062 356.96636942 1696.09979062 356.96636942 1599.32716921 204.492988771 c 2,64,-1
 1570.08340905 158.416992188 l 1,65,-1
 1624.65625 158.416992188 l 1,50,-1
EndSplineSet
Substitution2: "'fina' Terminal Forms in Arabic lookup 9 subtable" uniFEBA
Substitution2: "'medi' Medial Forms in Arabic lookup 11 subtable" uniFEBC
Substitution2: "'init' Initial Forms in Arabic lookup 13 subtable" uniFEBB
EndChar

StartChar: uni0637
Encoding: 1591 1591 31
GlifName: uni0637
Width: 1524
VWidth: 2952
GlyphClass: 2
Flags: W
AnchorPoint: "Anchor-10" 475.36 1632.58 basechar 0
AnchorPoint: "Anchor-7" 641.602 -236.453 basechar 0
LayerCount: 2
Fore
SplineSet
1037.84205739 790.423777494 m 0,0,1
 1234.21617869 790.031472177 1234.21617869 790.031472177 1334.79766684 644.037513423 c 0,2,3
 1389.97362366 563.726011243 1389.97362366 563.726011243 1389.67379786 457.823772126 c 0,4,5
 1389.82536525 245.094407464 1389.82536525 245.094407464 1211.02508151 137.547203732 c 0,6,7
 1032.22479777 30 1032.22479777 30 658.228515625 30 c 2,8,-1
 131.302734375 30 l 1,9,-1
 131.302734375 158.242795644 l 1,10,-1
 321.843130615 158.376957918 l 1,11,-1
 323.570669678 158.377934481 l 1,12,-1
 340.849775742 158.387702212 l 1,13,-1
 349.51185498 173.338822072 l 1,14,-1
 350.104463487 174.361689743 l 2,15,16
 355.460996049 182.844164927 355.460996049 182.844164927 420.517773029 285.04776825 c 2,17,-1
 425.6328125 293.08344861 l 1,18,-1
 425.6328125 302.692382812 l 1,19,-1
 425.6328125 1438.87402344 l 1,20,-1
 538.946289062 1438.87402344 l 1,21,-1
 538.946289062 548.209960938 l 1,22,-1
 538.946289062 462.876882391 l 1,23,-1
 592.346221392 529.436491175 l 2,24,25
 801.412531471 790.024308453 801.412531471 790.024308453 1037.84205739 790.423777494 c 0,0,1
663.833007812 158.534179688 m 2,26,27
 969.094288873 158.534179688 969.094288873 158.534179688 1102.8941812 216.076665904 c 0,28,29
 1182.91738892 251.124385213 1182.91738892 251.124385213 1225.40251842 307.775621841 c 0,30,31
 1267.88764791 364.42685847 1267.88764791 364.42685847 1267.73837367 439.357516181 c 0,32,33
 1268.04122945 537.285031458 1268.04122945 537.285031458 1199.16352942 599.543138702 c 0,34,35
 1134.66263742 659.05851435 1134.66263742 659.05851435 1037.3473729 658.573370147 c 0,36,37
 771.48457139 659.028304497 771.48457139 659.028304497 484.3926275 204.55624163 c 2,38,-1
 455.320294338 158.534179688 l 1,39,-1
 509.755859375 158.534179688 l 1,40,-1
 663.833007812 158.534179688 l 2,26,27
EndSplineSet
Substitution2: "'fina' Terminal Forms in Arabic lookup 9 subtable" uniFEC2
Substitution2: "'medi' Medial Forms in Arabic lookup 11 subtable" uniFEC4
Substitution2: "'init' Initial Forms in Arabic lookup 13 subtable" uniFEC3
EndChar

StartChar: uni0639
Encoding: 1593 1593 33
GlifName: uni0639
Width: 1350
VWidth: 2952
GlyphClass: 2
Flags: W
AnchorPoint: "Anchor-10" 743.478 1366.07 basechar 0
AnchorPoint: "Anchor-7" 536.833 -922.619 basechar 0
LayerCount: 2
Fore
SplineSet
660.104846811 433.655660393 m 2,0,1
 836.616151689 464.009537331 836.616151689 464.009537331 981.349251137 464.547619308 c 0,2,3
 1057.28530835 464.914145679 1057.28530835 464.914145679 1130.09386061 458.174498469 c 1,4,-1
 1115.09804908 340.663522082 l 1,5,6
 1049.92643821 342.871404125 1049.92643821 342.871404125 1024.21977319 342.16200637 c 0,7,8
 642.360937599 331.891458634 642.360937599 331.891458634 443.736240026 208.222380199 c 0,9,10
 245.111542453 84.5533017642 245.111542453 84.5533017642 245.240240592 -154.835177927 c 0,11,12
 245.110853008 -355.807232016 245.110853008 -355.807232016 388.767263093 -456.968305777 c 0,13,14
 532.423673178 -558.129379539 532.423673178 -558.129379539 805.338335794 -558.266582692 c 0,15,16
 916.945201622 -558.141403258 916.945201622 -558.141403258 1021.16684091 -537.419602066 c 0,17,18
 1125.3884802 -516.697800874 1125.3884802 -516.697800874 1221.34740017 -475.613549761 c 1,19,-1
 1245.31963089 -594.496337713 l 1,20,21
 1151.82622021 -636.800066022 1151.82622021 -636.800066022 1039.24144109 -657.828588631 c 0,22,23
 926.65666196 -678.857111241 926.65666196 -678.857111241 793.041110199 -678.73340069 c 0,24,25
 457.569106678 -678.86338689 457.569106678 -678.86338689 296.278159052 -550.750079344 c 0,26,27
 134.987211425 -422.636771798 134.987211425 -422.636771798 134.97558588 -162.313380908 c 0,28,29
 134.98728049 26.5662658732 134.98728049 26.5662658732 224.033388136 158.672183344 c 0,30,31
 313.079495782 290.778100815 313.079495782 290.778100815 494.897438266 370.776811219 c 2,32,-1
 532.069103381 387.132101748 l 1,33,-1
 505.511246061 417.855194533 l 2,34,35
 391.988731518 549.182157605 391.988731518 549.182157605 391.843672924 695.002308594 c 0,36,37
 391.987128942 758.287930941 391.987128942 758.287930941 417.235236579 822.582719285 c 0,38,39
 429.415615691 852.909122398 429.415615691 852.909122398 447.96128722 881.323621176 c 0,40,41
 466.506958749 909.738119953 466.506958749 909.738119953 491.505926777 936.166003116 c 0,42,43
 583.929054828 1034 583.929054828 1034 754 1034 c 0,44,45
 888.521158868 1034 888.521158868 1034 1047.86169865 930.832700162 c 1,46,-1
 1004.55380183 834.779785178 l 1,47,48
 935.627880919 872.821539957 935.627880919 872.821539957 876.04669442 891.861474221 c 0,49,50
 816.465507921 910.901408485 816.465507921 910.901408485 763.938141712 910.802777464 c 0,51,52
 618.04226519 911.025978112 618.04226519 911.025978112 550.244070055 798.1887626 c 0,53,54
 533.442800889 770.858009887 533.442800889 770.858009887 524.765002529 741.482485596 c 0,55,56
 516.08720417 712.106961304 516.08720417 712.106961304 516.206756628 682.174860472 c 0,57,58
 515.967931011 630.072573694 515.967931011 630.072573694 542.671288172 575.903792435 c 0,59,60
 566.478663258 527.941187069 566.478663258 527.941187069 631.367344138 444.76828303 c 2,61,-1
 642.410888198 430.612907734 l 1,62,-1
 660.104846811 433.655660393 l 2,0,1
EndSplineSet
Substitution2: "'fina' Terminal Forms in Arabic lookup 9 subtable" uniFECA
Substitution2: "'medi' Medial Forms in Arabic lookup 11 subtable" uniFECC
Substitution2: "'init' Initial Forms in Arabic lookup 13 subtable" uniFECB
EndChar

StartChar: afii57440
Encoding: 1600 1600 35
GlifName: afii57440
Width: 286
VWidth: 2952
GlyphClass: 2
Flags: W
AnchorPoint: "Anchor-10" 143.774 1376.11 basechar 0
AnchorPoint: "Anchor-7" 147.7 -234.739 basechar 0
LayerCount: 2
Fore
SplineSet
-6.9384765625 30 m 2,0,1
 -25.217555692 30 -25.217555692 30 -35.0841874028 34.6597706424 c 128,-1,2
 -44.9508191136 39.3195412849 -44.9508191136 39.3195412849 -49.864569713 51.9473147259 c 128,-1,3
 -54.7783203125 64.575088167 -54.7783203125 64.575088167 -54.7783203125 88.3134765625 c 2,4,-1
 -54.7784331974 107.274681558 l 2,5,6
 -54.8610591977 137.393860605 -54.8610591977 137.393860605 -44.9171565485 147.696442021 c 128,-1,7
 -34.9732538994 157.999023438 -34.9732538994 157.999023438 -6.9384765625 157.999023438 c 2,8,-1
 281.209681269 157.999023438 l 1,9,10
 284.771484375 140.70208759 284.771484375 140.70208759 284.771484375 107.174804688 c 2,11,-1
 284.771484375 88.2083100776 l 2,12,13
 285.077879234 48.8889459411 285.077879234 48.8889459411 281.118821477 30 c 1,14,-1
 -6.9384765625 30 l 2,0,1
EndSplineSet
EndChar

StartChar: uni0643
Encoding: 1603 1603 38
GlifName: uni0643
Width: 1981
VWidth: 2952
GlyphClass: 2
Flags: W
AnchorPoint: "Anchor-7" 750.268 -236.468 basechar 0
AnchorPoint: "Anchor-10" 943.11 1606.05 basechar 0
LayerCount: 2
Fore
SplineSet
950.339435548 158.215890002 m 0,0,1
 981.769529547 158.142633333 981.769529547 158.142633333 1015.85367775 159.314470365 c 0,2,3
 1049.93782595 160.486307398 1049.93782595 160.486307398 1086.54928846 162.890891893 c 0,4,5
 1123.16075098 165.295476389 1123.16075098 165.295476389 1162.48343479 168.937233309 c 0,6,7
 1413.88767689 192.204695916 1413.88767689 192.204695916 1544.36453926 293.249214662 c 0,8,9
 1674.84140163 394.293733407 1674.84140163 394.293733407 1671.82910156 572.264091647 c 2,10,-1
 1671.82910156 1434.56640625 l 1,11,-1
 1789.70996094 1434.56640625 l 1,12,-1
 1789.7099786 574.306319857 l 2,13,14
 1789.98470395 321.082613245 1789.98470395 321.082613245 1633.27909899 191.1348994 c 0,15,16
 1440.12934155 30 1440.12934155 30 952.133789062 30 c 0,17,18
 470.814844872 30 470.814844872 30 293.365169957 160.026771336 c 0,19,20
 139.948337481 271.335739262 139.948337481 271.335739262 139.16111095 504.566491245 c 0,21,22
 139.028664115 614.275014723 139.028664115 614.275014723 171.95579723 703.3003556 c 1,23,-1
 280.049467834 657.499501171 l 1,24,25
 270.315781829 624.439503038 270.315781829 624.439503038 266.068876752 589.891994814 c 0,26,27
 261.821971676 555.344486591 261.821971676 555.344486591 262.455433315 516.494727015 c 0,28,29
 264.156427538 336.285986735 264.156427538 336.285986735 398.779754395 252.039865436 c 0,30,31
 475.987850713 204.039918479 475.987850713 204.039918479 612.569583782 181.328420144 c 0,32,33
 749.151316852 158.616921809 749.151316852 158.616921809 950.339435548 158.215890002 c 0,0,1
756.16015625 738.855985287 m 1,34,35
 794.915906245 735.249753866 794.915906245 735.249753866 826.871283108 733.416295902 c 0,36,37
 858.826659972 731.582837939 858.826659972 731.582837939 888.343934032 731.267003485 c 0,38,39
 1000.86650994 730.985214495 1000.86650994 730.985214495 1059.96067354 755.17745394 c 0,40,41
 1093.17938259 768.898304173 1093.17938259 768.898304173 1112.69871883 793.636056734 c 0,42,43
 1132.21805507 818.373809296 1132.21805507 818.373809296 1132.7456689 851.314844231 c 0,44,45
 1133.07812046 908.303972929 1133.07812046 908.303972929 1091.57057516 943.474388789 c 0,46,47
 1078.25672557 954.93464378 1078.25672557 954.93464378 1061.4849802 963.328682656 c 0,48,49
 1044.71323484 971.722721532 1044.71323484 971.722721532 1026.21179849 976.883687627 c 0,50,51
 1007.71036214 982.044653722 1007.71036214 982.044653722 985.408924872 985.138728288 c 0,52,53
 886.926634865 1000.11157979 886.926634865 1000.11157979 843.06736505 1044.5918887 c 0,54,55
 799.208095234 1089.0721976 799.208095234 1089.0721976 800.921629144 1167.75597188 c 0,56,57
 805.118063229 1338.70467871 805.118063229 1338.70467871 1133.61035156 1370.88202835 c 1,58,-1
 1133.61035156 1302.08747533 l 1,59,60
 1073.73467252 1295.36480036 1073.73467252 1295.36480036 1029.07049668 1285.19312589 c 0,61,62
 984.406320843 1275.02145141 984.406320843 1275.02145141 948.064217167 1258.71768753 c 0,63,64
 911.722113492 1242.41392365 911.722113492 1242.41392365 892.905735278 1217.72371109 c 0,65,66
 874.089357064 1193.03349853 874.089357064 1193.03349853 874.139605045 1160.45031811 c 0,67,68
 874.072236385 1124.53669801 874.072236385 1124.53669801 896.285163861 1098.15096564 c 0,69,70
 918.498091336 1071.76523326 918.498091336 1071.76523326 953.806284499 1057.20036256 c 0,71,72
 989.114477662 1042.63549185 989.114477662 1042.63549185 1038.34655863 1035.10687704 c 0,73,74
 1126.01003704 1021.59675732 1126.01003704 1021.59675732 1165.82766084 978.422873949 c 0,75,76
 1205.64528465 935.248990577 1205.64528465 935.248990577 1205.36439346 856.217169915 c 0,77,78
 1205.05348051 752.829027146 1205.05348051 752.829027146 1102.00364564 696.559627328 c 0,79,80
 1033.34099386 659.005001289 1033.34099386 659.005001289 905.966674825 659.088848679 c 0,81,82
 838.693987941 659.014119497 838.693987941 659.014119497 756.16015625 670.312663536 c 1,83,-1
 756.16015625 738.855985287 l 1,34,35
EndSplineSet
Substitution2: "'fina' Terminal Forms in Arabic lookup 9 subtable" uniFEDA
Substitution2: "'medi' Medial Forms in Arabic lookup 11 subtable" uniFEDC
Substitution2: "'init' Initial Forms in Arabic lookup 13 subtable" uniFEDB
EndChar

StartChar: uni0644
Encoding: 1604 1604 39
GlifName: uni0644
Width: 1441
VWidth: 2952
GlyphClass: 2
Flags: W
AnchorPoint: "Anchor-7" 595.902 -800.086 basechar 0
AnchorPoint: "Anchor-10" 593.908 1221.66 basechar 0
LayerCount: 2
Fore
SplineSet
1142.60444261 99.7469175985 m 2,0,-1
 1145.84444763 1437.99316406 l 1,1,-1
 1257.86776268 1437.99316406 l 1,2,-1
 1257.18557202 299.360127687 l 2,3,4
 1257.09350151 228.242444503 1257.09350151 228.242444503 1254.77882786 161.021875331 c 0,5,6
 1252.4641542 93.8013061599 1252.4641542 93.8013061599 1247.94051463 30.6989505265 c 0,7,8
 1234.48018617 -146.961118622 1234.48018617 -146.961118622 1168.13959356 -263.101836691 c 0,9,10
 1101.79900095 -379.242554759 1101.79900095 -379.242554759 980.812699421 -436.53119347 c 0,11,12
 859.826397895 -493.81983218 859.826397895 -493.81983218 681.415958448 -493.734378141 c 0,13,14
 278.990286429 -493.918542255 278.990286429 -493.918542255 173.088150972 -216.823099507 c 0,15,16
 132.436002603 -109.281041601 132.436002603 -109.281041601 132.740068278 40.6541518737 c 0,17,18
 132.992163294 138.907188093 132.992163294 138.907188093 152.836528589 235.330765886 c 0,19,20
 170.787974192 321.658398385 170.787974192 321.658398385 203.187553279 407.361370427 c 1,21,-1
 310.428399169 364.247231826 l 1,22,23
 252.012782432 202.060331404 252.012782432 202.060331404 252.246448548 38.2059859688 c 0,24,25
 252.116069794 -163.458407235 252.116069794 -163.458407235 361.929387557 -268.283011729 c 0,26,27
 471.74270532 -373.107616223 471.74270532 -373.107616223 681.800980413 -373.226769356 c 0,28,29
 907.771415465 -373.107656513 907.771415465 -373.107656513 1025.02978039 -252.527702124 c 0,30,31
 1142.28814532 -131.947747735 1142.28814532 -131.947747735 1142.60444261 99.7469175985 c 2,0,-1
EndSplineSet
Substitution2: "'fina' Terminal Forms in Arabic lookup 9 subtable" uniFEDE
Substitution2: "'medi' Medial Forms in Arabic lookup 11 subtable" uniFEE0
Substitution2: "'init' Initial Forms in Arabic lookup 13 subtable" uniFEDF
EndChar

StartChar: uni0645
Encoding: 1605 1605 40
GlifName: uni0645
Width: 1242
VWidth: 2622
GlyphClass: 2
Flags: W
AnchorPoint: "Anchor-7" 724.983 -346.909 basechar 0
AnchorPoint: "Anchor-10" 697.239 1374.48 basechar 0
LayerCount: 2
Fore
SplineSet
841.884617091 132 m 0,0,1
 918.180014065 131.413112331 918.180014065 131.413112331 960.166574225 176.11405205 c 128,-1,2
 1002.15313438 220.814991768 1002.15313438 220.814991768 1002.35834429 301.022347791 c 0,3,4
 1000.81996591 365.018888188 1000.81996591 365.018888188 978.343276915 422.000339374 c 0,5,6
 953.491910371 483.225861069 953.491910371 483.225861069 905.786358651 516.040828615 c 128,-1,7
 858.080806932 548.855796162 858.080806932 548.855796162 792.240505301 550.001645687 c 0,8,9
 634.95547084 552.3124154 634.95547084 552.3124154 553.10655433 322.673652756 c 2,10,-1
 546.246548201 303.426931034 l 1,11,-1
 561.643779362 289.994833144 l 2,12,13
 597.287566365 258.900227161 597.287566365 258.900227161 628.288717593 234.644499378 c 128,-1,14
 659.28986882 210.388771594 659.28986882 210.388771594 688.986657502 190.784945965 c 128,-1,15
 718.683446183 171.181120336 718.683446183 171.181120336 744.77190161 158.402907445 c 128,-1,16
 770.860357037 145.624694554 770.860357037 145.624694554 795.393120633 138.812347277 c 128,-1,17
 819.925884229 132 819.925884229 132 841.884617091 132 c 0,0,1
1113.39248098 313.02079983 m 0,18,19
 1113.02649826 176.896165171 1113.02649826 176.896165171 1050.24557399 91.7069004146 c 0,20,21
 1019.56320193 49.4101565921 1019.56320193 49.4101565921 970.934681908 28.1734750968 c 128,-1,22
 922.306161885 6.93679360148 922.306161885 6.93679360148 851.968440995 6.86280061188 c 0,23,24
 758.009056839 6.76395840241 758.009056839 6.76395840241 622.534948662 90.1986832561 c 0,25,26
 598.104966304 105.195883784 598.104966304 105.195883784 571.916873986 119.829375673 c 128,-1,27
 545.728781669 134.462867562 545.728781669 134.462867562 517.871005861 148.689308098 c 0,28,29
 504.455169157 155.564801047 504.455169157 155.564801047 489.63886333 159.993233002 c 128,-1,30
 474.822557503 164.421664957 474.822557503 164.421664957 459.396031744 166.320084781 c 128,-1,31
 443.969505985 168.218504605 443.969505985 168.218504605 427.753964364 167.741915598 c 0,32,33
 393.783087357 167.34458371 393.783087357 167.34458371 366.744893471 150.320093336 c 128,-1,34
 339.706699584 133.295602962 339.706699584 133.295602962 320.219599929 100.058576153 c 128,-1,35
 300.732500274 66.8215493434 300.732500274 66.8215493434 286.954058657 21.3491660458 c 128,-1,36
 273.175617041 -24.1232172517 273.175617041 -24.1232172517 265.022631035 -85.3504395756 c 128,-1,37
 256.869645029 -146.5776619 256.869645029 -146.5776619 253.248066216 -215.386165075 c 128,-1,38
 249.626487402 -284.19466825 249.626487402 -284.19466825 249.751499815 -368.038039403 c 0,39,40
 249.976376819 -545.388473208 249.976376819 -545.388473208 261.290942156 -694.813476562 c 1,41,-1
 138.427367982 -694.813476562 l 1,42,43
 128.084905131 -521.409072313 128.084905131 -521.409072313 129.060592549 -364.236331264 c 0,44,45
 131.943599369 1.72253249313 131.943599369 1.72253249313 204.729885502 145.379676177 c 0,46,47
 277.751528322 288.684650212 277.751528322 288.684650212 397.224670191 307.056536281 c 2,48,-1
 414.210986869 309.668593433 l 1,49,-1
 420.549841018 325.64284537 l 2,50,51
 560.415946114 678.112920835 560.415946114 678.112920835 789.029453051 679.382054115 c 0,52,53
 864.077859336 679.668275782 864.077859336 679.668275782 922.01702652 653.541460623 c 128,-1,54
 979.956193704 627.414645465 979.956193704 627.414645465 1023.80779889 573.97050165 c 0,55,56
 1113.02584019 465.236013814 1113.02584019 465.236013814 1113.39248098 313.02079983 c 0,18,19
EndSplineSet
Substitution2: "'init' Initial Forms in Arabic lookup 13 subtable" uniFEE3
Substitution2: "'medi' Medial Forms in Arabic lookup 11 subtable" uniFEE4
Substitution2: "'fina' Terminal Forms in Arabic lookup 9 subtable" uniFEE2
EndChar

StartChar: uni0647
Encoding: 1607 1607 42
GlifName: uni0647
Width: 942
VWidth: 2952
GlyphClass: 2
Flags: W
AnchorPoint: "Anchor-10" 430.775 1379.01 basechar 0
AnchorPoint: "Anchor-7" 450.63 -240.576 basechar 0
LayerCount: 2
Fore
SplineSet
442.109813396 666.742336449 m 2,0,1
 376.647389389 609.451267667 376.647389389 609.451267667 332.933959301 557.01553396 c 128,-1,2
 289.220529212 504.579800254 289.220529212 504.579800254 265.574899679 452.367762449 c 128,-1,3
 241.929270145 400.155724645 241.929270145 400.155724645 241.884560946 350.968080382 c 0,4,5
 241.951429602 256.561840993 241.951429602 256.561840993 303.501685367 207.279133011 c 128,-1,6
 365.051941132 157.996425029 365.051941132 157.996425029 475.346848349 157.992187522 c 0,7,8
 586.321484489 157.996423882 586.321484489 157.996423882 648.24999394 207.538445059 c 128,-1,9
 710.17850339 257.080466236 710.17850339 257.080466236 710.424057754 352.162818563 c 0,10,11
 710.171813381 422.288586998 710.171813381 422.288586998 652.272833651 499.522973285 c 128,-1,12
 594.37385392 576.757359572 594.37385392 576.757359572 480.585797707 667.610832145 c 2,13,-1
 460.984737113 683.261195464 l 1,14,-1
 442.109813396 666.742336449 l 2,0,1
378.743512494 929.003804897 m 1,15,16
 820.983309426 600.763367293 820.983309426 600.763367293 820.791846203 346.343969875 c 0,17,18
 820.98330755 174.008322552 820.98330755 174.008322552 670.381143825 79.9531665047 c 0,19,20
 598.317001925 34.9471457131 598.317001925 34.9471457131 475.934413916 34.1941877804 c 0,21,22
 362.062980538 34.0113776281 362.062980538 34.0113776281 282.863429495 73.6342070241 c 0,23,24
 131.031817187 149.527567594 131.031817187 149.527567594 131.368388861 345.789804739 c 0,25,26
 131.198041757 441.156080613 131.198041757 441.156080613 187.490482995 545.116667412 c 128,-1,27
 243.782924233 649.077254211 243.782924233 649.077254211 358.828811748 761.023547258 c 2,28,-1
 382.56099398 784.116331227 l 1,29,-1
 357.24462326 805.460522907 l 1,30,-1
 313.813739947 842.077031194 l 1,31,-1
 378.743512494 929.003804897 l 1,15,16
EndSplineSet
Substitution2: "'fina' Terminal Forms in Arabic lookup 9 subtable" uniFEEA
Substitution2: "'medi' Medial Forms in Arabic lookup 11 subtable" uniFEEC
Substitution2: "'init' Initial Forms in Arabic lookup 13 subtable" uniFEEB
EndChar

StartChar: uni0648
Encoding: 1608 1608 43
GlifName: uni0648
Width: 910
VWidth: 2144
GlyphClass: 2
Flags: W
AnchorPoint: "Anchor-7" 364.969 -769.998 basechar 0
AnchorPoint: "Anchor-10" 459.256 1370.2 basechar 0
LayerCount: 2
Fore
SplineSet
660.565412853 207.568255509 m 2,0,1
 637.095995388 564.979647419 637.095995388 564.979647419 437.37030618 565.12400306 c 0,2,3
 405.761653839 565.087160771 405.761653839 565.087160771 378.301087188 555.540863268 c 0,4,5
 350.840520536 545.994565764 350.840520536 545.994565764 328.878876959 527.859364708 c 0,6,7
 306.917233381 509.724163652 306.917233381 509.724163652 290.075681016 483.743155411 c 0,8,9
 273.234128651 457.76214717 273.234128651 457.76214717 262.021781206 424.580647773 c 0,10,11
 241.983617167 365.935911289 241.983617167 365.935911289 242.159120939 312.53108273 c 0,12,13
 242.061856818 230.919921803 242.061856818 230.919921803 302.635209423 190.275270453 c 0,14,15
 363.208562027 149.630619104 363.208562027 149.630619104 469.184106914 150.364162971 c 0,16,17
 512.886405483 150.699231571 512.886405483 150.699231571 555.531270668 157.356540047 c 0,18,19
 598.176135852 164.013848524 598.176135852 164.013848524 639.588316402 176.971324145 c 2,20,-1
 662.111793978 184.018705078 l 1,21,-1
 660.565412853 207.568255509 l 2,0,1
468.122381087 27.8115575141 m 0,22,23
 294.439764127 27.9011983572 294.439764127 27.9011983572 213.72120548 94.3585328711 c 0,24,25
 133.002646834 160.815867385 133.002646834 160.815867385 133.004882787 298.354729787 c 0,26,27
 133.002574365 355.392168819 133.002574365 355.392168819 145.165773494 409.345317212 c 0,28,29
 157.328972623 463.298465605 157.328972623 463.298465605 181.706818245 514.478992366 c 0,30,31
 211.1294258 575.776015297 211.1294258 575.776015297 250.242748306 615.59690357 c 0,32,33
 289.356070812 655.417791843 289.356070812 655.417791843 338.629810599 674.735675543 c 0,34,35
 387.903550386 694.053559243 387.903550386 694.053559243 449.094117524 694.077150586 c 0,36,37
 541.505428504 694.042184526 541.505428504 694.042184526 606.550505866 642.985659378 c 0,38,39
 671.595583228 591.929134231 671.595583228 591.929134231 712.996798104 484.150779285 c 0,40,41
 771.966832082 331.492921373 771.966832082 331.492921373 770.833685698 140.365737147 c 0,42,43
 769.931987806 6.23719935738 769.931987806 6.23719935738 730.791905242 -99.1424933374 c 0,44,45
 691.651822678 -204.522186032 691.651822678 -204.522186032 612.97111308 -282.870388131 c 0,46,47
 534.290403482 -361.21859023 534.290403482 -361.21859023 415.310891244 -411.984728348 c 0,48,49
 296.331379006 -462.750866465 296.331379006 -462.750866465 135.869690164 -486.706490326 c 1,50,-1
 107.858621789 -374.662216825 l 1,51,52
 585.952472404 -298.186341391 585.952472404 -298.186341391 659.459790165 6.059047352 c 2,53,-1
 669.672463538 48.3291080122 l 1,54,-1
 626.530593898 42.866891466 l 2,55,56
 509.042638997 27.9916749629 509.042638997 27.9916749629 468.122381087 27.8115575141 c 0,22,23
EndSplineSet
Substitution2: "'fina' Terminal Forms in Arabic lookup 9 subtable" uniFEEE
EndChar

StartChar: uni0649
Encoding: 1609 1609 44
GlifName: uni0649
Width: 1524
VWidth: 2952
GlyphClass: 2
Flags: MW
AnchorPoint: "Anchor-10" 717.6 1368.22 basechar 0
AnchorPoint: "Anchor-7" 595.902 -800.086 basechar 0
LayerCount: 2
Fore
SplineSet
1281.80705844 -50.8600558938 m 0,0,1
 1282 -8 1282 -8 1251.42644154 14.3304654783 c 0,2,3
 1221.28345603 36.7888081571 1221.28345603 36.7888081571 1173.70860996 37.014311404 c 2,4,-1
 1030.56835342 37.6927916363 l 2,5,6
 1024 38 1024 38 1006.07708698 38.5171888757 c 0,7,8
 923 44 923 44 888.761313054 78.4357941691 c 0,9,10
 855 113 855 113 859.203842309 184.458558429 c 0,11,12
 866 293 866 293 902.139551833 381.982704647 c 0,13,14
 938 471 938 471 1004.86947478 541.46402978 c 0,15,16
 1147 693 1147 693 1358.32826082 695.50590704 c 1,17,-1
 1358.11749296 562.691314752 l 1,18,19
 1124.03247722 558.968710907 1124.03247722 558.968710907 1028.5390625 366.55078125 c 4,20,21
 999 307 999 307 988.010599628 259.771202243 c 0,22,23
 984 241 984 241 983.279296875 220.193359375 c 0,24,25
 983 195 983 195 994 181 c 0,26,27
 1011.90793991 159.112517893 1011.90793991 159.112517893 1070.05328944 159.215854461 c 2,28,-1
 1181.19102951 159.413369701 l 2,29,30
 1304 160 1304 160 1348.9893941 114.97796872 c 0,31,32
 1393 72 1393 72 1392.34980356 -10.8267140451 c 0,33,34
 1392 -97 1392 -97 1365.04343811 -168.081516856 c 0,35,36
 1340 -233 1340 -233 1283.21395004 -296.320407812 c 0,37,38
 1270 -311 1270 -311 1254.92406293 -323.877394002 c 0,39,40
 1240 -337 1240 -337 1224.27420036 -349.242463517 c 0,41,42
 1208 -361 1208 -361 1191.19404283 -372.448492148 c 0,43,44
 1174 -383 1174 -383 1155.63370267 -393.499397617 c 0,45,46
 1137 -403 1137 -403 1117.52286037 -412.428055715 c 0,47,48
 954 -487 954 -487 755.995929445 -487.208985911 c 0,49,50
 544 -487 544 -487 405.320622639 -430.000462254 c 0,51,52
 267 -373 267 -373 199.925740856 -259.108595646 c 0,53,54
 133 -145 133 -145 132.761700324 27.9765155886 c 0,55,56
 133 228 133 228 258.301115427 518.644151974 c 1,57,-1
 365.220020877 475.659185107 l 1,58,59
 309 343 309 343 280.3455993 232.13229723 c 0,60,61
 252 122 252 122 252.268562842 31.2555178765 c 0,62,63
 252 -34 252 -34 267.093117113 -89.3080672866 c 0,64,65
 282 -144 282 -144 311.134742461 -188.015107361 c 0,66,67
 340 -232 340 -232 383.310028525 -264.673183774 c 0,68,69
 426 -298 426 -298 482.684848219 -319.561552478 c 0,70,71
 539 -341 539 -341 608.165838964 -352.456349931 c 0,72,73
 677 -364 677 -364 758.808921454 -363.605387119 c 0,74,75
 935 -364 935 -364 1081.62425859 -296.077734264 c 0,76,77
 1160 -260 1160 -260 1213.90554593 -203.954586608 c 0,78,79
 1281 -135 1281 -135 1281.80705844 -50.8600558938 c 0,0,1
EndSplineSet
Substitution2: "'fina' Terminal Forms in Arabic lookup 9 subtable" uniFEF0
Substitution2: "'medi' Medial Forms in Arabic lookup 11 subtable" uniFBE9
Substitution2: "'init' Initial Forms in Arabic lookup 13 subtable" uniFBE8
EndChar

StartChar: uni064B
Encoding: 1611 1611 46
GlifName: uni064B_
Width: -26
VWidth: 2316
GlyphClass: 4
Flags: W
AnchorPoint: "Anchor-10" 593.551 1113.65 mark 0
AnchorPoint: "Anchor-9" 593.551 1113.65 mark 0
AnchorPoint: "Anchor-1" 553.285 1666.25 basemark 0
AnchorPoint: "Anchor-1" 593.551 1113.65 mark 0
LayerCount: 2
Fore
SplineSet
341.700195312 1098.74338944 m 1,0,-1
 341.700195312 1169.90729042 l 1,1,-1
 767.099609375 1343.93527714 l 1,2,-1
 767.099609375 1272.77046393 l 1,3,-1
 341.700195312 1098.74338944 l 1,0,-1
341.700195312 1350.74338944 m 1,4,-1
 341.700195312 1421.90729042 l 1,5,-1
 767.099609375 1595.93527714 l 1,6,-1
 767.099609375 1524.77046393 l 1,7,-1
 341.700195312 1350.74338944 l 1,4,-1
EndSplineSet
EndChar

StartChar: uni064C
Encoding: 1612 1612 47
GlifName: uni064C_
Width: -26
VWidth: 2316
GlyphClass: 4
Flags: W
AnchorPoint: "Anchor-10" 680.906 1218.67 mark 0
AnchorPoint: "Anchor-9" 680.906 1218.67 mark 0
AnchorPoint: "Anchor-1" 571.739 1915.46 basemark 0
AnchorPoint: "Anchor-1" 680.906 1218.67 mark 0
LayerCount: 2
Fore
SplineSet
576.251005355 1726.89125325 m 0,0,1
 553.052616685 1699.57136431 553.052616685 1699.57136431 552.713513768 1664.12758669 c 0,2,3
 553.042001397 1597.43562898 553.042001397 1597.43562898 627.768446666 1566.01811352 c 0,4,5
 640.103537373 1560.83202576 640.103537373 1560.83202576 658.872977534 1554.50582643 c 128,-1,6
 677.642417694 1548.1796271 677.642417694 1548.1796271 703.486426876 1540.46042046 c 2,7,-1
 714.736924058 1537.1000706 l 1,8,-1
 720.700518265 1547.21447529 l 2,9,10
 749.999832808 1596.90684435 749.999832808 1596.90684435 750.001953122 1648.8206109 c 0,11,12
 750.000888661 1702.32893305 750.000888661 1702.32893305 725.435625817 1732.01543949 c 128,-1,13
 700.870362973 1761.70194593 700.870362973 1761.70194593 654.195570798 1761.29358315 c 0,14,15
 604.98942482 1760.95164503 604.98942482 1760.95164503 576.251005355 1726.89125325 c 0,0,1
304.209399481 1499.47949219 m 1,16,17
 313.143948394 1272.90223336 313.143948394 1272.90223336 452.68919645 1274.27616166 c 0,18,19
 530.136795135 1275.06145394 530.136795135 1275.06145394 610.992498878 1353.37516161 c 0,20,21
 657.27459091 1399.03861502 657.27459091 1399.03861502 698.008346723 1479.4019588 c 2,22,-1
 706.830015727 1496.80616827 l 1,23,-1
 687.742831559 1500.85681661 l 1,24,-1
 658.196982724 1507.12691826 l 2,25,26
 563.564223392 1527.49992199 563.564223392 1527.49992199 530.259266768 1571.1111921 c 0,27,28
 501 1610.0115111 501 1610.0115111 501 1655.09960938 c 0,29,30
 501 1702.41785382 501 1702.41785382 516.427871093 1732.87728534 c 0,31,32
 529.845170751 1758.92954439 529.845170751 1758.92954439 548.750729321 1776.00866993 c 128,-1,33
 567.656287891 1793.08779547 567.656287891 1793.08779547 592.916289256 1801.68672457 c 128,-1,34
 618.176290621 1810.28565367 618.176290621 1810.28565367 650.297168018 1810.4145616 c 0,35,36
 715.989822302 1810.95047089 715.989822302 1810.95047089 754.758467751 1773.50280647 c 0,37,38
 798.028310699 1731.6161914 798.028310699 1731.6161914 798.391129555 1650.23229381 c 0,39,40
 798.501686317 1642.90649092 798.501686317 1642.90649092 797.759102866 1634.37034717 c 128,-1,41
 797.016519415 1625.83420341 797.016519415 1625.83420341 795.380507457 1615.93758649 c 128,-1,42
 793.744495499 1606.04096956 793.744495499 1606.04096956 791.239999129 1595.01933271 c 128,-1,43
 788.735502758 1583.99769587 788.735502758 1583.99769587 785.272428109 1571.58924032 c 128,-1,44
 781.80935346 1559.18078477 781.80935346 1559.18078477 777.462450198 1545.73263026 c 2,45,-1
 771.460112218 1527.16300409 l 1,46,-1
 790.948880136 1526.13977272 l 1,47,-1
 821.076854795 1524.55794471 l 2,48,49
 842.878179669 1523.40766027 842.878179669 1523.40766027 865.497070312 1522.82782853 c 1,50,-1
 865.497070312 1474.41330741 l 1,51,52
 839.094134333 1475.1910653 839.094134333 1475.1910653 831.3263111 1475.93797138 c 2,53,-1
 755.1544361 1483.26219013 l 1,54,-1
 744.072360792 1484.32777429 l 1,55,-1
 739.843167838 1474.02914381 l 2,56,57
 725.016687129 1437.92475044 725.016687129 1437.92475044 705.699191577 1405.76737165 c 128,-1,58
 686.381696025 1373.60999286 686.381696025 1373.60999286 662.530503126 1345.3147602 c 128,-1,59
 638.679310226 1317.01952754 638.679310226 1317.01952754 610.197704654 1292.45417436 c 0,60,61
 571.832463366 1258.83684232 571.832463366 1258.83684232 532.884613577 1242.40869561 c 128,-1,62
 493.936763787 1225.98054889 493.936763787 1225.98054889 453.601823231 1225.96366509 c 0,63,64
 412.451760003 1225.75005424 412.451760003 1225.75005424 381.218131435 1241.70951861 c 128,-1,65
 349.984502867 1257.66898298 349.984502867 1257.66898298 327.746933348 1290.91996792 c 128,-1,66
 305.509363829 1324.17095285 305.509363829 1324.17095285 293.191426067 1376.26865885 c 128,-1,67
 280.873488305 1428.36636485 280.873488305 1428.36636485 278.509002569 1499.47949219 c 1,68,-1
 304.209399481 1499.47949219 l 1,16,17
EndSplineSet
EndChar

StartChar: uni064D
Encoding: 1613 1613 48
GlifName: uni064D_
Width: -26
VWidth: 2316
GlyphClass: 4
Flags: W
AnchorPoint: "Anchor-7" 546.278 61.7109 mark 0
AnchorPoint: "Anchor-6" 546.278 61.7109 mark 0
AnchorPoint: "Anchor-0" 592.022 -447.025 basemark 0
AnchorPoint: "Anchor-0" 546.278 61.7109 mark 0
LayerCount: 2
Fore
SplineSet
347.099609375 -463.65701932 m 1,0,-1
 347.099609375 -392.493108376 l 1,1,-1
 772.5 -218.465095337 l 1,2,-1
 772.5 -289.629918511 l 1,3,-1
 347.099609375 -463.65701932 l 1,0,-1
347.099609375 -211.65701932 m 1,4,-1
 347.099609375 -140.493108376 l 1,5,-1
 772.5 33.5349046624 l 1,6,-1
 772.5 -37.6299185118 l 1,7,-1
 347.099609375 -211.65701932 l 1,4,-1
EndSplineSet
EndChar

StartChar: uni064E
Encoding: 1614 1614 49
GlifName: uni064E_
Width: -26
VWidth: 2316
GlyphClass: 4
Flags: W
AnchorPoint: "Anchor-10" 581.66 1364.63 mark 0
AnchorPoint: "Anchor-9" 581.66 1364.63 mark 0
AnchorPoint: "Anchor-1" 541.396 1691.77 basemark 0
AnchorPoint: "Anchor-1" 581.66 1364.63 mark 0
LayerCount: 2
Fore
SplineSet
311.099609375 1371.4426344 m 1,0,-1
 311.099609375 1442.60747757 l 1,1,-1
 736.5 1616.6354906 l 1,2,-1
 736.5 1545.47064743 l 1,3,-1
 311.099609375 1371.4426344 l 1,0,-1
EndSplineSet
EndChar

StartChar: uni064F
Encoding: 1615 1615 50
GlifName: uni064F_
Width: -26
VWidth: 2316
GlyphClass: 4
Flags: W
AnchorPoint: "Anchor-10" 611.295 1299.37 mark 0
AnchorPoint: "Anchor-9" 611.295 1299.37 mark 0
AnchorPoint: "Anchor-1" 580.134 1920.4 basemark 0
AnchorPoint: "Anchor-1" 611.295 1299.37 mark 0
LayerCount: 2
Fore
SplineSet
807.65234375 1489.08363529 m 1,0,1
 782.526892241 1489.3736197 782.526892241 1489.3736197 762.404573758 1490.56105531 c 128,-1,2
 742.282255276 1491.74849093 742.282255276 1491.74849093 725.934654387 1493.87471386 c 2,3,-1
 694.617271575 1497.94795605 l 1,4,-1
 685.675446762 1499.1109593 l 1,5,-1
 680.453689133 1491.75962916 l 2,6,7
 617.814664127 1403.57473334 617.814664127 1403.57473334 531.191528355 1355.45152466 c 128,-1,8
 444.568392583 1307.32831597 444.568392583 1307.32831597 333.57421875 1298.66902466 c 1,9,-1
 333.57421875 1346.74176409 l 1,10,11
 426.927062232 1353.39766537 426.927062232 1353.39766537 497.981968589 1391.37816321 c 128,-1,12
 569.036874946 1429.35866104 569.036874946 1429.35866104 618.154896331 1498.84241646 c 2,13,-1
 631.501203444 1517.72248355 l 1,14,-1
 608.820873118 1522.21508449 l 2,15,16
 568.178904004 1530.26559107 568.178904004 1530.26559107 523.804524164 1554.5608508 c 0,17,18
 483.568946074 1577.13952661 483.568946074 1577.13952661 464.352997465 1607.00861412 c 128,-1,19
 445.137048857 1636.87770162 445.137048857 1636.87770162 445.249744962 1675.44354134 c 0,20,21
 445.937584771 1734.54940118 445.937584771 1734.54940118 477.743178644 1773.2314271 c 0,22,23
 519.041500846 1822.99652616 519.041500846 1822.99652616 592.980544067 1822.95996417 c 0,24,25
 648.716082427 1822.99653019 648.716082427 1822.99653019 689.303328024 1790.31681191 c 0,26,27
 703.908107119 1778.55666073 703.908107119 1778.55666073 714.476026688 1763.9975384 c 128,-1,28
 725.043946256 1749.43841606 725.043946256 1749.43841606 731.679461763 1731.97012364 c 0,29,30
 736.281190806 1719.32379965 736.281190806 1719.32379965 738.518996689 1705.21050184 c 128,-1,31
 740.756802572 1691.09720403 740.756802572 1691.09720403 740.546553715 1675.5405972 c 0,32,33
 740.029230542 1620.19719766 740.029230542 1620.19719766 715.946806739 1561.98197518 c 2,34,-1
 708.142621048 1543.11666452 l 1,35,-1
 728.478074946 1541.30708582 l 1,36,-1
 748.293922082 1539.54374682 l 2,37,38
 779.202794746 1536.80840088 779.202794746 1536.80840088 807.65234375 1536.94823629 c 1,39,-1
 807.65234375 1489.08363529 l 1,0,1
663.695468043 1563.81279358 m 1,40,-1
 669.852428704 1578.01168133 l 2,41,42
 691.988157407 1628.84876839 691.988157407 1628.84876839 692.15831212 1673.71709561 c 0,43,44
 691.972783874 1722.1308058 691.972783874 1722.1308058 661.733496207 1746.87010152 c 0,45,46
 632.672661438 1771.91271506 632.672661438 1771.91271506 597.117730441 1772.47064331 c 0,47,48
 571.540770143 1772.77131988 571.540770143 1772.77131988 550.742261419 1763.32521211 c 128,-1,49
 529.943752694 1753.87910434 529.943752694 1753.87910434 515.414710507 1734.92040578 c 0,50,51
 495.529900683 1708.01121988 495.529900683 1708.01121988 494.867775944 1672.14476437 c 0,52,53
 495.026929609 1615.3728839 495.026929609 1615.3728839 569.426445871 1581.18266113 c 0,54,55
 593.793225622 1569.88003521 593.793225622 1569.88003521 645.900109142 1555.33274763 c 2,56,-1
 658.49373322 1551.81683844 l 1,57,-1
 663.695468043 1563.81279358 l 1,40,-1
EndSplineSet
EndChar

StartChar: uni0650
Encoding: 1616 1616 51
GlifName: uni0650
Width: -26
VWidth: 2316
GlyphClass: 4
Flags: W
AnchorPoint: "Anchor-7" 571.144 -21.8242 mark 0
AnchorPoint: "Anchor-6" 571.144 -21.8242 mark 0
AnchorPoint: "Anchor-0" 619.091 -334.624 basemark 0
AnchorPoint: "Anchor-0" 571.144 -21.8242 mark 0
LayerCount: 2
Fore
SplineSet
357.900390625 -323.256610554 m 1,0,-1
 357.900390625 -252.092709575 l 1,1,-1
 783.299804688 -78.064722854 l 1,2,-1
 783.299804688 -149.229536064 l 1,3,-1
 357.900390625 -323.256610554 l 1,0,-1
EndSplineSet
EndChar

StartChar: uni0651
Encoding: 1617 1617 52
GlifName: uni0651
Width: -26
VWidth: 2393
GlyphClass: 4
Flags: W
AnchorPoint: "Anchor-10" 598.801 1463.71 mark 0
AnchorPoint: "Anchor-9" 598.801 1463.71 mark 0
AnchorPoint: "Anchor-1" 570.087 1849.1 basemark 0
AnchorPoint: "Anchor-1" 598.801 1463.71 mark 0
LayerCount: 2
Fore
SplineSet
594.012129616 1753.46289062 m 1,0,1
 595.280395122 1719.20898379 595.280395122 1719.20898379 595.622693071 1685.85983544 c 0,2,3
 595.510538368 1661.45776951 595.510538368 1661.45776951 600.460564778 1641.94251862 c 128,-1,4
 605.410591189 1622.42726774 605.410591189 1622.42726774 615.295524285 1608.32798666 c 128,-1,5
 625.180457382 1594.22870559 625.180457382 1594.22870559 640.795714847 1586.68663671 c 128,-1,6
 656.410972313 1579.14456784 656.410972313 1579.14456784 676.806327825 1579.25240845 c 0,7,8
 705.171889645 1579.4734296 705.171889645 1579.4734296 724.563990151 1594.00057041 c 128,-1,9
 743.956090656 1608.52771122 743.956090656 1608.52771122 753.180499106 1634.051721 c 128,-1,10
 762.404907556 1659.57573077 762.404907556 1659.57573077 762.626569489 1695.06166562 c 0,11,12
 762.756196389 1713.18582098 762.756196389 1713.18582098 759.242495799 1739.95013233 c 128,-1,13
 755.728795209 1766.71444369 755.728795209 1766.71444369 748.954301795 1800.55124384 c 1,14,-1
 808.235143737 1809.94060882 l 1,15,16
 821.931741948 1756.31495298 821.931741948 1756.31495298 821.527205212 1705.08171258 c 0,17,18
 821.679846139 1639.83433886 821.679846139 1639.83433886 806.831355631 1598.00056982 c 128,-1,19
 791.982865122 1556.16680078 791.982865122 1556.16680078 763.179755796 1536.61679674 c 128,-1,20
 734.376646471 1517.06679271 734.376646471 1517.06679271 690.288282197 1516.66561828 c 0,21,22
 633.644819074 1516.25332323 633.644819074 1516.25332323 595.669364371 1564.53941652 c 2,23,-1
 576.96127383 1588.32690273 l 1,24,-1
 569.359807513 1559.03432924 l 2,25,26
 563.724621809 1537.31890165 563.724621809 1537.31890165 555.060864162 1520.28529072 c 128,-1,27
 546.397106515 1503.25167978 546.397106515 1503.25167978 534.50824836 1490.55334387 c 128,-1,28
 522.619390206 1477.85500796 522.619390206 1477.85500796 507.312528049 1469.53647113 c 128,-1,29
 492.005665893 1461.2179343 492.005665893 1461.2179343 473.279542757 1457.08256528 c 128,-1,30
 454.55341962 1452.94719626 454.55341962 1452.94719626 432.019860423 1452.88960874 c 0,31,32
 391.298892397 1452.98329127 391.298892397 1452.98329127 364.687167236 1468.93373388 c 128,-1,33
 338.075442074 1484.88417649 338.075442074 1484.88417649 324.117754628 1519.00475802 c 128,-1,34
 310.160067182 1553.12533954 310.160067182 1553.12533954 309.301003955 1606.7278368 c 0,35,36
 308.549166732 1656.22053263 308.549166732 1656.22053263 318.25308277 1698.67736703 c 1,37,-1
 367.623468669 1690.46908018 l 1,38,39
 360.335482617 1651.26461917 360.335482617 1651.26461917 360.577567656 1619.52164463 c 0,40,41
 360.804144542 1589.21645342 360.804144542 1589.21645342 370.092577508 1567.31094001 c 128,-1,42
 379.381010474 1545.4054266 379.381010474 1545.4054266 398.091465003 1533.23287348 c 128,-1,43
 416.801919531 1521.06032037 416.801919531 1521.06032037 443.566318496 1520.90262518 c 0,44,45
 491.443789564 1520.60933943 491.443789564 1520.60933943 517.029660446 1554.23078432 c 128,-1,46
 542.615531328 1587.8522292 542.615531328 1587.8522292 544.939190555 1648.64134524 c 0,47,48
 545.803817155 1671.20086903 545.803817155 1671.20086903 546.128661889 1697.68516011 c 128,-1,49
 546.453506623 1724.16945119 546.453506623 1724.16945119 546.241191555 1753.46289062 c 1,50,-1
 594.012129616 1753.46289062 l 1,0,1
EndSplineSet
EndChar

StartChar: uni0652
Encoding: 1618 1618 53
GlifName: uni0652
Width: -26
VWidth: 2316
GlyphClass: 4
Flags: W
AnchorPoint: "Anchor-10" 603.219 1222.43 mark 0
AnchorPoint: "Anchor-9" 603.219 1222.43 mark 0
AnchorPoint: "Anchor-1" 577.537 1799.66 basemark 0
AnchorPoint: "Anchor-1" 603.219 1222.43 mark 0
LayerCount: 2
Fore
SplineSet
413.139648438 1461.671875 m 128,-1,1
 413.139648438 1537.35913786 413.139648438 1537.35913786 465.445377565 1589.66576788 c 0,2,3
 491.79470327 1616.01463977 491.79470327 1616.01463977 523.521895199 1628.99315973 c 128,-1,4
 555.249087128 1641.97167969 555.249087128 1641.97167969 593.439453125 1641.97167969 c 128,-1,5
 631.630731374 1641.97167969 631.630731374 1641.97167969 663.358180636 1628.99195801 c 128,-1,6
 695.085629898 1616.01223633 695.085629898 1616.01223633 721.432460781 1589.66585922 c 0,7,8
 773.739257812 1537.35906219 773.739257812 1537.35906219 773.739257812 1461.671875 c 0,9,10
 773.739257812 1423.48059803 773.739257812 1423.48059803 760.759331371 1391.75320476 c 128,-1,11
 747.77940493 1360.02581149 747.77940493 1360.02581149 721.432460782 1333.67886734 c 0,12,13
 708.249360985 1320.49576754 708.249360985 1320.49576754 693.789759912 1310.69357556 c 128,-1,14
 679.330158839 1300.89138358 679.330158839 1300.89138358 663.384358081 1294.36505211 c 128,-1,15
 647.438557323 1287.83872063 647.438557323 1287.83872063 630.000425919 1284.60539547 c 128,-1,16
 612.562294515 1281.37207031 612.562294515 1281.37207031 593.439453125 1281.37207031 c 0,17,18
 517.752265935 1281.37207031 517.752265935 1281.37207031 465.445560247 1333.678776 c 128,-1,0
 413.139648438 1385.98558871 413.139648438 1385.98558871 413.139648438 1461.671875 c 128,-1,1
469.538669287 1460.77229323 m 0,19,20
 469.154806335 1407.67641399 469.154806335 1407.67641399 506.332279797 1370.96580754 c 0,21,22
 542.740031882 1334.09006669 542.740031882 1334.09006669 596.116316886 1334.17189315 c 0,23,24
 622.138489918 1334.13141725 622.138489918 1334.13141725 644.83773528 1343.41915996 c 128,-1,25
 667.536980642 1352.70690267 667.536980642 1352.70690267 685.945835543 1370.965851 c 0,26,27
 694.988361029 1380.08356791 694.988361029 1380.08356791 701.846258013 1390.34493566 c 128,-1,28
 708.704154996 1400.60630342 708.704154996 1400.60630342 713.307535102 1411.86900738 c 128,-1,29
 717.910915207 1423.13171134 717.910915207 1423.13171134 720.277816509 1435.38659446 c 128,-1,30
 722.644717812 1447.64147757 722.644717812 1447.64147757 722.739651025 1460.77262865 c 0,31,32
 722.549293811 1487.02162668 722.549293811 1487.02162668 713.299535791 1509.63221292 c 128,-1,33
 704.049777771 1532.24279916 704.049777771 1532.24279916 685.945878999 1550.57829726 c 0,34,35
 667.497970783 1568.79454047 667.497970783 1568.79454047 644.844910365 1578.06301739 c 128,-1,36
 622.191849947 1587.33149431 622.191849947 1587.33149431 596.116653294 1587.37205268 c 0,37,38
 569.83357666 1587.33176043 569.83357666 1587.33176043 547.076136551 1578.02309056 c 128,-1,39
 524.318696442 1568.71442069 524.318696442 1568.71442069 506.332483085 1550.57809395 c 0,40,41
 469.154807627 1513.70427182 469.154807627 1513.70427182 469.538669287 1460.77229323 c 0,19,20
EndSplineSet
EndChar

StartChar: uni0653
Encoding: 1619 1619 54
GlifName: uni0653
Width: -30
VWidth: 2673
GlyphClass: 4
Flags: W
AnchorPoint: "Anchor-10" 461.017 1539.11 mark 0
AnchorPoint: "Anchor-9" 461.017 1539.11 mark 0
AnchorPoint: "Anchor-1" 461.017 1975.25 basemark 0
AnchorPoint: "Anchor-1" 461.017 1539.11 mark 0
LayerCount: 2
Fore
SplineSet
402.393703146 1651.66462314 m 2,0,1
 290.107722581 1667.11776731 290.107722581 1667.11776731 196.601208338 1564.89212275 c 1,2,-1
 115.09765625 1640.65722656 l 5,3,4
 226.244104141 1792.33311647 226.244104141 1792.33311647 381.372070312 1767.34863281 c 6,5,-1
 530.047851562 1743.40332031 l 6,6,7
 628 1728 628 1728 745.043945312 1783.61230469 c 5,8,-1
 798.228845219 1683.0705373 l 1,9,10
 678.438174682 1613.67452862 678.438174682 1613.67452862 542.914210959 1632.32575595 c 2,11,-1
 402.393703146 1651.66462314 l 2,0,1
EndSplineSet
EndChar

StartChar: uni0657
Encoding: 1623 1623 57
GlifName: uni0657
Width: -26
VWidth: 2316
GlyphClass: 4
Flags: W
AnchorPoint: "Anchor-10" 573.285 1350.55 mark 0
AnchorPoint: "Anchor-9" 573.285 1350.55 mark 0
AnchorPoint: "Anchor-1" 573.285 2089.85 basemark 0
AnchorPoint: "Anchor-1" 573.285 1350.55 mark 0
LayerCount: 2
Fore
SplineSet
279.529296875 1789.14623345 m 1,0,1
 305.974197359 1788.09940632 305.974197359 1788.09940632 334.198691751 1785.99322113 c 128,-1,2
 362.423186143 1783.88703595 362.423186143 1783.88703595 392.962405428 1780.68342025 c 2,3,-1
 401.733310624 1779.76333748 l 1,4,-1
 406.802154275 1786.98013416 l 1,5,-1
 408.022041721 1788.71695794 l 2,6,7
 478.375928391 1888.96012979 478.375928391 1888.96012979 568.656820811 1945.52634776 c 128,-1,8
 658.937713232 2002.09256573 658.937713232 2002.09256573 769.673828125 2015.98223794 c 1,9,-1
 769.673828125 1967.23186779 l 1,10,11
 587.62711951 1933.52159641 587.62711951 1933.52159641 474.420882952 1787.37715713 c 2,12,-1
 460.970256221 1770.01296977 l 1,13,-1
 482.038594179 1763.80334034 l 2,14,15
 541.254362237 1746.35023241 541.254362237 1746.35023241 582.165247124 1716.43603027 c 0,16,17
 642.997789594 1670.52941975 642.997789594 1670.52941975 642.976563344 1598.86606216 c 0,18,19
 642.997958691 1535.08296672 642.997958691 1535.08296672 602.45282552 1493.33603739 c 0,20,21
 563.620607167 1453.00126983 563.620607167 1453.00126983 501.355640468 1453.01367163 c 0,22,23
 433.117070631 1453.00112497 433.117070631 1453.00112497 384.257513297 1500.81330813 c 0,24,25
 346.968358956 1538.22996169 346.968358956 1538.22996169 346.636061505 1603.25513859 c 0,26,27
 346.98109254 1644.66811292 346.98109254 1644.66811292 369.700871013 1717.98482097 c 2,28,-1
 375.199167893 1735.72782086 l 1,29,-1
 356.696179319 1737.36633475 l 2,30,31
 322.07690376 1740.43201052 322.07690376 1740.43201052 279.529296875 1741.19287157 c 1,32,-1
 279.529296875 1789.14623345 l 1,0,1
501.576955845 1501.40416564 m 0,33,34
 549.695970873 1502.11150927 549.695970873 1502.11150927 573.960192455 1535.29761851 c 0,35,36
 591.952057125 1561.23814505 591.952057125 1561.23814505 592.313881812 1596.59664545 c 0,37,38
 592.238933706 1610.79032238 592.238933706 1610.79032238 588.359794466 1623.75654237 c 128,-1,39
 584.480655225 1636.72276235 584.480655225 1636.72276235 577.179636696 1647.96899646 c 128,-1,40
 569.878618166 1659.21523058 569.878618166 1659.21523058 559.172453172 1669.18012058 c 128,-1,41
 548.466288177 1679.14501058 548.466288177 1679.14501058 534.913192764 1687.48605605 c 128,-1,42
 521.360097352 1695.82710152 521.360097352 1695.82710152 504.800900144 1702.83291573 c 0,43,44
 472.576816041 1716.34624132 472.576816041 1716.34624132 440.530633866 1723.5311645 c 2,45,-1
 428.348763643 1726.2624041 l 1,46,-1
 423.451365615 1714.77880169 l 2,47,48
 394.998227318 1648.0608168 394.998227318 1648.0608168 395.023446873 1604.98161288 c 0,49,50
 394.996499015 1580.87675346 394.996499015 1580.87675346 403.037496785 1562.45635759 c 0,51,52
 415.215512772 1534.49176574 415.215512772 1534.49176574 444.46778388 1517.54487383 c 0,53,54
 473.076027591 1500.93309482 473.076027591 1500.93309482 501.576955845 1501.40416564 c 0,33,34
EndSplineSet
EndChar

StartChar: uni065A
Encoding: 1626 1626 58
GlifName: uni065A_
Width: 1135
VWidth: 2316
GlyphClass: 4
Flags: W
AnchorPoint: "Anchor-10" 573.285 1350.55 mark 0
AnchorPoint: "Anchor-9" 573.285 1350.55 mark 0
AnchorPoint: "Anchor-1" 571.012 1862.38 basemark 0
AnchorPoint: "Anchor-1" 573.285 1350.55 mark 0
LayerCount: 2
Fore
SplineSet
510.873450561 1459.42578125 m 1,0,-1
 334.975512316 1753.49023438 l 1,1,-1
 404.894959599 1753.49023438 l 1,2,-1
 560.804284909 1519.61912557 l 1,3,-1
 573.285118248 1500.89730552 l 1,4,-1
 585.766004206 1519.61909049 l 1,5,-1
 741.676302345 1753.49023438 l 1,6,-1
 811.59654809 1753.49023438 l 1,7,-1
 635.695951372 1459.42578125 l 1,8,-1
 510.873450561 1459.42578125 l 1,0,-1
EndSplineSet
EndChar

StartChar: afii57392
Encoding: 1632 1632 59
GlifName: afii57392
Width: 1077
VWidth: 2952
GlyphClass: 2
Flags: W
LayerCount: 2
Fore
SplineSet
369.290039062 593.262695312 m 128,-1,1
 369.290039062 521.259490433 369.290039062 521.259490433 419.186682516 471.366402812 c 0,2,3
 425.309251606 465.243542393 425.309251606 465.243542393 431.888319002 459.817987642 c 128,-1,4
 438.467386398 454.39243289 438.467386398 454.39243289 445.479811529 449.683180397 c 128,-1,5
 452.492236659 444.973927904 452.492236659 444.973927904 459.947690909 441.00092918 c 128,-1,6
 467.403145159 437.027930455 467.403145159 437.027930455 475.20591412 433.852156444 c 0,7,8
 481.487368039 431.295469266 481.487368039 431.295469266 487.945267319 429.25431198 c 128,-1,9
 494.403166599 427.213154694 494.403166599 427.213154694 501.013750806 425.68734642 c 128,-1,10
 507.624335013 424.161538145 507.624335013 424.161538145 514.460585108 423.13167929 c 128,-1,11
 521.296835203 422.101820435 521.296835203 422.101820435 528.304630772 421.564330896 c 128,-1,12
 535.312426341 421.026841357 535.312426341 421.026841357 542.595108324 420.965720763 c 0,13,14
 615.216035101 421.586503229 615.216035101 421.586503229 664.995429998 471.365898126 c 0,15,16
 689.787447853 496.157915981 689.787447853 496.157915981 702.370255683 526.983647116 c 128,-1,17
 714.890625 557.65932385 714.890625 557.65932385 714.890625 593.262695312 c 128,-1,18
 714.890625 628.866832348 714.890625 628.866832348 702.370255684 659.543696633 c 0,19,20
 698.1706671 669.832947578 698.1706671 669.832947578 692.545016292 679.529334757 c 128,-1,21
 686.919365485 689.225721936 686.919365485 689.225721936 680.033813582 698.117656218 c 128,-1,22
 673.14826168 707.0095905 673.14826168 707.0095905 664.995177965 715.162674215 c 0,23,24
 615.214086113 764.942583198 615.214086113 764.942583198 541.58604674 765.56162269 c 0,25,26
 505.545241624 765.254173371 505.545241624 765.254173371 474.850765928 752.633992509 c 128,-1,27
 443.958386185 739.932442451 443.958386185 739.932442451 419.18743915 715.162674143 c 0,28,0
 369.290039062 665.266459352 369.290039062 665.266459352 369.290039062 593.262695312 c 128,-1,1
334.842864032 796.250441537 m 0,29,30
 356.165193645 817.57187773 356.165193645 817.57187773 379.414221989 833.438584736 c 0,31,32
 402.449383048 849.159613643 402.449383048 849.159613643 427.469791508 859.596628127 c 128,-1,33
 452.525314292 870.048546243 452.525314292 870.048546243 479.735743563 875.284038746 c 128,-1,34
 506.946172835 880.51953125 506.946172835 880.51953125 536.678710938 880.51953125 c 0,35,36
 576.169123785 880.51953125 576.169123785 880.51953125 611.61790797 871.182724495 c 0,37,38
 646.813602598 861.912809558 646.813602598 861.912809558 678.344558262 843.342124019 c 0,39,40
 710.159288227 824.605711152 710.159288227 824.605711152 738.514335626 796.250663752 c 0,41,42
 780.898747226 753.866252153 780.898747226 753.866252153 801.856608574 703.628326341 c 128,-1,43
 822.784179688 653.463009014 822.784179688 653.463009014 822.784179688 594.4140625 c 0,44,45
 822.784179688 535.035858596 822.784179688 535.035858596 801.956600095 485.114002359 c 128,-1,46
 781.129020502 435.192146123 781.129020502 435.192146123 738.514335626 392.577461248 c 0,47,48
 717.205259069 371.26838469 717.205259069 371.26838469 693.973374751 355.449439852 c 0,49,50
 670.958220601 339.777789374 670.958220601 339.777789374 645.961378548 329.419638026 c 0,51,52
 639.716010595 326.831558247 639.716010595 326.831558247 633.346949156 324.573169646 c 128,-1,53
 626.977887716 322.314781045 626.977887716 322.314781045 620.466981939 320.380459968 c 128,-1,54
 613.956076162 318.446138891 613.956076162 318.446138891 607.302541364 316.837891688 c 128,-1,55
 600.649006566 315.229644485 600.649006566 315.229644485 593.849992111 313.946853084 c 0,56,57
 566.498615349 308.787268128 566.498615349 308.787268128 536.624811166 308.924143882 c 0,58,59
 516.636997081 308.832312116 516.636997081 308.832312116 497.880446427 311.095178323 c 128,-1,60
 479.123895773 313.358044529 479.123895773 313.358044529 461.612854971 317.924374286 c 128,-1,61
 444.101814169 322.490704043 444.101814169 322.490704043 427.382589497 329.420691318 c 128,-1,62
 410.737398541 336.31998458 410.737398541 336.31998458 394.983614059 345.567362221 c 128,-1,63
 379.155050782 354.858634569 379.155050782 354.858634569 364.174355022 366.555284521 c 0,64,65
 360.412199604 369.492705834 360.412199604 369.492705834 356.70274951 372.582879591 c 128,-1,66
 352.993299417 375.673053348 352.993299417 375.673053348 349.326722107 378.924685552 c 128,-1,67
 345.660144797 382.176317757 345.660144797 382.176317757 342.037178487 385.591326536 c 128,-1,68
 338.414212178 389.006335315 338.414212178 389.006335315 334.843308642 392.577238851 c 0,69,70
 320.58858812 406.832258265 320.58858812 406.832258265 308.802697152 421.905626792 c 128,-1,71
 297.016806185 436.978995318 297.016806185 436.978995318 287.742745157 452.740754903 c 128,-1,72
 278.46868413 468.502514488 278.46868413 468.502514488 271.503915448 485.198408687 c 0,73,74
 250.577148438 535.363906475 250.577148438 535.363906475 250.577148438 594.415039062 c 128,-1,75
 250.577148438 653.469391552 250.577148438 653.469391552 271.499133152 703.626051024 c 128,-1,76
 292.455028867 753.86260637 292.455028867 753.86260637 334.842864032 796.250441537 c 0,29,30
EndSplineSet
EndChar

StartChar: afii57393
Encoding: 1633 1633 60
GlifName: afii57393
Width: 756
VWidth: 2952
GlyphClass: 2
Flags: W
LayerCount: 2
Fore
SplineSet
293.605845308 1378.52396588 m 1,0,1
 484.115234375 942.520029886 484.115234375 942.520029886 484.115234375 308.771484375 c 2,2,-1
 484.115234375 41.5537109375 l 1,3,-1
 364.796387315 41.5537109375 l 1,4,-1
 364.791990703 311.908529325 l 2,5,6
 364.994023168 953.999954527 364.994023168 953.999954527 186.342611232 1340.71513423 c 1,7,-1
 293.605845308 1378.52396588 l 1,0,1
EndSplineSet
EndChar

StartChar: afii57394
Encoding: 1634 1634 61
GlifName: afii57394
Width: 1217
VWidth: 2952
GlyphClass: 2
Flags: W
LayerCount: 2
Fore
SplineSet
382.996712493 1124.18343242 m 2,0,1
 405.345516512 1060.80799114 405.345516512 1060.80799114 447.681527692 1017.7371945 c 128,-1,2
 490.017538873 974.66639786 490.017538873 974.66639786 549.670754385 953.258816597 c 128,-1,3
 609.323969897 931.851235335 609.323969897 931.851235335 685.086619646 931.769101432 c 0,4,5
 831.330501117 932.033032835 831.330501117 932.033032835 887.960472935 1042.24278955 c 0,6,7
 915.982399931 1096.54565401 915.982399931 1096.54565401 930.027476221 1179.10706782 c 128,-1,8
 944.072552512 1261.66848162 944.072552512 1261.66848162 945.739715238 1374.45202932 c 1,9,-1
 1065.26262418 1374.08383494 l 1,10,11
 1064.69896595 1345.29078707 1064.69896595 1345.29078707 1063.5904091 1318.24910546 c 128,-1,12
 1062.48185224 1291.20742385 1062.48185224 1291.20742385 1060.82708478 1265.73291465 c 0,13,14
 1042.75940616 1019.45049271 1042.75940616 1019.45049271 959.313121883 914.824498977 c 0,15,16
 870.621431365 804.041861701 870.621431365 804.041861701 689.33919729 804.568068465 c 0,17,18
 543 805 543 805 442.35004099 881.073385647 c 5,19,-1
 450.685066727 817.602699574 l 1,20,-1
 451.520223774 811.24305565 l 2,21,22
 467.817701093 686.704151061 467.817701093 686.704151061 475.966467734 561.090268932 c 128,-1,23
 484.115234375 435.476386802 484.115234375 435.476386802 484.115234375 308.771484375 c 2,24,-1
 484.115234375 41.5537109375 l 1,25,-1
 364.796387315 41.5537109375 l 1,26,-1
 364.791990703 311.908529325 l 2,27,28
 364.994023168 953.999954527 364.994023168 953.999954527 186.342387506 1340.71561851 c 1,29,-1
 291.395826967 1377.74740619 l 1,30,-1
 382.996712493 1124.18343242 l 2,0,1
EndSplineSet
EndChar

StartChar: afii57395
Encoding: 1635 1635 62
GlifName: afii57395
Width: 1492
VWidth: 2952
GlyphClass: 2
Flags: W
LayerCount: 2
Fore
SplineSet
451.346100509 812.504919151 m 2,0,1
 484.115234375 565.304753964 484.115234375 565.304753964 484.115234375 308.771484375 c 2,2,-1
 484.115234375 41.5537109375 l 1,3,-1
 364.796387313 41.5537109375 l 1,4,-1
 364.791990703 311.907552777 l 2,5,6
 365 954 365 954 186.342392313 1340.71560669 c 1,7,-1
 291.058806729 1377.62854663 l 1,8,-1
 390.837527133 1091.74308461 l 2,9,10
 415 1022 415 1022 471.829902711 984.982188395 c 0,11,12
 528 948 528 948 610.324859738 947.632383366 c 0,13,14
 675 947 675 947 717.390889618 983.363476105 c 0,15,16
 760 1019 760 1019 778.117454531 1082.68974475 c 0,17,18
 796.386932788 1147.36987285 796.386932788 1147.36987285 794.357236651 1235.25322247 c 2,19,-1
 792.340764398 1322.56399413 l 1,20,-1
 891.099845511 1325.70798364 l 1,21,-1
 894.020048377 1211.65125295 l 2,22,23
 896 1128 896 1128 916.208572733 1068.66550874 c 0,24,25
 936 1009 936 1009 977.851384926 975.303658143 c 0,26,27
 1019 941 1019 941 1080.23620753 940.893039835 c 0,28,29
 1108 941 1108 941 1131.97280461 949.301478516 c 0,30,31
 1156 958 1156 958 1174.42864243 975.566617913 c 128,-1,32
 1193 993 1193 993 1204.84027037 1018.22723937 c 0,33,34
 1225.93452875 1065.31870056 1225.93452875 1065.31870056 1231.14597818 1124.09402922 c 0,35,36
 1239.36094875 1221.26969712 1239.36094875 1221.26969712 1239.51847167 1288.22727442 c 2,37,-1
 1239.76062529 1391.15845418 l 1,38,-1
 1356.50042652 1391.26613701 l 1,39,-1
 1356.05474952 1290.6957012 l 2,40,41
 1356 1231 1356 1231 1348.80524054 1145.92275578 c 0,42,43
 1335 975 1335 975 1270.20914414 895.955409928 c 0,44,45
 1205 817 1205 817 1086.92064555 817.767539357 c 0,46,47
 1018 818 1018 818 962.383229047 843.807892025 c 0,48,49
 907.298951954 868.864016056 907.298951954 868.864016056 862.51916272 920.782340761 c 2,50,-1
 860.185178346 923.488395449 l 1,51,-1
 836.839190822 950.556065519 l 1,52,-1
 814.230805744 922.869339085 l 1,53,-1
 811.97148141 920.1025206 l 2,54,55
 783 885 783 885 752.361848121 861.730119182 c 0,56,57
 722 839 722 839 689.722939492 827.841722198 c 0,58,59
 658 817 658 817 623.117907124 816.943354375 c 0,60,61
 506 817 506 817 440.279296875 885.98828125 c 5,62,-1
 450.340241134 820.092809776 l 1,63,-1
 451.346100509 812.504919151 l 2,0,1
EndSplineSet
EndChar

StartChar: afii57396
Encoding: 1636 1636 63
GlifName: afii57396
Width: 1056
VWidth: 2952
GlyphClass: 2
Flags: W
LayerCount: 2
Fore
SplineSet
169.293874036 312.795106109 m 0,0,1
 161.616924768 542.07686324 161.616924768 542.07686324 515.480438201 725.446841288 c 2,2,-1
 576.493421707 757.063408188 l 1,3,-1
 511.828010127 780.313698596 l 2,4,5
 251.067659601 874.069444187 251.067659601 874.069444187 251.662947854 1059.86600905 c 0,6,7
 251.971473354 1161.5524371 251.971473354 1161.5524371 294.191525062 1222.25889768 c 0,8,9
 420.482710375 1406.74372102 420.482710375 1406.74372102 788.159872405 1370.68296343 c 1,10,-1
 779.671005329 1248.19116679 l 1,11,12
 745.020937794 1251.12957416 745.020937794 1251.12957416 714.188882703 1251.45867722 c 0,13,14
 617.069108161 1251.64500103 617.069108161 1251.64500103 548.615576768 1232.52650325 c 128,-1,15
 480.162045375 1213.40800547 480.162045375 1213.40800547 440.734877536 1170.4399631 c 128,-1,16
 401.307709696 1127.47192072 401.307709696 1127.47192072 400.830476425 1062.23955025 c 0,17,18
 400.339164234 966.895506458 400.339164234 966.895506458 493.523013873 914.136030683 c 128,-1,19
 586.706863511 861.376554909 586.706863511 861.376554909 758.10696294 844.274674545 c 1,20,-1
 759.797087558 708.18888028 l 1,21,22
 646.320866498 661.634388682 646.320866498 661.634388682 563.724840062 618.936397536 c 128,-1,23
 481.128813626 576.238406389 481.128813626 576.238406389 420.666116037 531.590513439 c 128,-1,24
 360.203418449 486.942620489 360.203418449 486.942620489 331.40376734 441.196314836 c 128,-1,25
 302.60411623 395.450009182 302.60411623 395.450009182 305.579933207 348.315450147 c 0,26,27
 308.935318582 298.300360177 308.935318582 298.300360177 339.529592341 262.401391109 c 128,-1,28
 370.1238661 226.502422042 370.1238661 226.502422042 425.868337187 205.434073653 c 128,-1,29
 481.612808274 184.365725264 481.612808274 184.365725264 555.022674893 174.907500794 c 128,-1,30
 628.432541513 165.449276325 628.432541513 165.449276325 724.020938643 166.054311876 c 2,31,-1
 888.104935922 167.092896628 l 1,32,-1
 889.644589651 30.0867756828 l 1,33,-1
 717.161918735 30.4686410166 l 2,34,35
 439.744756639 31.2164128811 439.744756639 31.2164128811 306.678021335 102.987210195 c 128,-1,36
 173.611286031 174.758007509 173.611286031 174.758007509 169.293874036 312.795106109 c 0,0,1
EndSplineSet
EndChar

StartChar: afii57397
Encoding: 1637 1637 64
GlifName: afii57397
Width: 1257
VWidth: 2952
GlyphClass: 2
Flags: W
LayerCount: 2
Fore
SplineSet
578.683229961 1091.13976788 m 2,0,1
 280.012486017 771.857785668 280.012486017 771.857785668 279.721734781 493.167115028 c 0,2,3
 280.027911302 333.407429442 280.027911302 333.407429442 398.213010007 240.441469017 c 0,4,5
 494.686444546 164.979810462 494.686444546 164.979810462 654.08365879 165.290958786 c 0,6,7
 817.918124381 164.972925827 817.918124381 164.972925827 908.162631178 271.946328051 c 0,8,9
 977.059918099 353.047990745 977.059918099 353.047990745 976.259696855 500.402715312 c 0,10,11
 975.987443599 822.885673388 975.987443599 822.885673388 618.750222555 1094.52586746 c 2,12,-1
 597.188027787 1110.92157996 l 1,13,-1
 578.683229961 1091.13976788 l 2,0,1
437.028069096 1238.18684872 m 1,14,-1
 511.256755342 1357.87770614 l 1,15,16
 1106.0368635 966.05350723 1106.0368635 966.05350723 1106.70607217 477.231282853 c 0,17,18
 1106.77640171 412.089304961 1106.77640171 412.089304961 1095.47246593 356.897503355 c 128,-1,19
 1084.16853015 301.70570175 1084.16853015 301.70570175 1061.37732249 256.060006412 c 128,-1,20
 1038.58611483 210.414311075 1038.58611483 210.414311075 1004.72097684 174.002989633 c 128,-1,21
 970.855838856 137.591668191 970.855838856 137.591668191 925.350818514 109.470236366 c 0,22,23
 808.563464386 37.0671841521 808.563464386 37.0671841521 640.416650889 38.3877769607 c 0,24,25
 470.849105328 38.9730854014 470.849105328 38.9730854014 349.62002178 106.591063159 c 0,26,27
 146.169974436 218.633466925 146.169974436 218.633466925 148.627491087 475.653923144 c 0,28,29
 151.88822409 811.346952551 151.88822409 811.346952551 474.27115771 1168.83870728 c 2,30,-1
 496.038453387 1192.97655055 l 1,31,-1
 470.237254549 1212.74391704 l 1,32,-1
 437.028069096 1238.18684872 l 1,14,-1
EndSplineSet
EndChar

StartChar: afii57398
Encoding: 1638 1638 65
GlifName: afii57398
Width: 1305
VWidth: 2952
GlyphClass: 2
Flags: W
LayerCount: 2
Fore
SplineSet
829.7544016 1195.25178982 m 2,0,1
 802.850422719 1187.87967593 802.850422719 1187.87967593 775.58367849 1181.70877657 c 128,-1,2
 748.316934261 1175.53787721 748.316934261 1175.53787721 720.687606721 1170.56814834 c 128,-1,3
 693.058279182 1165.59841946 693.058279182 1165.59841946 665.068187047 1161.83185431 c 128,-1,4
 637.078094913 1158.06528916 637.078094913 1158.06528916 608.73581442 1155.50254879 c 128,-1,5
 580.393533928 1152.93980842 580.393533928 1152.93980842 551.691929981 1151.58213396 c 128,-1,6
 522.990326035 1150.22445949 522.990326035 1150.22445949 493.946369069 1150.0732171 c 0,7,8
 388.54300567 1150.03936192 388.54300567 1150.03936192 292.944771427 1168.3104677 c 128,-1,9
 197.346537185 1186.58157348 197.346537185 1186.58157348 111.41796875 1222.93477704 c 1,10,-1
 111.41796875 1368.04820845 l 1,11,12
 297.413587148 1291.9875956 297.413587148 1291.9875956 509.86252012 1291.84286337 c 0,13,14
 575.395238713 1292.00332644 575.395238713 1292.00332644 639.380387543 1297.81052974 c 0,15,16
 671.984231641 1301.0595756 671.984231641 1301.0595756 703.71550688 1305.54002654 c 128,-1,17
 735.446782119 1310.02047748 735.446782119 1310.02047748 767.041476792 1315.83576267 c 0,18,19
 830.982105849 1327.7854605 830.982105849 1327.7854605 892.809976435 1345.86135298 c 0,20,21
 913.160159763 1351.58982337 913.160159763 1351.58982337 934.913070732 1358.56113957 c 128,-1,22
 956.665981701 1365.53245577 956.665981701 1365.53245577 976.14201065 1372.52677056 c 1,23,24
 989.989095928 517.091396931 989.989095928 517.091396931 1123.13988201 41.5537109375 c 1,25,-1
 997.967552275 41.5537109375 l 1,26,27
 940.42166847 283.671689608 940.42166847 283.671689608 908.864021343 563.676411559 c 128,-1,28
 877.306374216 843.68113351 877.306374216 843.68113351 871.468652759 1164.02609847 c 2,29,-1
 871.398340259 1167.88449691 l 1,30,-1
 870.695183776 1206.47020888 l 1,31,-1
 833.475104725 1196.27132107 l 1,32,-1
 829.7544016 1195.25178982 l 2,0,1
EndSplineSet
EndChar

StartChar: afii57399
Encoding: 1639 1639 66
GlifName: afii57399
Width: 1301
VWidth: 2952
GlyphClass: 2
Flags: W
LayerCount: 2
Fore
SplineSet
1162.31142046 1316.96540437 m 1,0,1
 852.112143106 699.875064692 852.112143106 699.875064692 709.996720485 41.5537109375 c 1,2,-1
 590.674494546 41.5537109375 l 1,3,4
 444.046593737 695.043601436 444.046593737 695.043601436 138.320743283 1316.83073126 c 1,5,-1
 252.589556853 1374.87263272 l 1,6,7
 511.25365623 813.616486135 511.25365623 813.616486135 621.165122655 320.602973514 c 2,8,-1
 650.489864401 189.065342313 l 1,9,-1
 679.731570213 320.621457874 l 2,10,11
 789.744026036 815.558772558 789.744026036 815.558772558 1048.27072796 1374.88989096 c 1,12,-1
 1162.31142046 1316.96540437 l 1,0,1
EndSplineSet
EndChar

StartChar: afii57400
Encoding: 1640 1640 67
GlifName: afii57400
Width: 1301
VWidth: 2952
GlyphClass: 2
Flags: W
LayerCount: 2
Fore
SplineSet
252.638421771 32.7363487798 m 1,0,-1
 138.314918595 90.8060188369 l 1,1,2
 444.046565314 712.94407419 444.046565314 712.94407419 590.67170254 1366.08105469 c 1,3,-1
 710.158227078 1366.08105469 l 1,4,5
 855.015993113 713.911863709 855.015993113 713.911863709 1162.52580343 90.7784123237 c 1,6,-1
 1048.31281657 32.7654981453 l 1,7,8
 789.742793951 594.372985227 789.742793951 594.372985227 679.730997984 1087.01385553 c 2,9,-1
 650.353670541 1218.56767693 l 1,10,-1
 621.164003377 1086.97208953 l 2,11,12
 511.252415831 591.458391324 511.252415831 591.458391324 252.638421771 32.7363487798 c 1,0,-1
EndSplineSet
EndChar

StartChar: afii57401
Encoding: 1641 1641 68
GlifName: afii57401
Width: 1179
VWidth: 2952
GlyphClass: 2
Flags: W
LayerCount: 2
Fore
SplineSet
509.541490715 645.165045875 m 0,0,1
 414.080391935 645.125513693 414.080391935 645.125513693 344.680266248 664.733481143 c 128,-1,2
 275.280140561 684.341448593 275.280140561 684.341448593 230.126874599 724.597750489 c 128,-1,3
 184.973608637 764.854052385 184.973608637 764.854052385 163.350235918 825.065381642 c 128,-1,4
 141.726863199 885.276710899 141.726863199 885.276710899 141.948240234 967.596593321 c 0,5,6
 141.996910835 1102.43619948 141.996910835 1102.43619948 207.980139012 1208.66451719 c 0,7,8
 320.69265845 1390.02499085 320.69265845 1390.02499085 515.041026398 1390.31543884 c 0,9,10
 611.556320154 1390.2400709 611.556320154 1390.2400709 684.054747262 1362.14932236 c 128,-1,11
 756.553174371 1334.05857382 756.553174371 1334.05857382 807.050594545 1276.25207334 c 128,-1,12
 857.548014719 1218.44557287 857.548014719 1218.44557287 885.099102119 1129.75701007 c 128,-1,13
 912.650189519 1041.06844727 912.650189519 1041.06844727 917.976304125 920.105158231 c 0,14,15
 937.337202468 480.392888506 937.337202468 480.392888506 950.851387491 41.5537109375 c 1,16,-1
 839.142851361 41.5537109375 l 1,17,-1
 826.059200942 683.511689232 l 1,18,-1
 825.093101889 730.913979491 l 1,19,-1
 782.669910028 709.743640298 l 2,20,21
 652.945825555 645.007755296 652.945825555 645.007755296 509.541490715 645.165045875 c 0,0,1
808.236521312 871.906573491 m 1,22,-1
 806.297237193 894.99391363 l 2,23,24
 791.027765499 1074.42985639 791.027765499 1074.42985639 717.211934311 1168.73138625 c 128,-1,25
 643.396103124 1263.03291611 643.396103124 1263.03291611 512.138323184 1258.52529404 c 0,26,27
 394.611828434 1254.48922836 394.611828434 1254.48922836 317.390863381 1151.46707073 c 0,28,29
 297.472545886 1124.56326683 297.472545886 1124.56326683 284.063007092 1095.98959227 c 128,-1,30
 270.653468299 1067.4159177 270.653468299 1067.4159177 263.829495818 1037.0853038 c 128,-1,31
 257.005523338 1006.7546899 257.005523338 1006.7546899 257.008797478 975.192710461 c 0,32,33
 257.544593145 876.123827667 257.544593145 876.123827667 325.189415915 825.378607966 c 128,-1,34
 392.834238686 774.633388266 392.834238686 774.633388266 514.064081603 774.892342278 c 0,35,36
 656.379150839 775.196335563 656.379150839 775.196335563 791.70687839 842.53709021 c 2,37,-1
 809.941307079 851.610767945 l 1,38,-1
 808.236521312 871.906573491 l 1,22,-1
EndSplineSet
EndChar

StartChar: afii57381
Encoding: 1642 1642 69
GlifName: afii57381
Width: 1288
VWidth: 4038
GlyphClass: 2
Flags: W
LayerCount: 2
Fore
SplineSet
779.512695312 345.344726562 m 128,-1,1
 779.512695312 402.636448097 779.512695312 402.636448097 820.632555016 442.994234082 c 0,2,3
 861.097437334 483.4591164 861.097437334 483.4591164 918.698305432 483.840499175 c 0,4,5
 947.612108582 484.031628824 947.612108582 484.031628824 971.647629659 474.024344916 c 128,-1,6
 995.696424168 464.01153456 995.696424168 464.01153456 1016.12989633 443.192724173 c 0,7,8
 1036.56689771 422.754910635 1036.56689771 422.754910635 1046.5262297 398.606886876 c 0,9,10
 1049.83198281 390.592188924 1049.83198281 390.592188924 1052.03556073 382.130161792 c 128,-1,11
 1054.23913865 373.66813466 1054.23913865 373.66813466 1055.37152245 364.441651188 c 128,-1,12
 1056.50390625 355.215167717 1056.50390625 355.215167717 1056.50390625 345.344726562 c 0,13,14
 1056.50390625 287.869591347 1056.50390625 287.869591347 1016.22917937 247.59406281 c 128,-1,15
 975.95347594 207.318359375 975.95347594 207.318359375 918.48046875 207.318359375 c 0,16,17
 889.026897175 207.318359375 889.026897175 207.318359375 865.173831498 217.161502222 c 128,-1,18
 841.32076582 227.004645069 841.32076582 227.004645069 820.613091147 247.712731762 c 0,19,0
 779.512695312 288.051116975 779.512695312 288.051116975 779.512695312 345.344726562 c 128,-1,1
230.96875299 1199.37004637 m 0,20,21
 230.96875299 1256.42903076 230.96875299 1256.42903076 272.101285474 1297.03258432 c 0,22,23
 312.515791971 1337.1524998 312.515791971 1337.1524998 370.172379107 1337.86559131 c 0,24,25
 399.398266922 1337.92182394 399.398266922 1337.92182394 423.233363589 1327.99027436 c 128,-1,26
 447.068460257 1318.05872478 447.068460257 1318.05872478 467.574854449 1297.22959519 c 0,27,28
 507.992896903 1256.62185327 507.992896903 1256.62185327 507.959965794 1199.35304785 c 0,29,30
 507.99287658 1141.51113691 507.99287658 1141.51113691 467.836846688 1101.77191847 c 0,31,32
 457.370187963 1091.51142245 457.370187963 1091.51142245 446.127566506 1083.84723707 c 128,-1,33
 434.884945049 1076.18305169 434.884945049 1076.18305169 423.076040657 1071.13703422 c 128,-1,34
 411.105266211 1066.10668682 411.105266211 1066.10668682 398.004441054 1063.65283759 c 128,-1,35
 384.903615897 1061.19898836 384.903615897 1061.19898836 370.003184777 1061.34545339 c 0,36,37
 363.373953315 1061.31277382 363.373953315 1061.31277382 357.112278742 1061.75833888 c 128,-1,38
 350.850604169 1062.20390394 350.850604169 1062.20390394 344.854452151 1063.13678102 c 128,-1,39
 338.858300133 1064.06965809 338.858300133 1064.06965809 333.159780983 1065.50943358 c 128,-1,40
 327.461261834 1066.94920907 327.461261834 1066.94920907 321.994162928 1068.88997908 c 128,-1,41
 316.527064023 1070.8307491 316.527064023 1070.8307491 311.285285851 1073.30806939 c 128,-1,42
 306.043507679 1075.78538968 306.043507679 1075.78538968 300.999047441 1078.77738701 c 128,-1,43
 295.954587203 1081.76938434 295.954587203 1081.76938434 291.063135564 1085.32758381 c 128,-1,44
 286.171683924 1088.88578328 286.171683924 1088.88578328 281.443447908 1092.9723423 c 128,-1,45
 276.715211892 1097.05890133 276.715211892 1097.05890133 272.070060453 1101.74031627 c 0,46,47
 230.96875299 1141.70409366 230.96875299 1141.70409366 230.96875299 1199.37004637 c 0,20,21
908.568301315 1412.60328799 m 1,48,-1
 1008.53636331 1361.09951315 l 1,49,-1
 342.450547412 74.7746674292 l 1,50,-1
 242.242968696 129.841839811 l 1,51,-1
 908.568301315 1412.60328799 l 1,48,-1
EndSplineSet
EndChar

StartChar: uni066B
Encoding: 1643 1643 70
GlifName: uni066B_
Width: 822
VWidth: 2952
GlyphClass: 2
Flags: W
LayerCount: 2
Fore
SplineSet
548.374832671 778.784238997 m 1,0,-1
 624.51387345 746.462493042 l 1,1,-1
 184.210172166 -269.563127803 l 1,2,-1
 105.868558653 -235.467177776 l 1,3,-1
 548.374832671 778.784238997 l 1,0,-1
EndSplineSet
EndChar

StartChar: uni066C
Encoding: 1644 1644 71
GlifName: uni066C_
Width: 588
VWidth: 2842
GlyphClass: 2
Flags: W
LayerCount: 2
Fore
SplineSet
157.026416176 150.380127991 m 0,0,1
 157.236227686 171.301152663 157.236227686 171.301152663 161.058831426 187.859497556 c 128,-1,2
 164.881435166 204.41784245 164.881435166 204.41784245 171.812656767 216.71901839 c 0,3,4
 176.29770215 224.679274513 176.29770215 224.679274513 182.044874195 231.127106038 c 128,-1,5
 187.79204624 237.574937563 187.79204624 237.574937563 195.307838549 242.914144623 c 128,-1,6
 202.823630858 248.253351684 202.823630858 248.253351684 212.240223393 252.466031125 c 0,7,8
 242.588911705 266.043054322 242.588911705 266.043054322 290.717725186 266.182910962 c 0,9,10
 355.133473169 266.46798403 355.133473169 266.46798403 389.012191493 241.335880661 c 128,-1,11
 422.890909818 216.203777292 422.890909818 216.203777292 434.294004227 161.721959665 c 0,12,13
 447.485587907 97.4240381975 447.485587907 97.4240381975 422.708932462 -1.79318956818 c 0,14,15
 369.189877814 -206.335406768 369.189877814 -206.335406768 186.208837656 -363.892303137 c 1,16,-1
 184.319614504 -362.684666221 l 1,17,18
 340.37898547 -192.275566805 340.37898547 -192.275566805 353.439115624 -12.4249141082 c 2,19,-1
 353.961639913 -5.25900605924 l 1,20,-1
 354.201874288 -1.96310762174 l 1,21,-1
 356.604540143 31.0002958663 l 1,22,-1
 323.563158435 30.2091779479 l 1,23,-1
 320.26355281 30.1301743987 l 1,24,-1
 313.092214708 29.9594505743 l 2,25,26
 291.284417692 29.4456519663 291.284417692 29.4456519663 275.731567838 30.2636184527 c 128,-1,27
 260.178717983 31.0815849391 260.178717983 31.0815849391 253.214735469 32.7176738592 c 0,28,29
 201.617168693 43.1296489304 201.617168693 43.1296489304 179.161096921 70.6950875892 c 128,-1,30
 156.70502515 98.260526248 156.70502515 98.260526248 157.026416176 150.380127991 c 0,0,1
EndSplineSet
EndChar

StartChar: afii63167
Encoding: 1645 1645 72
GlifName: afii63167
Width: 1584
VWidth: 2952
GlyphClass: 2
Flags: W
LayerCount: 2
Fore
SplineSet
324.462145328 1008.65136719 m 1,0,-1
 662.741210938 1008.65136719 l 1,1,-1
 664.913085938 1008.65136719 l 1,2,-1
 686.626721466 1008.65136719 l 1,3,-1
 693.411123001 1029.27790019 l 1,4,-1
 694.093836958 1031.35355585 l 1,5,-1
 799.99532428 1353.78872388 l 1,6,-1
 905.902353562 1031.34137675 l 1,7,-1
 906.581064499 1029.27790019 l 1,8,-1
 913.365466034 1008.65136719 l 1,9,-1
 935.079101562 1008.65136719 l 1,10,-1
 937.250976562 1008.65136719 l 1,11,-1
 1275.52983377 1008.65136719 l 1,12,-1
 1002.15373577 808.803461571 l 1,13,-1
 1000.39885296 807.520258447 l 1,14,-1
 982.851902759 794.68960036 l 1,15,-1
 989.579287801 774.019246253 l 1,16,-1
 990.252606604 771.95042796 l 1,17,-1
 1094.69460094 451.100066519 l 1,18,-1
 819.323084556 650.083320767 l 1,19,-1
 817.566248619 651.352852017 l 1,20,-1
 799.995117193 664.05016767 l 1,21,-1
 782.423985764 651.352852022 l 1,22,-1
 780.667443262 650.083532813 l 1,23,-1
 505.298207966 451.100261033 l 1,24,-1
 609.739071599 771.951863528 l 1,25,-1
 610.411923162 774.019246341 l 1,26,-1
 617.139308125 794.689600419 l 1,27,-1
 599.592357952 807.520258462 l 1,28,-1
 597.834632174 808.805540159 l 1,29,-1
 324.462145328 1008.65136719 l 1,0,-1
EndSplineSet
EndChar

StartChar: uni066E
Encoding: 1646 1646 73
GlifName: uni066E_
Width: 1837
VWidth: 2952
GlyphClass: 2
Flags: W
AnchorPoint: "Anchor-10" 1007.36 1415.35 basechar 0
AnchorPoint: "Anchor-7" 957.36 -257.261 basechar 0
LayerCount: 2
Fore
SplineSet
890.911132812 30 m 2,0,1
 502.436637683 30 502.436637683 30 316.260970324 144.443155367 c 128,-1,2
 130.085302965 258.886310734 130.085302965 258.886310734 130.160135179 485.90762687 c 0,3,4
 130.025309295 599.663677595 130.025309295 599.663677595 170.657945895 703.426559526 c 1,5,-1
 278.32450185 657.806679762 l 1,6,7
 265.434500034 619.850557794 265.434500034 619.850557794 259.332198074 584.689270261 c 128,-1,8
 253.229896114 549.527982727 253.229896114 549.527982727 253.424696291 514.457681469 c 0,9,10
 253.19010014 334.137911281 253.19010014 334.137911281 412.009479444 246.102370134 c 128,-1,11
 570.828858749 158.066828987 570.828858749 158.066828987 871.858937064 158.136719884 c 0,12,13
 1126.96991866 158.066560656 1126.96991866 158.066560656 1285.7468009 182.201673513 c 128,-1,14
 1444.52368314 206.336786369 1444.52368314 206.336786369 1517.23094902 259.850430836 c 0,15,16
 1556.24877419 288.251739522 1556.24877419 288.251739522 1575.21018798 335.442033491 c 128,-1,17
 1594.17160178 382.63232746 1594.17160178 382.63232746 1594.380094 445.424932105 c 0,18,19
 1594.19838035 488.278988707 1594.19838035 488.278988707 1586.45488263 543.882930921 c 128,-1,20
 1578.71138491 599.486873135 1578.71138491 599.486873135 1563.56918362 668.522938069 c 1,21,-1
 1674.86556082 695.856722049 l 1,22,23
 1695.25949641 629.447364953 1695.25949641 629.447364953 1705.10333771 571.047086029 c 128,-1,24
 1714.947179 512.646807104 1714.947179 512.646807104 1714.90625235 459.697102698 c 0,25,26
 1714.99381045 238.622017746 1714.99381045 238.622017746 1589.62650273 150.930373621 c 0,27,28
 1416.55728517 30 1416.55728517 30 894.356445312 30 c 2,29,-1
 890.911132812 30 l 2,0,1
EndSplineSet
Substitution2: "'init' Initial Forms in Arabic lookup 13 subtable" uni066E.init
Substitution2: "'medi' Medial Forms in Arabic lookup 11 subtable" uni066E.medi
Substitution2: "'fina' Terminal Forms in Arabic lookup 9 subtable" uni066E.fina
EndChar

StartChar: uni066F
Encoding: 1647 1647 74
GlifName: uni066F_
Width: 1511
VWidth: 2952
GlyphClass: 2
Flags: W
AnchorPoint: "Anchor-10" 121.809 1352.22 basechar 0
AnchorPoint: "Anchor-7" 335.219 -771.353 basechar 0
LayerCount: 2
Fore
SplineSet
1366.86801628 14.8967610069 m 0,0,1
 1330.80709025 -216.376390507 1330.80709025 -216.376390507 1178.14281132 -330.203779076 c 0,2,3
 1025.4785324 -444.031167644 1025.4785324 -444.031167644 746.88525188 -444.060548023 c 0,4,5
 534.361389509 -444.001758573 534.361389509 -444.001758573 400.829175001 -384.743804115 c 0,6,7
 266.357129111 -324.682653729 266.357129111 -324.682653729 199.715089522 -204.913393768 c 0,8,9
 131.958147698 -83.1404283928 131.958147698 -83.1404283928 130.957748088 102.898270991 c 0,10,11
 130.085540244 312.505553036 130.085540244 312.505553036 216.497505897 510.635384151 c 1,12,-1
 324.99458475 467.015042298 l 1,13,14
 289.449804604 373.19611533 289.449804604 373.19611533 271.4156752 291.074094538 c 0,15,16
 249.981241082 195.229762561 249.981241082 195.229762561 250.460551663 110.561736451 c 0,17,18
 251.804105112 -103.530742111 251.804105112 -103.530742111 375.999121068 -213.603950159 c 0,19,20
 500.194137024 -323.677158207 500.194137024 -323.677158207 736.396489973 -323.326054303 c 0,21,22
 834.00460095 -323.052783145 834.00460095 -323.052783145 914.762579493 -306.445962262 c 0,23,24
 995.520558035 -289.839141379 995.520558035 -289.839141379 1058.90320484 -256.723107965 c 0,25,26
 1122.28585164 -223.60707455 1122.28585164 -223.60707455 1167.4123811 -174.536638605 c 0,27,28
 1212.53891055 -125.46620266 1212.53891055 -125.46620266 1238.98910174 -59.60239642 c 0,29,30
 1265.43929292 6.26140982031 1265.43929292 6.26140982031 1272.22738184 87.7004713957 c 2,31,-1
 1272.59554591 92.1174635832 l 1,32,-1
 1276.25685127 136.043416265 l 1,33,-1
 1234.05015879 123.335560994 l 2,34,35
 1190.47886665 110.216843515 1190.47886665 110.216843515 1140.36509225 103.432090545 c 0,36,37
 1090.25131785 96.6473375744 1090.25131785 96.6473375744 1033.52802066 96.317594908 c 0,38,39
 880.273785554 95.2235011734 880.273785554 95.2235011734 808.662861178 155.082324336 c 0,40,41
 737.051936803 214.941147499 737.051936803 214.941147499 735.423362323 340.9748405 c 0,42,43
 735.291569597 354.414365896 735.291569597 354.414365896 736.035417205 367.424956561 c 0,44,45
 736.779264814 380.435547227 736.779264814 380.435547227 738.382115932 392.927060276 c 0,46,47
 739.984967051 405.418573326 739.984967051 405.418573326 742.449303805 417.503623406 c 0,48,49
 773.633903416 570.372497761 773.633903416 570.372497761 847.96708756 646.657709747 c 0,50,51
 885.044818565 685.032251333 885.044818565 685.032251333 933.406108376 704.133009595 c 0,52,53
 981.767398188 723.233767858 981.767398188 723.233767858 1044.02910027 723.433918424 c 0,54,55
 1119.12132715 723.939537151 1119.12132715 723.939537151 1174.58951277 687.509430949 c 0,56,57
 1333.83084486 585.423216725 1333.83084486 585.423216725 1368.96580869 281.251829048 c 0,58,59
 1385.73211947 137.551721541 1385.73211947 137.551721541 1366.86801628 14.8967610069 c 0,0,1
839.452073826 367.981789947 m 0,60,61
 839.792628381 290.260550926 839.792628381 290.260550926 897.825801893 251.683935705 c 0,62,63
 955.858975405 213.107320484 955.858975405 213.107320484 1056.83872344 213.23356894 c 0,64,65
 1145.47768797 214.039471038 1145.47768797 214.039471038 1235.63506573 240.709870036 c 2,66,-1
 1259.95959708 247.905564639 l 1,67,-1
 1256.90698093 273.087748436 l 2,68,69
 1252.0478887 313.172235892 1252.0478887 313.172235892 1244.54688895 349.156009218 c 0,70,71
 1237.04588919 385.139782544 1237.04588919 385.139782544 1226.71913229 417.468189985 c 0,72,73
 1216.39237539 449.796597425 1216.39237539 449.796597425 1203.3378658 477.838991587 c 0,74,75
 1146.35635916 604.030715916 1146.35635916 604.030715916 1037.42996989 603.857398573 c 0,76,77
 1003.52676258 603.899655298 1003.52676258 603.899655298 974.332371619 593.329570056 c 0,78,79
 945.137980659 582.759484814 945.137980659 582.759484814 922.074172206 562.610193252 c 0,80,81
 899.010363753 542.46090169 899.010363753 542.46090169 881.597107197 513.672345311 c 0,82,83
 864.18385064 484.883788933 864.18385064 484.883788933 852.857594956 448.08299005 c 0,84,85
 840.072455838 406.770067436 840.072455838 406.770067436 839.452073826 367.981789947 c 0,60,61
EndSplineSet
Substitution2: "'init' Initial Forms in Arabic lookup 13 subtable" uni066F.init
Substitution2: "'medi' Medial Forms in Arabic lookup 11 subtable" uni066F.medi
Substitution2: "'fina' Terminal Forms in Arabic lookup 9 subtable" uni066F.fina
EndChar

StartChar: uni0670
Encoding: 1648 1648 75
GlifName: uni0670
Width: -29
VWidth: 2574
GlyphClass: 4
Flags: W
AnchorPoint: "Anchor-10" 636.984 1500.61 mark 0
AnchorPoint: "Anchor-9" 636.984 1500.61 mark 0
AnchorPoint: "Anchor-1" 636.984 2087.18 basemark 0
AnchorPoint: "Anchor-1" 636.984 1500.61 mark 0
LayerCount: 2
Fore
SplineSet
608.435546875 1583.26757812 m 1,0,-1
 608.435546875 2004.51660156 l 1,1,-1
 665.533203125 2004.51660156 l 1,2,-1
 665.533203125 1583.26757812 l 1,3,-1
 608.435546875 1583.26757812 l 1,0,-1
EndSplineSet
EndChar

StartChar: uni0674
Encoding: 1652 1652 76
GlifName: uni0674
Width: 711
VWidth: 2537
GlyphClass: 2
Flags: W
LayerCount: 2
Fore
SplineSet
263.809791975 2002.35991292 m 2,0,1
 175.985024876 2070.36770145 175.985024876 2070.36770145 175.783158099 2170.48180186 c 0,2,3
 175.985369695 2253.01054806 175.985369695 2253.01054806 230.573692312 2310.6723091 c 0,4,5
 295.443456888 2379.00093265 295.443456888 2379.00093265 397.011204415 2379.0156252 c 0,6,7
 483.042068913 2379.00147335 483.042068913 2379.00147335 552.910863606 2342.52639826 c 1,8,-1
 553.443851366 2242.68793175 l 1,9,10
 471.477316661 2276.01832576 471.477316661 2276.01832576 410.999041651 2276.26175686 c 0,11,12
 388.404262537 2276.16792343 388.404262537 2276.16792343 369.017790425 2271.99413468 c 128,-1,13
 349.631318313 2267.82034593 349.631318313 2267.82034593 332.982023024 2259.16136733 c 128,-1,14
 316.332727736 2250.50238872 316.332727736 2250.50238872 303.301410612 2237.44412264 c 0,15,16
 287.24962827 2220.85937097 287.24962827 2220.85937097 279.230760083 2200.7733343 c 128,-1,17
 271.211891895 2180.68729762 271.211891895 2180.68729762 271.494042444 2157.75696735 c 0,18,19
 273.212998198 2072.25450495 273.212998198 2072.25450495 396.040447838 2029.62405521 c 0,20,21
 410.224137466 2024.74911484 410.224137466 2024.74911484 426.610472572 2026.38014727 c 0,22,23
 472.447259975 2031.7178227 472.447259975 2031.7178227 579.747070312 2050.64762752 c 1,24,-1
 579.747070312 1945.02140523 l 1,25,-1
 173.286132812 1853.76831649 l 1,26,-1
 173.286132812 1956.33748305 l 1,27,-1
 257.998468805 1975.88403968 l 1,28,-1
 288.817267075 1982.99518092 l 1,29,-1
 263.809791975 2002.35991292 l 2,0,1
EndSplineSet
EndChar

StartChar: uni06A1
Encoding: 1697 1697 80
GlifName: uni06A_1
Width: 1851
VWidth: 2952
GlyphClass: 2
Flags: W
AnchorPoint: "Anchor-10" 670.853 1630.62 basechar 0
AnchorPoint: "Anchor-7" 653.182 -352.248 basechar 0
LayerCount: 2
Fore
SplineSet
1717.55876922 473.264180324 m 0,0,1
 1716.08243471 205.058480514 1716.08243471 205.058480514 1594.23079949 113.637301818 c 0,2,3
 1540.03899281 73.2350166824 1540.03899281 73.2350166824 1438.38522425 51.6175083412 c 0,4,5
 1336.73145568 30 1336.73145568 30 1190.20996094 30 c 2,6,-1
 859.911132812 30 l 2,7,8
 486.612525888 30 486.612525888 30 307.848840543 144.219012859 c 0,9,10
 129.085155198 258.438025718 129.085155198 258.438025718 129.160135179 485.90762687 c 0,11,12
 129.092934023 542.606963034 129.092934023 542.606963034 139.362908829 597.447928626 c 0,13,14
 149.632883635 652.288894218 149.632883635 652.288894218 169.657945895 703.426559526 c 1,15,-1
 277.504910748 657.730237899 l 1,16,17
 252.039780759 581.785263421 252.039780759 581.785263421 252.433481517 511.210855622 c 0,18,19
 252.194585806 333.097423412 252.194585806 333.097423412 404.776248277 245.693406461 c 0,20,21
 557.357910748 158.289389509 557.357910748 158.289389509 846.135887398 158.159182738 c 2,22,-1
 1201.35066152 157.999023438 l 2,23,24
 1401.70128562 157.999528159 1401.70128562 157.999528159 1510.73712803 211.160337911 c 0,25,26
 1619.77297044 264.321147662 1619.77297044 264.321147662 1620.92071093 377.867558118 c 0,27,28
 1621.01303142 388.347087391 1621.01303142 388.347087391 1619.95902886 399.011248548 c 2,29,-1
 1616.36043084 435.421054842 l 1,30,-1
 1581.36144706 424.758267376 l 2,31,32
 1537.6919004 411.453906947 1537.6919004 411.453906947 1487.57389494 404.667222858 c 0,33,34
 1437.45588947 397.880538769 1437.45588947 397.880538769 1381.16885693 397.76952362 c 0,35,36
 1228.59341381 397.878340417 1228.59341381 397.878340417 1156.88717014 457.820296004 c 0,37,38
 1085.18092647 517.76225159 1085.18092647 517.76225159 1082.82445552 642.712632365 c 0,39,40
 1082.0608871 682.146000779 1082.0608871 682.146000779 1089.88342838 719.087033199 c 0,41,42
 1117.82078702 868.56099916 1117.82078702 868.56099916 1195.36566836 948.101992369 c 0,43,44
 1269.71216023 1024.98915515 1269.71216023 1024.98915515 1391.32645153 1024.88479405 c 0,45,46
 1466.17800333 1024.98782801 1466.17800333 1024.98782801 1522.02929563 988.938788174 c 0,47,48
 1599.26380642 938.970644717 1599.26380642 938.970644717 1646.78800446 840.5897054 c 0,49,50
 1694.31220251 742.208766084 1694.31220251 742.208766084 1710.33235676 593.052710739 c 0,51,52
 1711.28965929 583.918443381 1711.28965929 583.918443381 1712.12024132 574.956834591 c 0,53,54
 1712.95082334 565.995225801 1712.95082334 565.995225801 1713.65518006 557.201748545 c 0,55,56
 1714.35953679 548.408271289 1714.35953679 548.408271289 1714.93788011 539.778082577 c 0,57,58
 1715.51622344 531.147893865 1715.51622344 531.147893865 1715.96891632 522.680749308 c 0,59,60
 1716.42160921 514.21360475 1716.42160921 514.21360475 1716.74900463 505.900093203 c 0,61,62
 1717.07640005 497.586581655 1717.07640005 497.586581655 1717.27871989 489.431026883 c 0,63,64
 1717.48103973 481.27547211 1717.48103973 481.27547211 1717.55876922 473.264180324 c 0,0,1
1186.85832727 669.304782185 m 0,65,66
 1186.94618225 591.58948001 1186.94618225 591.58948001 1245.07741013 552.952361167 c 0,67,68
 1303.20863801 514.315242323 1303.20863801 514.315242323 1404.20163916 514.684782272 c 0,69,70
 1492.45328966 515.016528366 1492.45328966 515.016528366 1583.14145585 542.191147758 c 2,71,-1
 1607.45006287 549.475197834 l 1,72,-1
 1604.29793496 574.655147208 l 2,73,74
 1596.77831002 634.723704335 1596.77831002 634.723704335 1583.4576107 685.825570064 c 0,75,76
 1570.13691138 736.927435792 1570.13691138 736.927435792 1550.75656066 779.259647153 c 0,77,78
 1523.27874563 839.36316396 1523.27874563 839.36316396 1481.2697253 872.241761825 c 0,79,80
 1439.26070496 905.12035969 1439.26070496 905.12035969 1384.80942159 905.308733244 c 0,81,82
 1317.11853005 905.12677003 1317.11853005 905.12677003 1270.04639129 864.46649325 c 0,83,84
 1222.97425253 823.806216471 1222.97425253 823.806216471 1200.27612878 749.578106801 c 0,85,86
 1197.03415666 739.335673734 1197.03415666 739.335673734 1194.5603995 729.189093323 c 0,87,88
 1192.08664234 719.042512911 1192.08664234 719.042512911 1190.38161897 708.976631806 c 0,89,90
 1188.67659559 698.9107507 1188.67659559 698.9107507 1187.78774615 688.941266102 c 0,91,92
 1186.89889672 678.971781505 1186.89889672 678.971781505 1186.85832727 669.304782185 c 0,65,66
EndSplineSet
Substitution2: "'init' Initial Forms in Arabic lookup 13 subtable" uni06A1.init
Substitution2: "'medi' Medial Forms in Arabic lookup 11 subtable" uni06A1.medi
Substitution2: "'fina' Terminal Forms in Arabic lookup 9 subtable" uni06A1.fina
EndChar

StartChar: uni06A9
Encoding: 1705 1705 81
GlifName: uni06A_9
Width: 1898
VWidth: 2952
GlyphClass: 2
Flags: W
AnchorPoint: "Anchor-7" 750.268 -236.468 basechar 0
AnchorPoint: "Anchor-10" 693.878 1374.89 basechar 0
LayerCount: 2
Fore
SplineSet
862.553710938 30 m 2,0,1
 487.915045916 30 487.915045916 30 308.500106387 144.236698101 c 128,-1,2
 129.085166857 258.473396202 129.085166857 258.473396202 129.160135179 485.90762687 c 0,3,4
 129.092934023 542.606963034 129.092934023 542.606963034 139.362908829 597.447928626 c 128,-1,5
 149.632883635 652.288894218 149.632883635 652.288894218 169.657945895 703.426559526 c 1,6,-1
 277.504910748 657.730237899 l 1,7,8
 264.787666453 619.803441775 264.787666453 619.803441775 258.511691264 583.233489788 c 128,-1,9
 252.235716075 546.663537802 252.235716075 546.663537802 252.433945918 511.129052617 c 0,10,11
 253.299567708 332.482308165 253.299567708 332.482308165 409.950284913 245.237736114 c 128,-1,12
 566.601002118 157.993164062 566.601002118 157.993164062 862.553710938 157.993164062 c 2,13,-1
 1043.2748858 157.993164066 l 2,14,15
 1130.55265143 157.994536485 1130.55265143 157.994536485 1201.29581377 165.4214306 c 128,-1,16
 1272.03897612 172.848324715 1272.03897612 172.848324715 1329.81799068 189.219780102 c 128,-1,17
 1387.59700523 205.591235489 1387.59700523 205.591235489 1426.51853972 230.733579491 c 128,-1,18
 1465.44007421 255.875923493 1465.44007421 255.875923493 1486.42574286 292.273400621 c 128,-1,19
 1507.41141151 328.670877748 1507.41141151 328.670877748 1507.21672329 375.184610409 c 0,20,21
 1506.97128026 485.999925517 1506.97128026 485.999925517 1394.1282467 592.076727931 c 0,22,23
 1340.51350795 641.727765587 1340.51350795 641.727765587 1292.25056022 684.630863246 c 128,-1,24
 1243.98761249 727.533960905 1243.98761249 727.533960905 1200.65925415 764.04490679 c 128,-1,25
 1157.33089582 800.555852674 1157.33089582 800.555852674 1118.93918139 830.65829681 c 0,26,27
 1016.92099795 909.761540304 1016.92099795 909.761540304 1016.41048463 1004.6552148 c 0,28,29
 1016.29366864 1022.42539581 1016.29366864 1022.42539581 1019.62270227 1038.45708341 c 128,-1,30
 1022.9517359 1054.48877101 1022.9517359 1054.48877101 1029.77480689 1069.12308538 c 128,-1,31
 1036.59787787 1083.75739975 1036.59787787 1083.75739975 1047.09207893 1097.47184996 c 0,32,33
 1063.25842772 1118.59279385 1063.25842772 1118.59279385 1085.70860014 1134.91664744 c 128,-1,34
 1108.15877255 1151.24050104 1108.15877255 1151.24050104 1137.67912083 1162.96388365 c 2,35,-1
 1809.86328125 1429.90762117 l 1,36,-1
 1809.86328125 1299.94922099 l 1,37,-1
 1139.93780367 1038.17134293 l 1,38,-1
 1135.11282748 1036.07523775 l 1,39,-1
 1090.58830881 1016.73253628 l 1,40,-1
 1127.80294193 985.561332501 l 2,41,42
 1387.30634349 768.19969989 1387.30634349 768.19969989 1507.24952202 639.27585219 c 0,43,44
 1628.8403967 507.450206389 1628.8403967 507.450206389 1626.71386115 350.848319313 c 0,45,46
 1625.20784448 272.212374924 1625.20784448 272.212374924 1590.35462743 213.104057672 c 128,-1,47
 1555.50141038 153.99574042 1555.50141038 153.99574042 1484.94413205 112.827533498 c 128,-1,48
 1414.38685371 71.6593265761 1414.38685371 71.6593265761 1304.03965695 50.8296632881 c 128,-1,49
 1193.69246018 30 1193.69246018 30 1044.10449219 30 c 2,50,-1
 862.553710938 30 l 2,0,1
EndSplineSet
Substitution2: "'init' Initial Forms in Arabic lookup 13 subtable" uniFB90
Substitution2: "'medi' Medial Forms in Arabic lookup 11 subtable" uniFB91
Substitution2: "'fina' Terminal Forms in Arabic lookup 9 subtable" uniFB8F
EndChar

StartChar: afii57514
Encoding: 1722 1722 83
GlifName: afii57514
Width: 1475
VWidth: 2952
GlyphClass: 2
Flags: W
AnchorPoint: "Anchor-10" 727.479 1187.75 basechar 0
AnchorPoint: "Anchor-7" 758.023 -733.042 basechar 0
LayerCount: 2
Fore
SplineSet
716.535356465 -319.695150797 m 0,0,1
 964.173159662 -318.812359153 964.173159662 -318.812359153 1092.85813777 -198.675923152 c 128,-1,2
 1221.54311588 -78.5394871508 1221.54311588 -78.5394871508 1221.03710882 153.435498846 c 0,3,4
 1221.00177056 335.862719079 1221.00177056 335.862719079 1142.22449131 512.712304101 c 1,5,-1
 1256.78526471 552.738137495 l 1,6,7
 1341.97255179 330.341307012 1341.97255179 330.341307012 1341.67891689 152.277178104 c 0,8,9
 1341.01525001 -26.8288476815 1341.01525001 -26.8288476815 1277.47770153 -155.712205666 c 0,10,11
 1136.38109884 -440.976358266 1136.38109884 -440.976358266 707.042958262 -440.43164831 c 0,12,13
 415.343256409 -440.222850706 415.343256409 -440.222850706 274.476446666 -310.252392577 c 128,-1,14
 133.609636923 -180.281934449 133.609636923 -180.281934449 133.249979415 86.6288942137 c 0,15,16
 133.021363232 281.781382852 133.021363232 281.781382852 220.066879569 504.432230572 c 1,17,-1
 327.414577783 461.273962521 l 1,18,19
 289.550784462 359.857942606 289.550784462 359.857942606 270.96906463 266.360775748 c 128,-1,20
 252.387344798 172.863608889 252.387344798 172.863608889 252.753465243 84.878360332 c 0,21,22
 253.948574497 -115.128704808 253.948574497 -115.128704808 372.732464589 -217.752162649 c 128,-1,23
 491.516354681 -320.37562049 491.516354681 -320.37562049 716.535356465 -319.695150797 c 0,0,1
EndSplineSet
Substitution2: "'init' Initial Forms in Arabic lookup 13 subtable" uni06BA.init
Substitution2: "'medi' Medial Forms in Arabic lookup 11 subtable" uni06BA.medi
Substitution2: "'fina' Terminal Forms in Arabic lookup 9 subtable" uniFB9F
EndChar

StartChar: uni06F4
Encoding: 1780 1780 90
GlifName: uni06F_4
Width: 1244
VWidth: 2952
GlyphClass: 2
Flags: W
LayerCount: 2
Fore
SplineSet
1048.02739489 1362.82688027 m 1,0,-1
 1019.25372597 1247.45902236 l 1,1,2
 985 1258 985 1258 950.653411707 1263.58345346 c 0,3,4
 916 1269 916 1269 880.2566356 1268.92675026 c 0,5,6
 767 1269 767 1269 689.209810821 1211.84132722 c 0,7,8
 562 1116 562 1116 546.827554735 970.330960286 c 0,9,10
 543 934 543 934 569.176248489 904.971843417 c 0,11,12
 595 876 595 876 643.652096021 851.052225266 c 0,13,14
 683 831 683 831 735.147228406 820.671002352 c 0,15,16
 787 811 787 811 852.937081278 810.590676796 c 0,17,18
 978 811 978 811 1090.36725497 849.264942894 c 1,19,-1
 1105.67481192 734.666215806 l 1,20,21
 996 691 996 691 873.255853852 691.181659469 c 0,22,23
 561 692 561 692 432.295898438 886.8515625 c 5,24,-1
 447.491090278 801.709912618 l 1,25,-1
 449.014377758 791.169753153 l 2,26,27
 471 639 471 639 475.341643282 548.493460535 c 0,28,29
 484.115234375 342.291698355 484.115234375 342.291698355 484.115234375 308.771484375 c 2,30,-1
 484.115234375 41.5537109375 l 1,31,-1
 364.796387315 41.5537109375 l 1,32,-1
 364.791990703 311.908529325 l 2,33,34
 365 954 365 954 186.342424252 1340.71553897 c 1,35,-1
 291.084192819 1377.63715369 l 1,36,37
 348 1222 348 1222 405.08203125 1067.33203125 c 2,38,-1
 422.931640625 997.983398438 l 1,39,-1
 438.443359375 1044.29589844 l 2,40,41
 512 1265 512 1265 667.416061425 1353.26508714 c 0,42,43
 695 1369 695 1369 724.51483587 1379.088179 c 128,-1,44
 754 1389 754 1389 786.9389644 1394.49153187 c 0,45,46
 819 1400 819 1400 854.940791568 1399.43183166 c 0,47,48
 956 1399 956 1399 1048.02739489 1362.82688027 c 1,0,-1
EndSplineSet
EndChar

StartChar: uni06F5
Encoding: 1781 1781 91
GlifName: uni06F_5
Width: 1328
VWidth: 2952
GlyphClass: 2
Flags: W
LayerCount: 2
Fore
SplineSet
253.96581988 339.408319611 m 0,0,1
 253.96581988 260.024940393 253.96581988 260.024940393 291.049764187 213.982457954 c 128,-1,2
 328.133708495 167.939975514 328.133708495 167.939975514 398.082918025 167.844743775 c 0,3,4
 561.396417758 168.019689517 561.396417758 168.019689517 633.804634969 482.56255804 c 1,5,-1
 708.912076821 482.49883316 l 1,6,7
 769.112152436 163.990142778 769.112152436 163.990142778 939.234180081 164.079110117 c 0,8,9
 1005.75782047 164.028871766 1005.75782047 164.028871766 1039.87417431 211.513540079 c 128,-1,10
 1073.99052814 258.998208393 1073.99052814 258.998208393 1073.97877209 339.67411907 c 0,11,12
 1074.00081118 676.392420177 1074.00081118 676.392420177 650.25322392 1101.74341981 c 2,13,-1
 625.93443412 1126.15422912 l 1,14,-1
 605.103149393 1098.70703026 l 2,15,16
 253.96581988 636.050202412 253.96581988 636.050202412 253.96581988 339.408319611 c 0,0,1
383.446995866 41.9833985087 m 0,17,18
 258.644062576 41.9833985087 258.644062576 41.9833985087 198.885879044 113.304433956 c 128,-1,19
 139.127695512 184.625469404 139.127695512 184.625469404 139.242180465 339.365270928 c 0,20,21
 139.006946523 682.866583577 139.006946523 682.866583577 517.87596931 1191.64676803 c 2,22,-1
 519.476555247 1193.7961821 l 1,23,-1
 535.486441598 1215.2957306 l 1,24,-1
 515.917272019 1233.61497318 l 1,25,-1
 513.959364589 1235.44782462 l 1,26,-1
 480.17572271 1267.07109326 l 1,27,-1
 566.215224938 1372.20899696 l 1,28,-1
 667.858825805 1275.78688993 l 1,29,30
 1189.44199935 762.972970167 1189.44199935 762.972970167 1189.44199935 349.279189585 c 0,31,32
 1189.33716076 189.115351891 1189.33716076 189.115351891 1131.48049132 115.542120025 c 128,-1,33
 1073.62382187 41.9688881582 1073.62382187 41.9688881582 954.318138828 41.9433581513 c 0,34,35
 894.782882143 41.9603624449 894.782882143 41.9603624449 847.713622619 64.182916671 c 128,-1,36
 800.644363096 86.405470897 800.644363096 86.405470897 763.693871659 133.451573312 c 128,-1,37
 726.743380221 180.497675728 726.743380221 180.497675728 700.455422629 253.438239996 c 2,38,-1
 671.072285788 334.966923756 l 1,39,-1
 643.761124842 252.720978604 l 2,40,41
 607.80728017 144.448102811 607.80728017 144.448102811 543.834892877 93.2157506599 c 128,-1,42
 479.862505583 41.9833985087 479.862505583 41.9833985087 383.446995866 41.9833985087 c 0,17,18
EndSplineSet
EndChar

StartChar: uni06F6
Encoding: 1782 1782 92
GlifName: uni06F_6
Width: 1104
VWidth: 2952
GlyphClass: 2
Flags: W
LayerCount: 2
Fore
SplineSet
726.884268258 1257.16067194 m 1,0,1
 684.906850245 1260.11364275 684.906850245 1260.11364275 637.749481493 1260.46609276 c 0,2,3
 432.485838033 1259.96724545 432.485838033 1259.96724545 346.558760502 1163.15761166 c 0,4,5
 282.061290742 1090.45872639 282.061290742 1090.45872639 281.594574085 1003.81812101 c 0,6,7
 281.689781914 953.364854 281.689781914 953.364854 299.888342013 913.069296638 c 128,-1,8
 318.086902111 872.773739276 318.086902111 872.773739276 352.243908455 843.988607959 c 128,-1,9
 386.400914799 815.203476641 386.400914799 815.203476641 436.485852509 796.016760669 c 128,-1,10
 486.57079022 776.830044697 486.57079022 776.830044697 549.367699107 767.661756289 c 128,-1,11
 612.164607994 758.493467881 612.164607994 758.493467881 688.714027345 758.36430052 c 2,12,-1
 692.149707028 758.35850325 l 1,13,-1
 695.497742891 759.129596208 l 1,14,-1
 696.812196015 759.432330584 l 1,15,-1
 700.812557303 760.35366194 l 1,16,-1
 704.418356596 762.31579174 l 2,17,18
 782.496993694 804.803020824 782.496993694 804.803020824 843.564887443 836.256686009 c 128,-1,19
 904.632781192 867.710351193 904.632781192 867.710351193 945.71392585 886.679437136 c 1,20,-1
 950.756871838 764.409327292 l 1,21,22
 539.047292683 568.248935372 539.047292683 568.248935372 301.337948113 8.89412688987 c 1,23,-1
 188.891638786 46.5544432818 l 1,24,25
 340.7744912 412.175127808 340.7744912 412.175127808 545.71689561 614.312004091 c 2,26,-1
 591.42006722 659.389529028 l 1,27,-1
 527.521564891 665.533188342 l 2,28,29
 399.756125061 677.817472102 399.756125061 677.817472102 317.510999948 719.857692396 c 128,-1,30
 235.265874834 761.89791269 235.265874834 761.89791269 196.200193638 833.414480172 c 128,-1,31
 157.134512442 904.931047654 157.134512442 904.931047654 157.644539029 1008.77877232 c 0,32,33
 157.974069852 1096.07426224 157.974069852 1096.07426224 193.3516539 1169.24221305 c 0,34,35
 301.579593607 1387.90806539 301.579593607 1387.90806539 605.859093078 1386.40840472 c 0,36,37
 670.608004753 1386.07812355 670.608004753 1386.07812355 744.31813616 1376.66695019 c 1,38,-1
 726.884268258 1257.16067194 l 1,0,1
EndSplineSet
EndChar

StartChar: uniFB8F
Encoding: 64399 64399 107
GlifName: uniF_B_8F_
Width: 1954
VWidth: 2952
GlyphClass: 2
Flags: W
AnchorPoint: "Anchor-10" 743.878 1374.89 basechar 0
AnchorPoint: "Anchor-7" 750.268 -236.468 basechar 0
LayerCount: 2
Fore
SplineSet
860.911132812 30 m 2,0,1
 487.106360044 30 487.106360044 30 308.095760187 144.226795242 c 128,-1,2
 129.085160329 258.453590484 129.085160329 258.453590484 129.160135179 485.90762687 c 0,3,4
 129.092934023 542.606963034 129.092934023 542.606963034 139.362908829 597.447928626 c 128,-1,5
 149.632883635 652.288894218 149.632883635 652.288894218 169.657945895 703.426559526 c 1,6,-1
 277.504910748 657.730237899 l 1,7,8
 264.787666453 619.803441775 264.787666453 619.803441775 258.511691264 583.233489788 c 128,-1,9
 252.235716075 546.663537802 252.235716075 546.663537802 252.433945918 511.129052617 c 0,10,11
 253.299408048 332.515258762 253.299408048 332.515258762 409.535865172 245.254211412 c 128,-1,12
 565.772322296 157.993164062 565.772322296 157.993164062 860.911132812 157.993164062 c 2,13,-1
 1042.63230916 157.993164066 l 2,14,15
 1505.9080556 158.000471765 1505.9080556 158.000471765 1506.57393492 374.987666748 c 0,16,17
 1507.05672413 485.974926686 1507.05672413 485.974926686 1393.44770523 592.111802008 c 0,18,19
 1233.4740427 740.857363944 1233.4740427 740.857363944 1118.32601924 830.635191527 c 0,20,21
 1083.01973935 858.235276657 1083.01973935 858.235276657 1060.07998331 887.084255054 c 128,-1,22
 1037.14022727 915.93323345 1037.14022727 915.93323345 1026.48725204 944.812541177 c 128,-1,23
 1015.83427682 973.691848904 1015.83427682 973.691848904 1015.76867314 1004.43450777 c 0,24,25
 1015.9613509 1056.50059093 1015.9613509 1056.50059093 1046.44883008 1097.47054829 c 0,26,27
 1080.14229115 1140.3695337 1080.14229115 1140.3695337 1137.03654271 1162.96388365 c 2,28,-1
 1809.22070312 1429.90762117 l 1,29,-1
 1809.22070312 1299.94922099 l 1,30,-1
 1139.29522554 1038.17134293 l 1,31,-1
 1134.47024935 1036.07523775 l 1,32,-1
 1089.88541253 1016.70633238 l 1,33,-1
 1127.18821659 985.538031506 l 2,34,35
 1387.28826159 768.211836747 1387.28826159 768.211836747 1506.62028373 639.261562806 c 0,36,37
 1544.51592736 598.406142065 1544.51592736 598.406142065 1575.30191618 544.887776893 c 128,-1,38
 1606.08790499 491.369411722 1606.08790499 491.369411722 1629.66716694 424.800368991 c 0,39,40
 1660.42427991 338.587967508 1660.42427991 338.587967508 1705.60051451 279.445372397 c 128,-1,41
 1750.7767491 220.302777287 1750.7767491 220.302777287 1811.41998431 189.147970675 c 128,-1,42
 1872.06321953 157.993164063 1872.06321953 157.993164063 1945.76367188 157.993164062 c 2,43,-1
 1948.62332187 157.993164062 l 1,44,45
 1952.17382812 140.709350077 1952.17382812 140.709350077 1952.17382812 107.174804688 c 2,46,-1
 1952.17388624 88.363742502 l 2,47,48
 1952.09723872 49.4267964998 1952.09723872 49.4267964998 1948.09320765 30 c 1,49,-1
 1945.65722656 30 l 2,50,51
 1849.14495285 30 1849.14495285 30 1771.17472434 70.6811440824 c 128,-1,52
 1693.20449583 111.362288165 1693.20449583 111.362288165 1630.87751971 194.734210364 c 2,53,-1
 1605.01545617 229.328700322 l 1,54,-1
 1581.62794512 193.015487947 l 2,55,56
 1476.63788017 30 1476.63788017 30 1043.46191406 30 c 2,57,-1
 860.911132812 30 l 2,0,1
EndSplineSet
EndChar

StartChar: uniFB9F
Encoding: 64415 64415 115
GlifName: uniF_B_9F_
Width: 1549
VWidth: 2952
GlyphClass: 2
Flags: W
AnchorPoint: "Anchor-10" 703.458 1366.61 basechar 0
AnchorPoint: "Anchor-7" 595.902 -800.086 basechar 0
LayerCount: 2
Fore
SplineSet
1339.92058793 56.249711118 m 2,0,1
 1339.04567177 -75.0462264596 1339.04567177 -75.0462264596 1276.87321373 -203.899149112 c 0,2,3
 1136.21155089 -493.988453514 1136.21155089 -493.988453514 707.316429839 -493.72461248 c 0,4,5
 414.589685102 -493.857786436 414.589685102 -493.857786436 273.230685306 -362.017113839 c 128,-1,6
 131.87168551 -230.176441242 131.87168551 -230.176441242 131.753292248 41.0080322825 c 0,7,8
 131.978887747 228.441106363 131.978887747 228.441106363 219.62913146 451.117359099 c 1,9,-1
 326.953677325 407.969823238 l 1,10,11
 252.009161294 207.223822146 252.009161294 207.223822146 252.268671801 42.8808143135 c 0,12,13
 252.173730773 -93.4748789126 252.173730773 -93.4748789126 305.282684355 -186.535300991 c 128,-1,14
 358.391637937 -279.595723069 358.391637937 -279.595723069 461.418878333 -326.36430667 c 128,-1,15
 564.44611873 -373.13289027 564.44611873 -373.13289027 714.41347191 -373.203454252 c 0,16,17
 961.667311174 -373.097458485 961.667311174 -373.097458485 1090.70269239 -252.475023193 c 128,-1,18
 1219.73807361 -131.852587902 1219.73807361 -131.852587902 1220.55484497 101.861108175 c 0,19,20
 1220.9788821 277.230008688 1220.9788821 277.230008688 1141.69527933 454.40181101 c 1,21,-1
 1254.07890436 493.666310828 l 1,22,-1
 1317.73427646 298.81735022 l 2,23,24
 1332.72699461 252.335047467 1332.72699461 252.335047467 1363.87399809 220.648387496 c 128,-1,25
 1395.02100157 188.961727525 1395.02100157 188.961727525 1439.07983522 173.480375481 c 128,-1,26
 1483.13866887 157.999023438 1483.13866887 157.999023438 1539.02050781 157.999023438 c 2,27,-1
 1544.96486716 157.999023438 l 1,28,29
 1548.21875 141.874121296 1548.21875 141.874121296 1548.21875 111.889648438 c 2,30,-1
 1548.21884203 88.38583401 l 2,31,32
 1548.12236963 49.4389782946 1548.12236963 49.4389782946 1544.11442637 30 c 1,33,34
 1440.96644847 30 1440.96644847 30 1390.56763289 77.8138123627 c 2,35,-1
 1340.38155631 125.425797309 l 1,36,-1
 1339.92058793 56.249711118 l 2,0,1
EndSplineSet
EndChar

StartChar: uniFBE8
Encoding: 64488 64488 118
GlifName: uniF_B_E_8
Width: 646
VWidth: 2952
GlyphClass: 2
Flags: W
AnchorPoint: "Anchor-10" 311.384 1353 basechar 0
AnchorPoint: "Anchor-7" 303.422 -223.625 basechar 0
LayerCount: 2
Fore
SplineSet
68.673828125 30 m 2,0,-1
 -6.9384765625 30 l 2,1,2
 -25.217555692 30 -25.217555692 30 -35.0841874028 34.6597706424 c 0,3,4
 -44.9508191136 39.3195412849 -44.9508191136 39.3195412849 -49.864569713 51.9473147259 c 0,5,6
 -54.7783203125 64.575088167 -54.7783203125 64.575088167 -54.7783203125 88.3134765625 c 2,7,-1
 -54.7784331538 107.259040648 l 2,8,9
 -54.86105975 137.384260819 -54.86105975 137.384260819 -44.9165358117 147.688712441 c 0,10,11
 -34.9720118735 157.993164062 -34.9720118735 157.993164062 -6.9384765625 157.993164062 c 2,12,-1
 68.6858822632 157.993164091 l 2,13,14
 232.933464169 158.000346915 232.933464169 158.000346915 296.517734614 194.15537645 c 0,15,16
 396.975208668 252.754230307 396.975208668 252.754230307 397.221627604 425.090081282 c 0,17,18
 397.119001113 480.165243454 397.119001113 480.165243454 389.324021716 541.365776204 c 0,19,20
 381.529042319 602.566308955 381.529042319 602.566308955 366.51456494 667.626429979 c 1,21,-1
 476.860450761 694.726133514 l 1,22,23
 516.026751593 557.489516138 516.026751593 557.489516138 516.22364488 428.355033243 c 0,24,25
 516.01347669 194.038609517 516.01347669 194.038609517 390.471890613 100.18048347 c 0,26,27
 345.804891157 66.3129957989 345.804891157 66.3129957989 264.969494537 48.1564978994 c 0,28,29
 184.134097917 30 184.134097917 30 68.673828125 30 c 2,0,-1
EndSplineSet
EndChar

StartChar: uniFBE9
Encoding: 64489 64489 119
GlifName: uniF_B_E_9
Width: 717
VWidth: 2952
GlyphClass: 2
Flags: W
AnchorPoint: "Anchor-10" 315.665 1297.09 basechar 0
AnchorPoint: "Anchor-7" 350.537 -177.742 basechar 0
LayerCount: 2
Fore
SplineSet
714.731445312 88.3408203125 m 2,0,1
 714.731445312 49.020889585 714.731445312 49.020889585 710.73750178 30.0163821106 c 1,2,3
 649.346165342 30.6470265974 649.346165342 30.6470265974 602.669306272 44.9861094411 c 0,4,5
 555.992447201 59.3251922849 555.992447201 59.3251922849 523.39559203 86.5555742477 c 0,6,7
 490.798736859 113.78595621 490.798736859 113.78595621 468.94872209 155.131454595 c 2,8,-1
 446.084875866 198.395366639 l 1,9,-1
 417.900609559 158.393258167 l 2,10,11
 327.438633466 30 327.438633466 30 95.759765625 30 c 2,12,-1
 -8.1171875 30 l 2,13,14
 -34.385239927 30 -34.385239927 30 -44.5817801197 41.7484964588 c 0,15,16
 -54.7783203125 53.4969929177 -54.7783203125 53.4969929177 -54.7783203125 88.3134765625 c 2,17,-1
 -54.7784331811 107.268816217 l 2,18,19
 -54.861457605 137.535424809 -54.861457605 137.535424809 -45.1381723766 147.764294436 c 0,20,21
 -35.4148871482 157.993164062 -35.4148871482 157.993164062 -8.1171875 157.993164062 c 2,22,-1
 91.0135831454 157.993164075 l 2,23,24
 346.799531822 158.000733915 346.799531822 158.000733915 376.034346922 310.638747729 c 0,25,26
 379.595543748 329.86500318 379.595543748 329.86500318 381.366433259 351.710998451 c 0,27,28
 383.13732277 373.556993722 383.13732277 373.556993722 383.293167939 399.259741797 c 0,29,30
 383.145601232 424.843508492 383.145601232 424.843508492 382.311984046 448.794244808 c 0,31,32
 381.478366859 472.744981123 381.478366859 472.744981123 379.937465817 495.690757251 c 2,33,-1
 376.359619243 548.968978451 l 1,34,-1
 481.575364849 561.320896252 l 1,35,-1
 495.4705592 361.459320148 l 2,36,37
 497.447786766 333.916596825 497.447786766 333.916596825 503.550815117 309.687420356 c 0,38,39
 509.653843468 285.458243886 509.653843468 285.458243886 519.701421661 265.07923508 c 0,40,41
 529.748999854 244.700226273 529.748999854 244.700226273 543.561365459 227.937468585 c 0,42,43
 557.373731063 211.174710897 557.373731063 211.174710897 574.91082719 198.402032792 c 0,44,45
 592.447923318 185.629354688 592.447923318 185.629354688 613.379380546 176.78648479 c 0,46,47
 634.310837774 167.943614891 634.310837774 167.943614891 658.747206206 163.230736498 c 0,48,49
 683.183574638 158.517858105 683.183574638 158.517858105 710.653290797 158.037492182 c 1,50,51
 712.667045549 148.127041465 712.667045549 148.127041465 713.69924543 133.429678587 c 0,52,53
 714.731445312 118.732315709 714.731445312 118.732315709 714.731445312 98.322265625 c 2,54,-1
 714.731445312 88.3408203125 l 2,0,1
EndSplineSet
EndChar

StartChar: uniFE73
Encoding: 65139 65139 127
GlifName: uniF_E_73
Width: 742
VWidth: 2952
GlyphClass: 2
Flags: W
AnchorPoint: "Anchor-10" 274.943 1718.47 basechar 0
AnchorPoint: "Anchor-7" 274.943 -172.304 basechar 0
LayerCount: 2
Fore
SplineSet
341.428393325 432.69140625 m 1,0,1
 345.48377264 390.328328755 345.48377264 390.328328755 363.786797005 350.804206088 c 0,2,3
 386.698941134 301.324668834 386.698941134 301.324668834 431.642037133 256.383704657 c 0,4,5
 453.385340101 234.635929369 453.385340101 234.635929369 481.109185232 218.487022946 c 0,6,7
 508.298915265 202.645185622 508.298915265 202.645185622 541.08659435 192.267394306 c 0,8,9
 546.43232591 190.575540391 546.43232591 190.575540391 551.922979043 189.028545838 c 128,-1,10
 557.413632176 187.481551285 557.413632176 187.481551285 563.016424778 186.086790159 c 128,-1,11
 568.619217379 184.692029034 568.619217379 184.692029034 574.370761732 183.438555027 c 0,12,13
 591.513403328 179.703818162 591.513403328 179.703818162 609.961644634 177.228238482 c 0,14,15
 646.381598748 172.342773438 646.381598748 172.342773438 688.00390625 172.342773438 c 2,16,-1
 728.674804688 172.342773438 l 1,17,-1
 728.674804688 41.5537109375 l 1,18,-1
 608.006835938 41.5537109375 l 2,19,20
 429.815985293 41.5537109375 429.815985293 41.5537109375 316.044347969 155.324441715 c 0,21,22
 211.401447355 259.968228734 211.401447355 259.968228734 209.574217983 432.69140625 c 1,23,-1
 341.428393325 432.69140625 l 1,0,1
EndSplineSet
EndChar

StartChar: uniFE8E
Encoding: 65166 65166 153
GlifName: uniF_E_8E_
Width: 571
VWidth: 2952
GlyphClass: 2
Flags: W
AnchorPoint: "Anchor-10" 256.697 1633.11 basechar 0
AnchorPoint: "Anchor-7" 316.078 -239.903 basechar 0
LayerCount: 2
Fore
SplineSet
568.618164062 88.0758493082 m 2,0,1
 569.22791222 49.1079864887 569.22791222 49.1079864887 565.312919699 30 c 1,2,-1
 557.658203125 30 l 2,3,4
 375.826595015 30 375.826595015 30 288.05489907 129.314783606 c 0,5,6
 200.283203125 228.629567212 200.283203125 228.629567212 200.283203125 438.395507812 c 2,7,-1
 200.283203125 1438.171875 l 1,8,-1
 313.598632812 1438.171875 l 1,9,-1
 313.598670728 440.402498774 l 2,10,11
 313.813943395 305.001229297 313.813943395 305.001229297 377.008322515 231.497196679 c 0,12,13
 440.202701635 157.993164062 440.202701635 157.993164062 560.712890625 157.993164062 c 2,14,-1
 565.067031072 157.993164062 l 1,15,16
 568.618164062 140.70882823 568.618164062 140.70882823 568.618164062 107.174804688 c 2,17,-1
 568.618164062 88.0758493082 l 2,0,1
EndSplineSet
EndChar

StartChar: uniFEA2
Encoding: 65186 65186 173
GlifName: uniF_E_A_2
Width: 1366
VWidth: 2952
GlyphClass: 2
Flags: W
AnchorPoint: "Anchor-10" 633.478 1366.07 basechar 0
AnchorPoint: "Anchor-7" 536.833 -922.619 basechar 0
LayerCount: 2
Fore
SplineSet
1225.75686147 633.03122351 m 1,0,-1
 1216.91300809 514.721255577 l 1,1,2
 1126.94884561 507.217231619 1126.94884561 507.217231619 1045.6900626 496.077476594 c 2,3,-1
 1019.76464844 492.523365247 l 1,4,-1
 1019.76464844 466.35546875 l 1,5,-1
 1019.76465974 458.110678219 l 2,6,7
 1019.89198599 311.424496171 1019.89198599 311.424496171 1100.03291171 234.364251096 c 128,-1,8
 1180.17383742 157.30400602 1180.17383742 157.30400602 1330.77109359 158.061903338 c 2,9,-1
 1360.69212789 158.212484247 l 1,10,11
 1363.97851562 141.882213103 1363.97851562 141.882213103 1363.97851562 111.889648438 c 2,12,-1
 1363.97851651 88.3042250538 l 2,13,14
 1363.98807777 49.0026542008 1363.98807777 49.0026542008 1359.99374206 30 c 1,15,-1
 1331.49511719 30 l 2,16,17
 1124.72578588 30 1124.72578588 30 1025.71635865 126.442503844 c 128,-1,18
 926.706931426 222.885007687 926.706931426 222.885007687 926.192284665 424.078691878 c 2,19,-1
 926.162011228 435.913652815 l 1,20,-1
 926.063747951 474.328254853 l 1,21,-1
 888.817907493 464.924071 l 2,22,23
 571.60785855 384.831862485 571.60785855 384.831862485 408.362600251 231.022009098 c 128,-1,24
 245.117341953 77.2121557121 245.117341953 77.2121557121 245.249030281 -149.282471948 c 0,25,26
 245.221935578 -189.398145476 245.221935578 -189.398145476 251.196177268 -225.641809805 c 128,-1,27
 257.170418958 -261.885474134 257.170418958 -261.885474134 268.992653818 -293.787781236 c 128,-1,28
 280.814888679 -325.690088338 280.814888679 -325.690088338 298.352528544 -353.713538768 c 128,-1,29
 315.890168409 -381.736989199 315.890168409 -381.736989199 339.047152123 -405.524054027 c 128,-1,30
 362.204135837 -429.311118855 362.204135837 -429.311118855 390.786774363 -449.205024932 c 128,-1,31
 419.36941289 -469.098931009 419.36941289 -469.098931009 453.342745944 -484.861423109 c 128,-1,32
 487.316078998 -500.623915208 487.316078998 -500.623915208 526.425316672 -512.478946477 c 128,-1,33
 565.534554345 -524.333977746 565.534554345 -524.333977746 609.805837226 -532.162566662 c 128,-1,34
 654.077120106 -539.991155579 654.077120106 -539.991155579 703.194557413 -543.897981585 c 128,-1,35
 752.31199472 -547.804807592 752.31199472 -547.804807592 806.359009109 -547.782708263 c 0,36,37
 1028.92950567 -547.987091894 1028.92950567 -547.987091894 1221.36176862 -465.200632599 c 1,38,-1
 1245.30101085 -583.920472738 l 1,39,40
 1057.6413624 -668.0193241 1057.6413624 -668.0193241 791.54769814 -668.249029696 c 0,41,42
 419.112131305 -668.008463231 419.112131305 -668.008463231 256.011845807 -491.923347364 c 0,43,44
 134.998898214 -361.241896191 134.998898214 -361.241896191 134.980468734 -164.545899179 c 0,45,46
 134.989864695 123.879083098 134.989864695 123.879083098 311.018789851 306.213965168 c 128,-1,47
 487.047715008 488.548847237 487.047715008 488.548847237 847.495496549 568.48799877 c 2,48,-1
 857.495496549 570.705772207 l 1,49,-1
 954.6464056 592.251642755 l 1,50,-1
 861.774868768 627.992394196 l 2,51,52
 858.945258631 629.08134347 858.945258631 629.08134347 855.330557351 630.486854509 c 128,-1,53
 851.715856071 631.892365547 851.715856071 631.892365547 847.31677984 633.614200427 c 128,-1,54
 842.917703609 635.336035306 842.917703609 635.336035306 837.747918518 637.368790104 c 128,-1,55
 832.578133426 639.401544902 832.578133426 639.401544902 826.625229266 641.750202408 c 128,-1,56
 820.672325105 644.098859915 820.672325105 644.098859915 813.96396946 646.752447445 c 128,-1,57
 807.255613815 649.406034975 807.255613815 649.406034975 799.765394982 652.375104081 c 128,-1,58
 792.275176149 655.344173188 792.275176149 655.344173188 784.044763208 658.612182424 c 128,-1,59
 775.814350266 661.88019166 775.814350266 661.88019166 766.803330018 665.46326134 c 128,-1,60
 757.792309769 669.04633102 757.792309769 669.04633102 748.055477695 672.922698983 c 0,61,62
 547.78161932 754.025211432 547.78161932 754.025211432 469.528023806 753.687752923 c 0,63,64
 341.853429577 754.042160423 341.853429577 754.042160423 259.94175455 648.533895416 c 2,65,-1
 246.931496747 631.77572599 l 1,66,-1
 144.347569103 682.420814588 l 1,67,68
 156.401680219 702.196884701 156.401680219 702.196884701 169.236082403 719.862790626 c 128,-1,69
 182.070484588 737.528696552 182.070484588 737.528696552 195.748270892 753.149858096 c 128,-1,70
 209.426057197 768.77101964 209.426057197 768.77101964 223.918675572 782.334692093 c 128,-1,71
 238.411293946 795.898364547 238.411293946 795.898364547 253.810885792 807.462648543 c 128,-1,72
 269.210477639 819.02693254 269.210477639 819.02693254 285.457505999 828.586890487 c 128,-1,73
 301.704534359 838.146848435 301.704534359 838.146848435 318.922125544 845.75277385 c 128,-1,74
 336.139716728 853.358699265 336.139716728 853.358699265 354.23734887 859.013461673 c 128,-1,75
 372.334981012 864.668224081 372.334981012 864.668224081 391.46676533 868.41430988 c 128,-1,76
 410.598549649 872.16039568 410.598549649 872.16039568 430.642979369 874.008481514 c 128,-1,77
 450.68740909 875.856567349 450.68740909 875.856567349 471.827643781 875.841820444 c 0,78,79
 591.117336538 875.991349071 591.117336538 875.991349071 761.850380812 793.060452191 c 0,80,81
 1052.59569329 651.391989715 1052.59569329 651.391989715 1225.75686147 633.03122351 c 1,0,-1
EndSplineSet
EndChar

StartChar: uniFEA3
Encoding: 65187 65187 174
GlifName: uniF_E_A_3
Width: 1337
VWidth: 2952
GlyphClass: 2
Flags: W
AnchorPoint: "Anchor-10" 581.825 1372.07 basechar 0
AnchorPoint: "Anchor-7" 513.524 -234.745 basechar 0
LayerCount: 2
Fore
SplineSet
-6.9384765625 30 m 2,0,1
 -25.217555692 30 -25.217555692 30 -35.0841874028 34.6597706424 c 0,2,3
 -44.9508191136 39.3195412849 -44.9508191136 39.3195412849 -49.864569713 51.9473147259 c 0,4,5
 -54.7783203125 64.575088167 -54.7783203125 64.575088167 -54.7783203125 88.3134765625 c 2,6,-1
 -54.7784331811 107.268816217 l 2,7,8
 -54.8610631285 137.391618137 -54.8610631285 137.391618137 -44.916788558 147.695320787 c 0,9,10
 -34.9725139875 157.999023438 -34.9725139875 157.999023438 -6.9384765625 157.999023438 c 2,11,-1
 52.5430553101 157.999023438 l 2,12,13
 398.239567881 158.000020888 398.239567881 158.000020888 882.763787191 408.180617204 c 2,14,-1
 956.590935629 446.300734392 l 1,15,-1
 1025.02659196 481.636993401 l 1,16,-1
 950.719837194 501.90017317 l 2,17,18
 926.614128799 508.473711528 926.614128799 508.473711528 738.099917332 584.878920296 c 0,19,20
 635.997660607 626.028389284 635.997660607 626.028389284 568.68973912 645.94255276 c 0,21,22
 501.381817634 665.856716236 501.381817634 665.856716236 460.291964734 665.657446601 c 0,23,24
 331.887827173 666.045849227 331.887827173 666.045849227 249.950543613 560.504598541 c 2,25,-1
 236.94028581 543.746429114 l 1,26,-1
 134.355664269 594.391860286 l 1,27,28
 251.406505522 787.062085908 251.406505522 787.062085908 461.377415544 787.812532867 c 0,29,30
 581.118737597 787.989781079 581.118737597 787.989781079 751.860917302 705.030303935 c 0,31,32
 1044.46663198 562.478801911 1044.46663198 562.478801911 1217.62266327 544.814092697 c 1,33,-1
 1216.36446011 425.094950993 l 1,34,35
 1189.85755334 420.128491146 1189.85755334 420.128491146 1157.73595698 410.214386573 c 0,36,37
 1125.61436062 400.300281999 1125.61436062 400.300281999 1088.19662163 385.650652738 c 0,38,39
 1050.77888265 371.001023477 1050.77888265 371.001023477 1006.81888167 351.131345381 c 0,40,41
 962.85888069 331.261667285 962.85888069 331.261667285 913.62406295 306.900398502 c 0,42,43
 864.389245211 282.539129719 864.389245211 282.539129719 807.684593092 252.685407992 c 0,44,45
 596.144146348 141.087318104 596.144146348 141.087318104 404.341878652 85.5436590519 c 0,46,47
 212.539610955 30 212.539610955 30 40.767578125 30 c 2,48,-1
 -6.9384765625 30 l 2,0,1
EndSplineSet
EndChar

StartChar: uniFEA4
Encoding: 65188 65188 175
GlifName: uniF_E_A_4
Width: 1351
VWidth: 2952
GlyphClass: 2
Flags: W
AnchorPoint: "Anchor-7" 513.524 -234.745 basechar 0
AnchorPoint: "Anchor-10" 581.825 1372.07 basechar 0
LayerCount: 2
Fore
SplineSet
950.202166754 502.036389992 m 2,0,1
 941.738557896 504.182904669 941.738557896 504.182904669 884.495891174 526.419954602 c 128,-1,2
 827.253224452 548.657004535 827.253224452 548.657004535 738.099917332 584.878920296 c 0,3,4
 635.997660607 626.028389284 635.997660607 626.028389284 568.68973912 645.94255276 c 128,-1,5
 501.381817634 665.856716236 501.381817634 665.856716236 460.291964734 665.657446601 c 0,6,7
 331.887827173 666.045849227 331.887827173 666.045849227 249.950543613 560.504598541 c 2,8,-1
 236.94028581 543.746429114 l 1,9,-1
 134.355664269 594.391860286 l 1,10,11
 251.406505522 787.062085908 251.406505522 787.062085908 461.377415544 787.812532867 c 0,12,13
 581.118737597 787.989781079 581.118737597 787.989781079 751.860917302 705.030303935 c 0,14,15
 1044.46663198 562.478801911 1044.46663198 562.478801911 1217.62266327 544.814092697 c 1,16,-1
 1216.36193624 424.854802776 l 1,17,18
 1191.98687854 420.026537093 1191.98687854 420.026537093 1161.56196785 410.501720371 c 128,-1,19
 1131.13705716 400.976903648 1131.13705716 400.976903648 1095.28652089 387.108824118 c 128,-1,20
 1059.43598462 373.240744588 1059.43598462 373.240744588 1016.02692821 354.346058103 c 2,21,-1
 997.428292159 346.25061843 l 1,22,23
 1002.84381665 158.279296875 1002.84381665 158.279296875 1316.61132812 158.279296875 c 6,24,-1
 1347.20231146 158.279296875 l 1,25,26
 1350.50585938 141.881768151 1350.50585938 141.881768151 1350.50585938 111.889648438 c 2,27,-1
 1350.50585938 88.2432325471 l 2,28,29
 1350.72582472 48.9246444022 1350.72582472 48.9246444022 1346.75662014 30 c 1,30,-1
 1301.09667969 30 l 2,31,32
 1126.25006192 30 1126.25006192 30 1037.2695129 90.170268413 c 128,-1,33
 948.288963892 150.340536826 948.288963892 150.340536826 933.789047736 271.964513113 c 2,34,-1
 928.748591446 314.243401469 l 1,35,-1
 890.631495056 295.269799727 l 2,36,37
 882.761392206 291.352287344 882.761392206 291.352287344 874.720124602 287.297679247 c 128,-1,38
 866.678856997 283.24307115 866.678856997 283.24307115 858.470920715 279.053689893 c 128,-1,39
 850.262984432 274.864308636 850.262984432 274.864308636 841.882390073 270.537137263 c 128,-1,40
 833.501795714 266.20996589 833.501795714 266.20996589 824.954111973 261.747941431 c 128,-1,41
 816.406428231 257.285916971 816.406428231 257.285916971 807.684593092 252.685407992 c 0,42,43
 596.144146348 141.087318104 596.144146348 141.087318104 404.341878652 85.5436590519 c 128,-1,44
 212.539610955 30 212.539610955 30 40.767578125 30 c 2,45,-1
 -6.9384765625 30 l 2,46,47
 -25.217555692 30 -25.217555692 30 -35.0841874028 34.6597706424 c 128,-1,48
 -44.9508191136 39.3195412849 -44.9508191136 39.3195412849 -49.864569713 51.9473147259 c 128,-1,49
 -54.7783203125 64.575088167 -54.7783203125 64.575088167 -54.7783203125 88.3134765625 c 2,50,-1
 -54.7784331811 107.268816217 l 2,51,52
 -54.8610631285 137.391618137 -54.8610631285 137.391618137 -44.916788558 147.695320787 c 128,-1,53
 -34.9725139875 157.999023438 -34.9725139875 157.999023438 -6.9384765625 157.999023438 c 2,54,-1
 52.5430553101 157.999023438 l 2,55,56
 398.239567881 158.000020888 398.239567881 158.000020888 882.763787191 408.180617204 c 2,57,-1
 956.590935629 446.300734392 l 1,58,-1
 1026.87429108 482.591039555 l 1,59,-1
 950.202166754 502.036389992 l 2,0,1
EndSplineSet
EndChar

StartChar: uniFEAA
Encoding: 65194 65194 181
GlifName: uniF_E_A_A_
Width: 1121
VWidth: 2952
GlyphClass: 2
Flags: W
AnchorPoint: "Anchor-7" 437.24 -239.316 basechar 0
AnchorPoint: "Anchor-10" 598.848 1381.53 basechar 0
LayerCount: 2
Fore
SplineSet
387.571733313 30.8193469311 m 0,0,1
 267.780010518 30.9813874292 267.780010518 30.9813874292 132.096679688 54.595743041 c 1,2,-1
 132.096679688 181.842453142 l 1,3,4
 258.382835313 159.007420999 258.382835313 159.007420999 392.975323917 159.06836 c 0,5,6
 477.666373835 159.051079084 477.666373835 159.051079084 542.565783025 168.000058284 c 128,-1,7
 607.465192216 176.949037484 607.465192216 176.949037484 656.875789689 196.443881189 c 128,-1,8
 706.286387162 215.938724893 706.286387162 215.938724893 732.172895915 249.324867381 c 128,-1,9
 758.059404669 282.711009869 758.059404669 282.711009869 758.088839941 329.103909589 c 0,10,11
 757.991356005 401.433775727 757.991356005 401.433775727 664.422898698 620.205451946 c 2,12,-1
 543.071314551 903.936639139 l 1,13,-1
 652.630988903 954.274832766 l 1,14,-1
 844.768318721 480.569493002 l 2,15,16
 909.48221153 321.2663135 909.48221153 321.2663135 972.804415876 239.629738781 c 128,-1,17
 1036.12662022 157.993164062 1036.12662022 157.993164062 1108.87988281 157.993164062 c 2,18,-1
 1115.04672513 157.993164062 l 1,19,20
 1118.59765625 140.708970438 1118.59765625 140.708970438 1118.59765625 107.174804688 c 2,21,-1
 1118.59765625 88.1474861927 l 2,22,23
 1118.75174004 74.6217719587 1118.75174004 74.6217719587 1118.12772857 63.2260176167 c 128,-1,24
 1117.5037171 51.8302632746 1117.5037171 51.8302632746 1116.13498303 42.1930561129 c 0,25,26
 1115.82484244 40.0093674542 1115.82484244 40.0093674542 1115.37908955 37.3891388 c 128,-1,27
 1114.93333666 34.7689101459 1114.93333666 34.7689101459 1114.57852162 32.8992260741 c 128,-1,28
 1114.22370659 31.0295420024 1114.22370659 31.0295420024 1113.9989552 30 c 2,29,-1
 1108.53222656 30 l 2,30,31
 990.497899247 30 990.497899247 30 888.575375852 190.699819262 c 2,32,-1
 866.341300177 225.755975875 l 1,33,-1
 840.034208625 193.643281008 l 2,34,35
 706.788644854 30.992304434 706.788644854 30.992304434 387.571733313 30.8193469311 c 0,0,1
EndSplineSet
EndChar

StartChar: uniFEAE
Encoding: 65198 65198 185
GlifName: uniF_E_A_E_
Width: 914
VWidth: 2144
GlyphClass: 2
Flags: W
AnchorPoint: "Anchor-7" 364.969 -769.998 basechar 0
AnchorPoint: "Anchor-10" 459.256 1370.2 basechar 0
LayerCount: 2
Fore
SplineSet
618.495389333 493.150875052 m 1,0,-1
 676.262173143 303.741162123 l 2,1,2
 698.219128266 232.465126508 698.219128266 232.465126508 754.819851797 195.732074973 c 128,-1,3
 811.420575328 158.999023438 811.420575328 158.999023438 895.31640625 158.999023438 c 2,4,-1
 909.350997164 158.999023438 l 1,5,6
 912.638671875 142.979978799 912.638671875 142.979978799 912.638671875 112.322265625 c 2,7,-1
 912.638671875 88.1475405303 l 2,8,9
 912.666050783 81.4636830704 912.666050783 81.4636830704 912.550585644 75.1582211241 c 128,-1,10
 912.435120504 68.8527591777 912.435120504 68.8527591777 912.194451386 63.3860497025 c 128,-1,11
 911.953782268 57.9193402273 911.953782268 57.9193402273 911.611672049 52.9945963973 c 128,-1,12
 911.269561831 48.0698525673 911.269561831 48.0698525673 910.831484186 43.8889788901 c 128,-1,13
 910.393406542 39.7081052129 910.393406542 39.7081052129 909.896101837 36.249997476 c 128,-1,14
 909.398797132 32.7918897392 909.398797132 32.7918897392 908.835572647 30 c 2,15,-1
 905.80078125 30 l 2,16,17
 784.052816525 30 784.052816525 30 753.359166748 71.1657696824 c 2,18,-1
 706.427245767 134.110015933 l 1,19,-1
 699.428034131 55.907750112 l 2,20,21
 678.229315479 -180.945758185 678.229315479 -180.945758185 518.316594152 -320.885136885 c 128,-1,22
 358.403872824 -460.824515585 358.403872824 -460.824515585 51.9907342275 -506.673764441 c 1,23,-1
 24.0125408979 -394.759707424 l 1,24,25
 299.024991098 -351.392921454 299.024991098 -351.392921454 441.330557176 -221.184859805 c 128,-1,26
 583.636123254 -90.9767981564 583.636123254 -90.9767981564 583.249962756 123.390045099 c 0,27,28
 583.129786926 199.657100869 583.129786926 199.657100869 563.273687796 282.9854948 c 128,-1,29
 543.417588667 366.313888731 543.417588667 366.313888731 504.948102361 454.302482953 c 1,30,-1
 618.495389333 493.150875052 l 1,0,-1
EndSplineSet
PairPos2: "'kern' Horizontal Kerning lookup 15-2" uniFBFE dx=60 dy=0 dh=60 dv=0 dx=0 dy=0 dh=0 dv=0
PairPos2: "'kern' Horizontal Kerning lookup 15-1" uniFEE7 dx=-178 dy=0 dh=-178 dv=0 dx=0 dy=0 dh=0 dv=0
PairPos2: "'kern' Horizontal Kerning lookup 15-2" uniFB90 dx=-226 dy=0 dh=-226 dv=0 dx=0 dy=0 dh=0 dv=0
PairPos2: "'kern' Horizontal Kerning lookup 15-2" uniFB8E dx=-226 dy=0 dh=-226 dv=0 dx=0 dy=0 dh=0 dv=0
PairPos2: "'kern' Horizontal Kerning lookup 15-2" uni06A9 dx=-226 dy=0 dh=-226 dv=0 dx=0 dy=0 dh=0 dv=0
PairPos2: "'kern' Horizontal Kerning lookup 15-2" uni064A dx=-60 dy=0 dh=-60 dv=0 dx=0 dy=0 dh=0 dv=0
PairPos2: "'kern' Horizontal Kerning lookup 15-2" afii57414 dx=-60 dy=0 dh=-60 dv=0 dx=0 dy=0 dh=0 dv=0
PairPos2: "'kern' Horizontal Kerning lookup 15-2" uni0649 dx=-60 dy=0 dh=-60 dv=0 dx=0 dy=0 dh=0 dv=0
PairPos2: "'kern' Horizontal Kerning lookup 15-2" uniFEEB dx=-178 dy=0 dh=-178 dv=0 dx=0 dy=0 dh=0 dv=0
PairPos2: "'kern' Horizontal Kerning lookup 15-2" uni0647 dx=-178 dy=0 dh=-178 dv=0 dx=0 dy=0 dh=0 dv=0
PairPos2: "'kern' Horizontal Kerning lookup 15-2" uni0646 dx=-60 dy=0 dh=-60 dv=0 dx=0 dy=0 dh=0 dv=0
PairPos2: "'kern' Horizontal Kerning lookup 15-2" uniFEE3 dx=-178 dy=0 dh=-178 dv=0 dx=0 dy=0 dh=0 dv=0
PairPos2: "'kern' Horizontal Kerning lookup 15-2" uni0645 dx=-178 dy=0 dh=-178 dv=0 dx=0 dy=0 dh=0 dv=0
PairPos2: "'kern' Horizontal Kerning lookup 15-2" uniFEFB dx=-143 dy=0 dh=-143 dv=0 dx=0 dy=0 dh=0 dv=0
PairPos2: "'kern' Horizontal Kerning lookup 15-2" uniFEDF dx=-143 dy=0 dh=-143 dv=0 dx=0 dy=0 dh=0 dv=0
PairPos2: "'kern' Horizontal Kerning lookup 15-2" uni0644 dx=-60 dy=0 dh=-60 dv=0 dx=0 dy=0 dh=0 dv=0
PairPos2: "'kern' Horizontal Kerning lookup 15-2" uniFEDB dx=-226 dy=0 dh=-226 dv=0 dx=0 dy=0 dh=0 dv=0
PairPos2: "'kern' Horizontal Kerning lookup 15-2" uni0643 dx=-143 dy=0 dh=-143 dv=0 dx=0 dy=0 dh=0 dv=0
PairPos2: "'kern' Horizontal Kerning lookup 15-2" uniFED7 dx=-178 dy=0 dh=-178 dv=0 dx=0 dy=0 dh=0 dv=0
PairPos2: "'kern' Horizontal Kerning lookup 15-2" uni0642 dx=-60 dy=0 dh=-60 dv=0 dx=0 dy=0 dh=0 dv=0
PairPos2: "'kern' Horizontal Kerning lookup 15-2" uniFED3 dx=-178 dy=0 dh=-178 dv=0 dx=0 dy=0 dh=0 dv=0
PairPos2: "'kern' Horizontal Kerning lookup 15-2" uni0641 dx=-178 dy=0 dh=-178 dv=0 dx=0 dy=0 dh=0 dv=0
PairPos2: "'kern' Horizontal Kerning lookup 15-2" uniFECF dx=-178 dy=0 dh=-178 dv=0 dx=0 dy=0 dh=0 dv=0
PairPos2: "'kern' Horizontal Kerning lookup 15-2" uniFECB dx=-178 dy=0 dh=-178 dv=0 dx=0 dy=0 dh=0 dv=0
PairPos2: "'kern' Horizontal Kerning lookup 15-2" uniFEC7 dx=-178 dy=0 dh=-178 dv=0 dx=0 dy=0 dh=0 dv=0
PairPos2: "'kern' Horizontal Kerning lookup 15-2" uni0638 dx=-178 dy=0 dh=-178 dv=0 dx=0 dy=0 dh=0 dv=0
PairPos2: "'kern' Horizontal Kerning lookup 15-2" uniFEC3 dx=-178 dy=0 dh=-178 dv=0 dx=0 dy=0 dh=0 dv=0
PairPos2: "'kern' Horizontal Kerning lookup 15-2" uni0637 dx=-178 dy=0 dh=-178 dv=0 dx=0 dy=0 dh=0 dv=0
PairPos2: "'kern' Horizontal Kerning lookup 15-2" uniFEBF dx=-178 dy=0 dh=-178 dv=0 dx=0 dy=0 dh=0 dv=0
PairPos2: "'kern' Horizontal Kerning lookup 15-2" uni0636 dx=-178 dy=0 dh=-178 dv=0 dx=0 dy=0 dh=0 dv=0
PairPos2: "'kern' Horizontal Kerning lookup 15-2" uniFEBB dx=-178 dy=0 dh=-178 dv=0 dx=0 dy=0 dh=0 dv=0
PairPos2: "'kern' Horizontal Kerning lookup 15-2" uni0635 dx=-178 dy=0 dh=-178 dv=0 dx=0 dy=0 dh=0 dv=0
PairPos2: "'kern' Horizontal Kerning lookup 15-2" uniFEB7 dx=-178 dy=0 dh=-178 dv=0 dx=0 dy=0 dh=0 dv=0
PairPos2: "'kern' Horizontal Kerning lookup 15-2" uni0634 dx=-178 dy=0 dh=-178 dv=0 dx=0 dy=0 dh=0 dv=0
PairPos2: "'kern' Horizontal Kerning lookup 15-2" uniFEB3 dx=-178 dy=0 dh=-178 dv=0 dx=0 dy=0 dh=0 dv=0
PairPos2: "'kern' Horizontal Kerning lookup 15-2" uni0633 dx=-178 dy=0 dh=-178 dv=0 dx=0 dy=0 dh=0 dv=0
PairPos2: "'kern' Horizontal Kerning lookup 15-2" uni0630 dx=-178 dy=0 dh=-178 dv=0 dx=0 dy=0 dh=0 dv=0
PairPos2: "'kern' Horizontal Kerning lookup 15-2" uni062F dx=-178 dy=0 dh=-178 dv=0 dx=0 dy=0 dh=0 dv=0
PairPos2: "'kern' Horizontal Kerning lookup 15-2" uniFEA7 dx=-178 dy=0 dh=-178 dv=0 dx=0 dy=0 dh=0 dv=0
PairPos2: "'kern' Horizontal Kerning lookup 15-2" uniFEA3 dx=-178 dy=0 dh=-178 dv=0 dx=0 dy=0 dh=0 dv=0
PairPos2: "'kern' Horizontal Kerning lookup 15-2" uniFE9F dx=-178 dy=0 dh=-178 dv=0 dx=0 dy=0 dh=0 dv=0
PairPos2: "'kern' Horizontal Kerning lookup 15-2" uniFE9B dx=-178 dy=0 dh=-178 dv=0 dx=0 dy=0 dh=0 dv=0
PairPos2: "'kern' Horizontal Kerning lookup 15-2" uni062B dx=-178 dy=0 dh=-178 dv=0 dx=0 dy=0 dh=0 dv=0
PairPos2: "'kern' Horizontal Kerning lookup 15-2" uniFE97 dx=-178 dy=0 dh=-178 dv=0 dx=0 dy=0 dh=0 dv=0
PairPos2: "'kern' Horizontal Kerning lookup 15-2" uni062A dx=-178 dy=0 dh=-178 dv=0 dx=0 dy=0 dh=0 dv=0
PairPos2: "'kern' Horizontal Kerning lookup 15-2" uni0629 dx=-178 dy=0 dh=-178 dv=0 dx=0 dy=0 dh=0 dv=0
PairPos2: "'kern' Horizontal Kerning lookup 15-2" uni0628 dx=-178 dy=0 dh=-178 dv=0 dx=0 dy=0 dh=0 dv=0
PairPos2: "'kern' Horizontal Kerning lookup 15-2" uni0627 dx=-143 dy=0 dh=-143 dv=0 dx=0 dy=0 dh=0 dv=0
PairPos2: "'kern' Horizontal Kerning lookup 15-2" uni0623 dx=-143 dy=0 dh=-143 dv=0 dx=0 dy=0 dh=0 dv=0
PairPos2: "'kern' Horizontal Kerning lookup 15-2" uni0622 dx=-143 dy=0 dh=-143 dv=0 dx=0 dy=0 dh=0 dv=0
PairPos2: "'kern' Horizontal Kerning lookup 15-2" uni0621 dx=-178 dy=0 dh=-178 dv=0 dx=0 dy=0 dh=0 dv=0
PairPos2: "'kern' Horizontal Kerning lookup 15-2" uniFB94 dx=-226 dy=0 dh=-226 dv=0 dx=0 dy=0 dh=0 dv=0
PairPos2: "'kern' Horizontal Kerning lookup 15-2" uniFB92 dx=-226 dy=0 dh=-226 dv=0 dx=0 dy=0 dh=0 dv=0
PairPos2: "'kern' Horizontal Kerning lookup 15-2" uni06AF dx=-226 dy=0 dh=-226 dv=0 dx=0 dy=0 dh=0 dv=0
PairPos2: "'kern' Horizontal Kerning lookup 15-2" afii57506 dx=-178 dy=0 dh=-178 dv=0 dx=0 dy=0 dh=0 dv=0
PairPos2: "'kern' Horizontal Kerning lookup 15-2" afii57440 dx=-178 dy=0 dh=-178 dv=0 dx=0 dy=0 dh=0 dv=0
PairPos2: "'kern' Horizontal Kerning lookup 15-2" uniFE8B dx=-178 dy=0 dh=-178 dv=0 dx=0 dy=0 dh=0 dv=0
EndChar

StartChar: uniFEB2
Encoding: 65202 65202 189
GlifName: uniF_E_B_2
Width: 2589
VWidth: 2952
GlyphClass: 2
Flags: W
AnchorPoint: "Anchor-7" 595.902 -799.086 basechar 0
AnchorPoint: "Anchor-10" 1794.53 1378.1 basechar 0
LayerCount: 2
Fore
SplineSet
1304.45808134 337.761013095 m 2,0,1
 1332.88622126 249.938217611 1332.88622126 249.938217611 1396.81173954 203.985634522 c 0,2,3
 1460.73725782 158.033051434 1460.73725782 158.033051434 1554.07619757 158.073244467 c 0,4,5
 1658.11764588 158.032692406 1658.11764588 158.032692406 1715.05176796 212.050820534 c 0,6,7
 1771.98589004 266.068948661 1771.98589004 266.068948661 1771.96777092 366.353916011 c 0,8,9
 1771.98412714 406.263590352 1771.98412714 406.263590352 1771.52066724 432.920402643 c 0,10,11
 1771.05720735 459.577214935 1771.05720735 459.577214935 1770.04389365 474.664650378 c 2,12,-1
 1766.46533482 527.94654649 l 1,13,-1
 1871.68087931 540.298440681 l 1,14,-1
 1885.56889594 340.543513344 l 2,15,16
 1891.48676517 253.987315012 1891.48676517 253.987315012 1940.20698594 206.391096069 c 0,17,18
 1988.92720671 158.794877127 1988.92720671 158.794877127 2073.21172358 158.520349297 c 0,19,20
 2160.785196 158.804477721 2160.785196 158.804477721 2206.46790227 219.113560929 c 0,21,22
 2252.15060854 279.422644138 2252.15060854 279.422644138 2253.51027013 386.499166071 c 0,23,24
 2254.01591019 452.977687239 2254.01591019 452.977687239 2248.33110844 516.852808251 c 2,25,-1
 2245.49700287 548.697161783 l 1,26,-1
 2350.57908403 561.111470594 l 1,27,-1
 2363.95359253 402.93405597 l 2,28,29
 2370.3861233 325.876587414 2370.3861233 325.876587414 2396.22672786 271.518048368 c 0,30,31
 2422.06733242 217.159509322 2422.06733242 217.159509322 2468.51247327 187.586712045 c 0,32,33
 2514.95761412 158.013914767 2514.95761412 158.013914767 2579.35191616 158.0000007 c 2,34,-1
 2583.96862847 157.999003139 l 1,35,36
 2587.52636719 140.67807356 2587.52636719 140.67807356 2587.52636719 107.1171875 c 2,37,-1
 2587.52636719 88.5639466467 l 2,38,39
 2586.84732748 49.2795659732 2586.84732748 49.2795659732 2582.76528577 29.943359375 c 1,40,-1
 2581.12865083 29.9433581613 l 2,41,42
 2518.91065595 29.9610563535 2518.91065595 29.9610563535 2474.24941391 44.0438712438 c 0,43,44
 2429.58817187 58.1266861341 2429.58817187 58.1266861341 2402.0116184 84.9188585602 c 0,45,46
 2374.43506493 111.711030986 2374.43506493 111.711030986 2360.06545143 152.480346221 c 2,47,-1
 2336.65510579 218.899930891 l 1,48,-1
 2304.97770681 156.002014357 l 2,49,50
 2241.51906938 30 2241.51906938 30 2082.5 30 c 0,51,52
 1993.71147264 30 1993.71147264 30 1939.57724882 60.4678115331 c 0,53,54
 1885.44302499 90.9356230662 1885.44302499 90.9356230662 1859.6295844 152.576372079 c 2,55,-1
 1838.59674109 202.801378347 l 1,56,-1
 1807.37826328 158.18816959 l 2,57,58
 1762.41834882 93.9375657791 1762.41834882 93.9375657791 1699.66048741 62.4470568431 c 0,59,60
 1636.902626 30.9565479071 1636.902626 30.9565479071 1552.82763803 30.9189379643 c 0,61,62
 1447.74311524 30.9924880916 1447.74311524 30.9924880916 1388.9514327 79.2403544013 c 2,63,-1
 1340.34888636 119.126424274 l 1,64,-1
 1339.92061785 56.254151641 l 2,65,66
 1339.04576852 -72.178743874 1339.04576852 -72.178743874 1276.77011516 -204.113939686 c 0,67,68
 1139.04515601 -493.988428593 1139.04515601 -493.988428593 707.321312762 -493.72461248 c 0,69,70
 282.142468414 -493.918043018 282.142468414 -493.918043018 172.396259868 -210.143800367 c 0,71,72
 131.976020364 -104.47061858 131.976020364 -104.47061858 131.75290789 41.0077809553 c 0,73,74
 131.978854865 228.441067004 131.978854865 228.441067004 219.629130578 451.117359454 c 1,75,-1
 326.953676341 407.969823633 l 1,76,77
 252.009157495 207.223860375 252.009157495 207.223860375 252.268561954 42.8812312374 c 0,78,79
 252.126101542 -161.806406871 252.126101542 -161.806406871 370.38479457 -267.451739885 c 0,80,81
 488.643487599 -373.0970729 488.643487599 -373.0970729 714.375143427 -373.203122253 c 0,82,83
 961.684932724 -373.097284049 961.684932724 -373.097284049 1090.71211257 -252.004193942 c 0,84,85
 1219.73929241 -130.911103834 1219.73929241 -130.911103834 1220.55677898 103.662588343 c 0,86,87
 1220.97892172 278.2464719 1220.97892172 278.2464719 1141.75701443 454.423379972 c 1,88,-1
 1254.00057115 493.638942835 l 1,89,-1
 1304.45808134 337.761013095 l 2,0,1
EndSplineSet
EndChar

StartChar: uniFEB3
Encoding: 65203 65203 190
GlifName: uniF_E_B_3
Width: 1613
VWidth: 2952
GlyphClass: 2
Flags: W
AnchorPoint: "Anchor-10" 859.961 1380.67 basechar 0
AnchorPoint: "Anchor-7" 769.534 -236.974 basechar 0
LayerCount: 2
Fore
SplineSet
876.577425667 325.125212445 m 0,0,1
 883.003311788 357.024878706 883.003311788 357.024878706 882.95310839 401.423508887 c 0,2,3
 882.962847583 410.678583105 882.962847583 410.678583105 882.796609374 420.036096757 c 0,4,5
 882.630371165 429.393610408 882.630371165 429.393610408 882.288758206 438.841066542 c 0,6,7
 881.947145247 448.288522675 881.947145247 448.288522675 881.430036697 457.83862622 c 0,8,9
 880.912928147 467.388729764 880.912928147 467.388729764 880.221383474 477.02846728 c 0,10,11
 879.529838801 486.668204795 879.529838801 486.668204795 878.663280347 496.410797699 c 2,12,-1
 875.847053702 528.073231547 l 1,13,-1
 980.360386459 540.339432132 l 1,14,-1
 994.251891451 340.523774031 l 2,15,16
 1000.34653975 254.004736248 1000.34653975 254.004736248 1048.94175761 206.403702141 c 0,17,18
 1097.53697547 158.802668034 1097.53697547 158.802668034 1181.49772299 158.537934754 c 0,19,20
 1268.49513474 158.81602827 1268.49513474 158.81602827 1312.2443955 222.716288492 c 0,21,22
 1355.99365626 286.616548713 1355.99365626 286.616548713 1355.98632786 399.394439937 c 0,23,24
 1355.99281819 448.101578557 1355.99281819 448.101578557 1346.69957859 506.476969173 c 0,25,26
 1337.40633899 564.852359789 1337.40633899 564.852359789 1319.08371293 632.999229396 c 1,27,-1
 1436.62924484 663.731005136 l 1,28,29
 1456.8887041 594.221512303 1456.8887041 594.221512303 1466.66958407 530.064745877 c 0,30,31
 1476.45046404 465.907979452 1476.45046404 465.907979452 1476.02014721 406.24009369 c 0,32,33
 1476 403.096122051 1476 403.096122051 1476 400.565933747 c 0,34,35
 1475.05970938 186.649816976 1475.05970938 186.649816976 1364.51640865 89.7568081905 c 0,36,37
 1297.68650282 30.9993775991 1297.68650282 30.9993775991 1184.72669612 30.993164042 c 0,38,39
 1099.44107945 30.9963201134 1099.44107945 30.9963201134 1046.89122083 61.1612810538 c 0,40,41
 994.341362205 91.3262419943 994.341362205 91.3262419943 968.345480346 152.737573077 c 2,42,-1
 947.452113908 202.094984793 l 1,43,-1
 916.30459878 158.477108253 l 2,44,45
 824.559126733 30 824.559126733 30 656.440089247 30 c 0,46,47
 461.841678501 30.9077683648 461.841678501 30.9077683648 409.710519608 152.865703302 c 2,48,-1
 385.925138645 208.510273758 l 1,49,-1
 356.038856926 155.89019457 l 2,50,51
 284.537827685 30 284.537827685 30 58.849609375 30 c 2,52,-1
 -6.9384765625 30 l 2,53,54
 -25.217555692 30 -25.217555692 30 -35.0841874028 34.6597706424 c 0,55,56
 -44.9508191136 39.3195412849 -44.9508191136 39.3195412849 -49.864569713 51.9473147259 c 0,57,58
 -54.7783203125 64.575088167 -54.7783203125 64.575088167 -54.7783203125 88.3134765625 c 2,59,-1
 -54.7784331811 107.268816217 l 2,60,61
 -54.8610631285 137.391618137 -54.8610631285 137.391618137 -44.916788558 147.695320787 c 0,62,63
 -34.9725139875 157.999023438 -34.9725139875 157.999023438 -6.9384765625 157.999023438 c 2,64,-1
 61.0040484705 157.999023438 l 2,65,66
 171.204512169 157.999545864 171.204512169 157.999545864 240.009923481 199.683945303 c 0,67,68
 308.815334794 241.368344743 308.815334794 241.368344743 326.279931281 324.842803509 c 0,69,70
 333.021241376 356.98957226 333.021241376 356.98957226 332.717694282 401.472421831 c 0,71,72
 333.00687865 444.933987578 333.00687865 444.933987578 328.426952222 496.425446135 c 2,73,-1
 325.610725577 528.087879985 l 1,74,-1
 430.124058336 540.35408057 l 1,75,-1
 444.017816087 340.506682565 l 2,76,77
 450.345130342 252.023740968 450.345130342 252.023740968 506.334393405 205.028236905 c 0,78,79
 562.323656468 158.032732842 562.323656468 158.032732842 658.050800048 158.073245295 c 0,80,81
 747.199963057 158.032673278 747.199963057 158.032673278 803.865254534 200.832246972 c 0,82,83
 860.530546012 243.631820667 860.530546012 243.631820667 876.577425667 325.125212445 c 0,0,1
EndSplineSet
EndChar

StartChar: uniFEB4
Encoding: 65204 65204 191
GlifName: uniF_E_B_4
Width: 1698
VWidth: 2945
GlyphClass: 2
Flags: W
AnchorPoint: "Anchor-7" 769.534 -236.974 basechar 0
AnchorPoint: "Anchor-10" 839.961 1380.67 basechar 0
LayerCount: 2
Fore
SplineSet
994.249971295 340.551211747 m 2,0,1
 1000.27346311 253.90911807 1000.27346311 253.90911807 1049.40270144 206.36438334 c 0,2,3
 1098.53193978 158.81964861 1098.53193978 158.81964861 1183.36780469 158.578981866 c 0,4,5
 1271.71108439 158.827482114 1271.71108439 158.827482114 1317.21538004 218.607801101 c 0,6,7
 1362.71967568 278.388120087 1362.71967568 278.388120087 1362.38720121 384.367768929 c 0,8,9
 1361.9951803 464.053488785 1361.9951803 464.053488785 1357.29106938 516.909448876 c 2,10,-1
 1354.45696381 548.753802408 l 1,11,-1
 1459.53904497 561.168111219 l 1,12,-1
 1472.91395623 402.985876393 l 2,13,14
 1482.67899144 286.234282984 1482.67899144 286.234282984 1537.34661274 222.110962588 c 0,15,16
 1592.01423404 157.987642192 1592.01423404 157.987642192 1688.32160052 157.99804705 c 2,17,-1
 1692.93230838 157.998545182 l 1,18,19
 1696.48632812 140.707144472 1696.48632812 140.707144472 1696.48632812 107.173828125 c 2,20,-1
 1696.48632812 88.4438853557 l 2,21,22
 1696.27205447 49.5123413632 1696.27205447 49.5123413632 1692.24587373 30 c 1,23,-1
 1690.08007812 30 l 2,24,25
 1597.04459923 30 1597.04459923 30 1543.65674147 60.5340934048 c 0,26,27
 1490.26888372 91.0681868097 1490.26888372 91.0681868097 1469.08598401 152.36343955 c 2,28,-1
 1445.8737478 219.530820093 l 1,29,-1
 1413.93249188 156.048372995 l 2,30,31
 1350.51112859 30 1350.51112859 30 1189 30 c 0,32,33
 1106.06797872 30 1106.06797872 30 1052.09301698 60.6631595066 c 0,34,35
 998.11805525 91.3263190132 998.11805525 91.3263190132 967.72092597 154.115171812 c 2,36,-1
 945.688633233 199.625468942 l 1,37,-1
 916.30459878 158.477108253 l 2,38,39
 824.559126733 30 824.559126733 30 656.440089246 30 c 0,40,41
 461.841678501 30.9077683648 461.841678501 30.9077683648 409.710519608 152.865703302 c 2,42,-1
 385.925138645 208.510273758 l 1,43,-1
 356.038856926 155.89019457 l 2,44,45
 284.537827685 30 284.537827685 30 58.849609375 30 c 2,46,-1
 -6.9384765625 30 l 2,47,48
 -25.217555692 30 -25.217555692 30 -35.0841874028 34.6597706424 c 0,49,50
 -44.9508191136 39.3195412849 -44.9508191136 39.3195412849 -49.864569713 51.9473147259 c 0,51,52
 -54.7783203125 64.575088167 -54.7783203125 64.575088167 -54.7783203125 88.3134765625 c 2,53,-1
 -54.7784331811 107.268816217 l 2,54,55
 -54.8610631285 137.391618136 -54.8610631285 137.391618136 -44.916788558 147.695320787 c 0,56,57
 -34.9725139875 157.999023438 -34.9725139875 157.999023438 -6.9384765625 157.999023438 c 2,58,-1
 61.0040477835 157.999023438 l 2,59,60
 171.663308644 157.999545504 171.663308644 157.999545504 240.735757549 199.666746764 c 0,61,62
 309.808206455 241.333948024 309.808206455 241.333948024 327.268412983 324.786406238 c 0,63,64
 330.310432438 339.155168513 330.310432438 339.155168513 331.589027407 357.983962596 c 0,65,66
 332.867622376 376.81275668 332.867622376 376.81275668 332.717405591 401.461259201 c 0,67,68
 332.789337455 412.263688862 332.789337455 412.263688862 332.553827346 423.677528748 c 0,69,70
 332.318317238 435.091368634 332.318317238 435.091368634 331.77994821 446.992170747 c 0,71,72
 331.241579182 458.892972861 331.241579182 458.892972861 330.401871862 471.277694521 c 0,73,74
 329.562164543 483.662416181 329.562164543 483.662416181 328.426952222 496.425446136 c 2,75,-1
 325.610725577 528.087879985 l 1,76,-1
 430.124058335 540.35408057 l 1,77,-1
 444.017816087 340.506682565 l 2,78,79
 450.345131535 252.023724273 450.345131535 252.023724273 506.33438846 205.028228518 c 0,80,81
 562.323645385 158.032732763 562.323645385 158.032732763 658.05088436 158.073245256 c 0,82,83
 747.629064412 158.032729742 747.629064412 158.032729742 804.581494267 200.840853001 c 0,84,85
 861.533924123 243.648976259 861.533924123 243.648976259 877.576590406 325.120970615 c 0,86,87
 883.002959741 352.018742899 883.002959741 352.018742899 882.95310839 401.423508887 c 0,88,89
 882.959196149 407.208655817 882.959196149 407.208655817 882.89654592 413.033616728 c 0,90,91
 882.83389569 418.858577639 882.83389569 418.858577639 882.702574225 424.719457209 c 0,92,93
 882.57125276 430.580336779 882.57125276 430.580336779 882.371420839 436.479766317 c 0,94,95
 882.171588919 442.379195855 882.171588919 442.379195855 881.903189315 448.315971346 c 0,96,97
 881.634789711 454.252746838 881.634789711 454.252746838 881.29811545 460.226628865 c 0,98,99
 880.96144119 466.200510891 880.96144119 466.200510891 880.556302799 472.213166167 c 0,100,101
 880.151164408 478.225821442 880.151164408 478.225821442 879.677987158 484.27413982 c 0,102,103
 879.204809908 490.322458197 879.204809908 490.322458197 878.663280347 496.410797698 c 2,104,-1
 875.847053702 528.073231547 l 1,105,-1
 980.36038646 540.339432133 l 1,106,-1
 994.249971295 340.551211747 l 2,0,1
EndSplineSet
EndChar

StartChar: uniFEBA
Encoding: 65210 65210 197
GlifName: uniF_E_B_A_
Width: 2666
VWidth: 2952
GlyphClass: 2
Flags: W
AnchorPoint: "Anchor-10" 2084.53 1377.1 basechar 0
AnchorPoint: "Anchor-7" 595.902 -800.086 basechar 0
LayerCount: 2
Fore
SplineSet
2660.93221639 158 m 1,0,1
 2664.49316406 140.702848864 2664.49316406 140.702848864 2664.49316406 107.174804688 c 2,2,-1
 2664.49316406 88.3894344904 l 2,3,4
 2664.27590037 49.486327204 2664.27590037 49.486327204 2660.25241054 30 c 1,5,-1
 2650.2265625 30 l 2,6,7
 2528.57821764 30 2528.57821764 30 2444.51715736 49.473192229 c 128,-1,8
 2360.45609707 68.946384458 2360.45609707 68.946384458 2315.84342639 105.026471098 c 2,9,-1
 2299.95025368 117.879928184 l 1,10,-1
 2282.17272693 107.79212167 l 2,11,12
 2255.97108104 92.9240729414 2255.97108104 92.9240729414 2220.04681061 80.7502559403 c 128,-1,13
 2184.12254017 68.5764389392 2184.12254017 68.5764389392 2137.7992824 59.0982821511 c 128,-1,14
 2091.47602462 49.620125363 2091.47602462 49.620125363 2035.98379704 43.1681061952 c 128,-1,15
 1980.49156945 36.7160870274 1980.49156945 36.7160870274 1914.24994038 33.3580435137 c 128,-1,16
 1848.00831132 30 1848.00831132 30 1773.15136719 30 c 2,17,-1
 1722.34082031 30 l 2,18,19
 1663.80913407 30 1663.80913407 30 1612.63200799 33.5081180944 c 128,-1,20
 1561.4548819 37.0162361888 1561.4548819 37.0162361888 1519.19598728 43.8126881134 c 128,-1,21
 1476.93709267 50.609140038 1476.93709267 50.609140038 1442.94298127 60.3983650653 c 128,-1,22
 1408.94886987 70.1875900926 1408.94886987 70.1875900926 1383.24302535 82.9290701883 c 2,23,-1
 1340.24748717 104.240441366 l 1,24,-1
 1339.92061785 56.254151641 l 2,25,26
 1339.04576852 -72.178743874 1339.04576852 -72.178743874 1276.77011516 -204.113939686 c 0,27,28
 1139.04515183 -493.988437377 1139.04515183 -493.988437377 706.57025775 -493.724631069 c 0,29,30
 282.560732817 -493.214715968 282.560732817 -493.214715968 172.678101262 -210.207277556 c 0,31,32
 132.491459236 -105.559491542 132.491459236 -105.559491542 131.758585548 38.1105025118 c 0,33,34
 131.064593307 226.519124723 131.064593307 226.519124723 219.612753805 451.123943385 c 1,35,-1
 326.994402082 407.953450721 l 1,36,37
 252.009109668 206.223432161 252.009109668 206.223432161 252.269584207 41.7082800822 c 0,38,39
 252.657191965 -164.581440145 252.657191965 -164.581440145 373.206407644 -269.872885726 c 128,-1,40
 493.755623323 -375.164331307 493.755623323 -375.164331307 723.180246521 -373.164817309 c 0,41,42
 966.179493396 -370.992826404 966.179493396 -370.992826404 1092.95818601 -250.824954276 c 128,-1,43
 1219.73687863 -130.657082147 1219.73687863 -130.657082147 1220.55264659 100.043636001 c 0,44,45
 1220.69479707 158.803616173 1220.69479707 158.803616173 1211.76562535 218.433449129 c 128,-1,46
 1202.83645363 278.063282086 1202.83645363 278.063282086 1185.26055758 337.047555819 c 128,-1,47
 1167.68466152 396.031829552 1167.68466152 396.031829552 1141.6336344 454.380273554 c 1,48,-1
 1253.94875919 493.620840815 l 1,49,-1
 1312.46159817 311.749925843 l 2,50,51
 1324.17693712 275.871700315 1324.17693712 275.871700315 1340.00585962 249.911496657 c 128,-1,52
 1355.83478213 223.951292999 1355.83478213 223.951292999 1379.1054537 206.981503273 c 128,-1,53
 1402.37612526 190.011713546 1402.37612526 190.011713546 1430.89253899 187.247390691 c 2,54,-1
 1449.88577395 185.406225319 l 1,55,-1
 1459.60458372 201.828088821 l 2,56,57
 1807.14549391 789.067629957 1807.14549391 789.067629957 2149.91408864 790.423943036 c 0,58,59
 2247.53046367 790.694126515 2247.53046367 790.694126515 2320.61387086 754.577797443 c 128,-1,60
 2393.69727805 718.461468372 2393.69727805 718.461468372 2445.71027162 644.823072127 c 0,61,62
 2507.00481925 557.5139051 2507.00481925 557.5139051 2507.06152728 445.623575867 c 0,63,64
 2507.03326036 389.750657285 2507.03326036 389.750657285 2488.14097295 336.030125822 c 128,-1,65
 2469.24868553 282.309594358 2469.24868553 282.309594358 2430.71045633 229.728748328 c 2,66,-1
 2415.15185646 208.500882872 l 1,67,-1
 2434.17399612 190.311586449 l 2,68,69
 2456.65709007 168.812866141 2456.65709007 168.812866141 2504.62826722 163.40643307 c 128,-1,70
 2552.59944437 158 2552.59944437 158 2655.73828125 158 c 2,71,-1
 2660.93221639 158 l 1,0,1
1624.65625 158.416992188 m 1,72,-1
 1778.71221407 158.417019817 l 2,73,74
 2092.38982146 157.991300178 2092.38982146 157.991300178 2218.81118314 214.592503074 c 0,75,76
 2298.90876778 249.91637227 2298.90876778 249.91637227 2341.16657885 307.537450167 c 128,-1,77
 2383.42438992 365.158528064 2383.42438992 365.158528064 2382.66734968 441.452965601 c 0,78,79
 2381.89632286 516.206548735 2381.89632286 516.206548735 2341.8285075 569.169026338 c 0,80,81
 2273.87466593 657.920653785 2273.87466593 657.920653785 2152.16395818 658.573428055 c 0,82,83
 2061.07606071 658.362982254 2061.07606071 658.362982254 1968.50865212 605.704225889 c 128,-1,84
 1875.94124353 553.045469523 1875.94124353 553.045469523 1785.02439935 453.343744622 c 128,-1,85
 1694.10755517 353.64201972 1694.10755517 353.64201972 1599.33621229 204.507228064 c 2,86,-1
 1570.04704711 158.416992187 l 1,87,-1
 1624.65625 158.416992188 l 1,72,-1
EndSplineSet
EndChar

StartChar: uniFEBB
Encoding: 65211 65211 198
GlifName: uniF_E_B_B_
Width: 1720
VWidth: 2952
GlyphClass: 2
Flags: W
AnchorPoint: "Anchor-10" 1160.91 1376.52 basechar 0
AnchorPoint: "Anchor-7" 699.209 -240.348 basechar 0
LayerCount: 2
Fore
SplineSet
707.638671875 158.416992188 m 1,0,-1
 861.694638274 158.417019814 l 2,1,2
 1018.8848541 158.203695267 1018.8848541 158.203695267 1127.74005452 171.800934491 c 0,3,4
 1236.59525494 185.398173716 1236.59525494 185.398173716 1301.78445184 214.589375231 c 0,5,6
 1354.20830772 237.663153788 1354.20830772 237.663153788 1390.540676 270.626389441 c 0,7,8
 1426.87304428 303.589625093 1426.87304428 303.589625093 1446.13912016 346.560544994 c 0,9,10
 1465.40519603 389.531464896 1465.40519603 389.531464896 1465.65190667 440.434738728 c 0,11,12
 1466.05472971 515.057708587 1466.05472971 515.057708587 1424.76083053 569.234457804 c 0,13,14
 1356.87733437 657.920652452 1356.87733437 657.920652452 1235.14622411 658.57342879 c 0,15,16
 971.527090728 657.961865656 971.527090728 657.961865656 682.345173046 204.548914484 c 2,17,-1
 652.922727742 158.416992188 l 1,18,-1
 707.638671875 158.416992188 l 1,0,-1
324.148338302 162.907176141 m 2,19,20
 226.788152539 30 226.788152539 30 9.984375 30 c 2,21,-1
 -6.9384765625 30 l 2,22,23
 -25.217555692 30 -25.217555692 30 -35.0841874028 34.6597706424 c 0,24,25
 -44.9508191136 39.3195412849 -44.9508191136 39.3195412849 -49.864569713 51.9473147259 c 0,26,27
 -54.7783203125 64.575088167 -54.7783203125 64.575088167 -54.7783203125 88.3134765625 c 2,28,-1
 -54.7784331811 107.268816217 l 2,29,30
 -54.8607212175 137.266974279 -54.8607212175 137.266974279 -44.7269355215 147.633487139 c 0,31,32
 -34.5931498255 158 -34.5931498255 158 -5.9384765625 158 c 2,33,-1
 10.1103515625 158 l 2,34,35
 260.377126768 158 260.377126768 158 286.125824887 311.149336356 c 0,36,37
 293.009657766 351.517041582 293.009657766 351.517041582 292.810791483 403.818874016 c 0,38,39
 292.909162057 426.755443803 292.909162057 426.755443803 292.188389025 449.830258807 c 0,40,41
 291.467615992 472.905073811 291.467615992 472.905073811 289.937465818 495.690757252 c 2,42,-1
 286.359619243 548.96897845 l 1,43,-1
 391.803322303 561.347657567 l 1,44,-1
 407.255596026 360.352257895 l 2,45,46
 412.656494443 290.235519276 412.656494443 290.235519276 437.224053322 245.235680297 c 0,47,48
 461.791612201 200.235841318 461.791612201 200.235841318 509.317115998 188.047802006 c 2,49,-1
 531.126730288 182.454669581 l 1,50,-1
 542.590117197 201.833347718 l 2,51,52
 891.093292427 790.97257123 891.093292427 790.97257123 1232.25480156 790.425842513 c 0,53,54
 1281.89767969 790.325517147 1281.89767969 790.325517147 1324.89908483 781.244071927 c 0,55,56
 1367.90048997 772.162626708 1367.90048997 772.162626708 1404.72836605 753.94367017 c 0,57,58
 1441.55624213 735.724713631 1441.55624213 735.724713631 1472.34244289 708.585106313 c 0,59,60
 1503.12864366 681.445498995 1503.12864366 681.445498995 1528.60782006 644.943627772 c 0,61,62
 1588.95487283 557.700578143 1588.95487283 557.700578143 1588.45275068 453.423859243 c 0,63,64
 1588.02731271 402.400707246 1588.02731271 402.400707246 1575.23023843 344.526225554 c 0,65,66
 1502.16988404 30 1502.16988404 30 856.133789062 30 c 2,67,-1
 805.323242188 30 l 2,68,69
 452.031637443 30 452.031637443 30 374.110090247 160.553938586 c 2,70,-1
 350.905026289 199.432947075 l 1,71,-1
 324.148338302 162.907176141 l 2,19,20
EndSplineSet
EndChar

